<?xml version="1.0" encoding="UTF-8" standalone="no"?>
<!-- Generator: Adobe Illustrator 19.0.0, SVG Export Plug-In . SVG Version: 6.00 Build 0)  -->

<svg
   xmlns:dc="http://purl.org/dc/elements/1.1/"
   xmlns:cc="http://creativecommons.org/ns#"
   xmlns:rdf="http://www.w3.org/1999/02/22-rdf-syntax-ns#"
   xmlns:svg="http://www.w3.org/2000/svg"
   xmlns="http://www.w3.org/2000/svg"
   xmlns:sodipodi="http://sodipodi.sourceforge.net/DTD/sodipodi-0.dtd"
   xmlns:inkscape="http://www.inkscape.org/namespaces/inkscape"
   version="1.1"
   id="レイヤー_1"
   x="0px"
   y="0px"
   viewBox="57 -69 150 174"
   style="enable-background:new 57 -69 150 174;"
   xml:space="preserve"
   inkscape:version="0.91 r13725"
   sodipodi:docname="btn_tab_selected.svg"><metadata
     id="metadata3506"><rdf:RDF><cc:Work
         rdf:about=""><dc:format>image/svg+xml</dc:format><dc:type
           rdf:resource="http://purl.org/dc/dcmitype/StillImage" /><dc:title></dc:title></cc:Work></rdf:RDF></metadata><defs
     id="defs3504" /><sodipodi:namedview
     pagecolor="#ffffff"
     bordercolor="#666666"
     borderopacity="1"
     objecttolerance="10"
     gridtolerance="10"
     guidetolerance="10"
     inkscape:pageopacity="0"
     inkscape:pageshadow="2"
     inkscape:window-width="1920"
     inkscape:window-height="1017"
     id="namedview3502"
     showgrid="false"
     inkscape:zoom="5.4252874"
     inkscape:cx="111.05556"
     inkscape:cy="33.626788"
     inkscape:window-x="-8"
     inkscape:window-y="-8"
     inkscape:window-maximized="1"
     inkscape:current-layer="レイヤー_1" /><style
     type="text/css"
     id="style3464">
	.st0{fill:#7BED00;}
	.st1{fill:#212121;}
</style><g
     id="g3466"><path
       id="XMLID_15_"
       class="st0"
       d="M199.1-5.7c-1.1,0-2.3,0.3-3.5,1c-2.3,1.2-4.3,1.9-6.1,1.9c-1.7,0-3.2-0.6-4.4-1.7   c-1-0.9-2-3.1-1.5-4.7c0.2-0.7,0.8-1.6,2.3-1.9c1.7-0.3,2.2-1.2,2.1-1.9c-0.1-0.6-0.6-1.2-1.5-1.2c-0.7,0-1.5,0.3-2.3,0.9   c-0.4,0.3-0.8,0.4-1.2,0.4c-1,0-1.8-0.8-1.9-1.8c-0.1-0.7,0.4-1.6,1.7-1.8c2.8-0.5,6.4-2.3,7.1-4c0.2-0.5,0.1-1-0.3-1.5   c-0.4-0.5-0.9-0.8-1.4-0.8c-1.1,0-2.3,1.1-3.5,2.2c-1,0.9-2,1.8-3,2.1c-0.4,0.2-0.9,0.2-1.4,0.2c-1,0-1.9-0.4-2.4-1   c-0.4-0.5-0.7-1.3-0.3-2.7c1-3.8,7.5-7,11.4-8.9c0.9-0.4,1.7-0.8,2.2-1.1c1.2-0.7,1.7-1.5,1.5-2.2c-0.2-0.8-1.1-1.4-2.1-1.4   c-0.4,0-0.9,0.1-1.3,0.7c-1.6,2.7-8.9,7.8-13.1,9.3c-0.3,0.1-0.7,0.2-1,0.2c-0.9,0-1.7-0.4-2.2-1.1c-0.5-0.7-0.5-1.7-0.1-2.6   c0.7-1.5,1.8-2.1,2.8-2.6c1.1-0.6,2-1.1,2.4-2.5c0.2-0.6,0.1-1.2-0.2-1.6c-0.3-0.4-0.9-0.7-1.6-0.7c-0.3,0-0.6,0-0.9,0.1   c-1.2,0.3-1.7,1.1-2.2,2c-0.4,0.7-0.9,1.6-1.9,2.3c-0.4,0.3-1.1,0.5-1.9,0.5c-1.3,0-2.7-0.6-3.6-1.5c-0.7-0.8-1.1-1.8-1.1-2.9   c0.1-3.3,5.6-11.2,7.9-13.1c1.5-1.2,1.7-2.8,1.3-3.8c-0.2-0.7-0.8-1.1-1.3-1.1c-1.1,0-2.2,1.4-3.1,3.7c-2.9,7.7-5.1,12.7-8.1,12.7   c-0.5,0-0.9-0.1-1.4-0.4c-2-1.1-1.5-3-1-5.2l0.1-0.2c0.3-1.1,0.2-2-0.2-2.5c-0.3-0.4-0.8-0.5-1.2-0.5c-1,0-2.2,0.7-2.9,1.6   c-1.1,1.5-2.7,2.3-4.4,2.3c-1.9,0-3.7-1-4.6-2.4c-1.5-2.4,0.3-6.8,1.6-9.9l0.2-0.4c0.4-1.1,0.4-2,0-2.6c-0.3-0.4-0.8-0.7-1.3-0.7   s-0.9,0.2-1.2,0.5c-0.4,0.4-0.6,1-0.5,1.8c0.3,4.4,0,9.1-4.8,10.7c-1,0.3-1.9,0.5-2.7,0.5c-1.9,0-3-0.8-3.5-1.5   c-0.8-0.9-1.2-2.3-1-3.5c0.1-0.7-0.1-1.4-0.5-1.9c-0.5-0.6-1.3-0.9-2.1-0.9c-0.7,0-1.3,0.2-1.8,0.7c-0.5,0.5-0.8,1.3-0.8,2.4   c0.1,4.1-2.4,5.3-4.6,5.9c-0.7,0.2-1.5,0.3-2.2,0.3c-2.6,0-4.3-1.3-4.5-3.5c-0.2-2.3-0.9-3.9-1.6-3.9c-0.1,0-0.2,0-0.2,0   c-0.7,0.3-0.7,0.8-0.2,2.8c0.1,0.4,0.2,0.8,0.3,1.3c0.3,1.6,1,5.1-2.2,6.2c-0.6,0.2-1.1,0.3-1.6,0.3c-1.9,0-2.9-1.8-4.1-4.9   c-1.1-3-2.8-8-6.2-8c-1.1,0-2.3,0.5-3.6,1.5c-1.5,1.2-2.4,2.9-2.4,5c-0.1,3.3,1.9,7.1,5.2,9.8c2.1,1.7,2.2,3.5,2.1,4.4   c-0.1,1.1-0.8,2-1.7,2.4c-0.4,0.2-0.7,0.2-1.1,0.2c-1.5,0-2.5-1.4-3.2-2.4c-2.1-3.2-4-4.9-5.7-4.9c-0.3,0-0.7,0.1-1,0.2   c-0.7,0.3-1.1,0.8-1.1,1.4c0,1.3,1.7,3.4,5.5,5.1c2.4,1.1,3.7,2.8,3.7,5.1c0,0.9-0.4,1.9-1.1,2.6c-0.6,0.6-1.2,0.9-1.9,0.9   c-0.6,0-1.5-0.3-2.1-1.5c-0.1-0.1-0.1-0.2-0.2-0.3c-0.9-1.6-1.9-3.5-4-3.5c-0.2,0-0.4,0-0.6,0c-1.7,0.3-2.9,1.4-3,2.8   C84-22.9,85.3-21,89-20.1c1.2,0.3,2.1,0.9,2.5,1.9c0.7,1.8-0.2,4.1-0.9,5.2l-0.1,0.2c-0.7,1.2-2.1,3.4-4.3,3.4   c-0.5,0-1-0.1-1.4-0.3c-0.8-0.4-1.7-0.9-2.5-1.4c-1.3-0.8-2.7-1.6-3.6-1.6c-0.3,0-0.5,0.1-0.7,0.5c-0.3,0.7-0.3,1.3,0.1,1.8   c0.7,1.1,2.8,1.8,5.6,1.9c1,0,1.9,0.6,2.4,1.5c0.7,1.2,0.8,3.1,0.2,4.3c-0.5,1.1-1.2,1.6-2.1,1.6c-0.7,0-1.4-0.4-2.1-0.8   c-0.6-0.3-1.3-0.7-1.8-0.7c-0.4,0-0.7,0.2-1,0.5c-0.5,0.5-0.6,1.3-0.3,2c0.4,1,1.6,1.5,3.3,1.5c0.2,0,0.4,0,0.6,0H83   c1.1,0,1.7,1,1.7,1.9c0,1-0.6,1.9-2,1.9c-0.6,0-1.4-0.2-2.2-0.6C79.4,4,77.7,3,76,2c-3.4-2-7.7-4.4-10.6-5.2   c-0.7-0.2-1.5-0.3-2.2-0.3c-3.3,0-5.7,2-6.1,3.9c-0.4,2.5,0.7,4.3,3.1,4.9C61.1,5.6,62,5.7,63,5.7c1.3,0,2.6-0.2,3.8-0.4   c1.2-0.2,2.5-0.4,3.9-0.4c1.1,0,2.2,0.2,3.2,0.5c2.3,0.7,2.6,1.6,2.5,2.1c-0.1,0.6-0.7,1-1.4,1c-0.9,0-1.7,0.4-2,0.9   c-0.3,0.6-0.1,1.3,0.5,2.1c0.4,0.5,1,0.7,1.8,0.7c1.3,0,3.2-0.6,5.8-1.5c0.7-0.2,1.4-0.5,2.2-0.7c0.3-0.1,0.6-0.1,0.8-0.1   c1.2,0,2.1,1,2.2,2.4c0.1,1.3-0.7,2.7-2.2,2.8c-1,0.1-2.4,0.3-3.9,0.4c-2.4,0.3-4.8,0.5-6,0.6c-2.4,0.2-4.4,1-5,2.1   c-0.2,0.4-0.2,0.8,0,1.2c0.4,0.9,1.1,1.4,2.1,1.4c0.9,0,2.1-0.4,3.4-1.1c2.4-1.4,8.1-3.1,10.7-3.3c0.1,0,0.2,0,0.2,0   c2.4,0,3.9,2.4,4.1,4.6c0.2,2-0.7,3.4-2.1,3.7c-0.2,0-0.4,0-0.6,0c-0.5,0-1.1-0.1-1.7-0.2c-0.6-0.1-1.2-0.2-1.7-0.2   c-0.8,0-1.5,0.2-2,0.7c-0.6,0.6-0.9,1.8-0.6,2.7c0.2,0.5,0.6,1.2,1.6,1.4c0.4,0.1,0.8,0.1,1.1,0.1c1.1,0,1.7-0.4,2.3-0.9   c0.6-0.4,1.2-0.9,2.4-1c0.1,0,0.2,0,0.3,0c1.6,0,2.3,0.9,2.4,1.7c0,1-1,2.2-2.9,2.3c-2.5,0.2-4.4,0.9-5,1.8   c-0.2,0.4-0.2,0.8,0.1,1.3c0.3,0.6,0.7,0.7,0.9,0.7c0.6,0,1.5-0.5,2.4-1c0.5-0.3,1-0.6,1.5-0.8c0.5-0.2,1-0.3,1.5-0.3   c1.8,0,3.1,1.3,3.5,2.5c0.4,1.1,0.4,2.1-0.1,3c-0.5,1-1.6,1.8-2.9,2.2c-0.6,0.2-1.4,0.3-2.4,0.5c-2.7,0.6-6.5,1.3-8.2,2.5   c-2.6,1.9-3.5,4.6-2.2,6.6c1.3,2,3.1,2.4,4.3,2.4c1.9,0,3.8-1,4.8-2.4c2.4-3.6,6.3-7.3,8.7-8.3c0.3-0.1,0.7-0.2,1-0.2   c1.7,0,3.3,1.7,3.5,3.1c0.2,0.9-0.2,1.5-0.9,1.8c-1.6,0.6-2.6,1.6-2.8,2.7c-0.2,0.9,0.1,1.7,0.8,2.4c0.4,0.4,1,0.7,1.6,0.7   c1.4,0,2.9-1.1,3.3-1.8c0.7-1.2,1.4-1.4,1.8-1.4c0.8,0,1.3,0.7,1.5,1.9c0.3,2.4-1.7,4.8-3.4,6.9c-0.8,1-1.6,2-2.1,2.9   c-0.6,1.1-0.3,1.9-0.1,2.3c0.3,0.6,0.9,0.9,1.5,0.9c0.4,0,0.8-0.2,1.1-0.6c1.7-1.5,2.5-5,3-6.4l0,0c0.4-1.1,1.6-1.3,1.8,0.4   l0.1,0.5c0.5,4.5,1.6,8.6,4.2,9.2c5.8,1.5,4.1,14.8,7.2,26.4c3.9,14.8,16.9,11.8,17.2,0.2c0.6-24.5,4.6-35.5,9.9-15.9   c4,14.9,23.5,14,23.6-12.8c0-5.5,0.2-10.6,0.6-15.1c0.3-3.5,2.1-4.2,3.3-3.1c1.4,1.5,2.7,3.3,3.6,4.8c0.3,0.5,0.6,1,0.9,1.3   c0.2,0.2,0.4,0.5,0.5,0.8c1.2,1.7,3.2,4.6,4.3,4.6c0.1,0,0.1,0,0.2-0.1c0.4-0.2,0.6-0.6,0.6-1.2c0.1-0.7-0.1-2.7-3.2-5.6   c-0.4-0.4-0.9-0.9-1.4-1.3c-2.9-2.7-5.3-5-6.7-6.9c-0.8-1.3-1.5-4.2,0.6-4.3c1.5,0.2,2.8,2.5,3.4,3.5c0.7,1.3,1.5,2.3,2.5,2.4   c0.2,0,0.5,0,0.6,0c0.3-0.1,0.5-0.3,0.5-0.5s-0.2-0.7-0.4-1c-0.4-0.6-0.8-1.5-0.1-2c0.3-0.3,0.7-0.4,1.1-0.4c1.6,0,3.5,2.1,5.3,3.9   l0.3,0.3c0.3,0.4,0.7,0.7,1,1.1c1.2,1.4,2.6,3,3.7,3c0.1,0,0.2,0,0.4-0.1c0.8-0.3,1.2-0.7,1.2-1.4c0.1-1.1-0.9-3-4.1-5   c-4.6-3-9.6-8.4-9.7-11.9c0-1.8,0.4-3.2,1.1-4.2c0.9-1.2,2.2-1.8,3.9-1.8c0.2,0,0.5,0,0.7,0c1.2,0.1,2.5,0.8,4,1.6   c2,1,4.2,2.2,7,2.5c0.2,0,0.4,0,0.6,0c2,0,2.9-1.2,3-2.4c0.2-1.4-0.6-3.2-2.8-3.8c-2.2-0.6-4-0.8-5.6-1c-1.8-0.2-3.4-0.4-5.2-1.1   c-1.1-0.4-1.9-1.3-2.2-2.6c-0.6-2.3,0.3-5.2,1.2-6.2c0.4-0.5,1.1-0.8,2-0.8c1.5,0,3.4,0.8,5.4,1.6c0.3,0.1,0.7,0.2,1,0.2   c1.5,0,2.6-1.3,2.6-2.4c0-0.9-0.8-1.4-2.3-1.4c-0.2,0-0.4,0-0.6,0c-0.6,0-1.4,0.1-2.3,0.1c-3.1,0-5-0.8-5.4-2.3   c-0.2-0.7-0.1-1.4,0.4-2c0.7-1,2.3-1.5,4.5-1.5c1.7,0,3.7,0.3,6,0.9c1.1,0.3,2.2,0.5,3.1,0.5c4.6,0,5.9-3.7,5.9-5.6   c0-1.6-0.6-3.3-1.7-4.3C201.5-5.2,200.4-5.7,199.1-5.7z" /><path
       id="XMLID_14_"
       class="st0"
       d="M70.1-11.6c0.1,0,0.2,0,0.3,0c1.3,0,2.5-0.6,3.3-1.7c0.9-1.2,1.3-2.8,0.9-4.3   c-0.7-2.8-2.3-4.9-5-4.9c-0.7,0-1.3,0.1-1.8,0.4c-0.7,0.4-1.5,1.6-1.8,2.6c-0.5,2.4-0.1,4.5,1,6C68.1-12.2,68.3-11.8,70.1-11.6z" /><path
       id="XMLID_13_"
       class="st0"
       d="M156-57.8L156-57.8c2.3,0,4-1.9,4.1-3.7c0.1-1.5,0-4-1-5c-0.8-0.8-2.2-1.6-3.3-1.6l0,0   c-3,0-4.2,1.8-4.3,4.6c0,1.2,0.3,3.1,1.1,3.9C153.6-58.7,154.8-57.9,156-57.8z" /><path
       id="XMLID_12_"
       class="st0"
       d="M198.5,65.8c-1.6,0-2.5,0.5-3.4,2.1c-0.9,1.5-0.2,4.4,1.3,5.3c0.8,0.5,0.8,0.8,1.9,0.8   c1.3,0,1.6-0.5,2.7-1.2c0.8-0.5,1.1-1.4,1.1-2.1c0.2-1.2-0.2-2.7-0.9-3.5C200.5,66.2,200,65.8,198.5,65.8z" /><path
       id="XMLID_11_"
       class="st0"
       d="M206.1-20.9c-0.6-0.6-1-0.8-2-0.8l0,0c-2.6,0-3.5,1.4-3.5,3.9c0,0.9,0.3,1.7,0.9,2.4   c0.7,0.7,1.6,1.1,2.6,1.1l0,0c2.1,0,3-1.9,3-3.9C207-19.3,206.7-20.2,206.1-20.9z" /><path
       id="XMLID_10_"
       class="st0"
       d="M112.5-57.2C112.6-57.2,112.6-57.2,112.5-57.2c1.6,0,2.6-1.5,2.6-3.9c0.1-2.3-0.9-3.7-2.7-3.8   h-0.1c-1.8,0-3.1,1.5-3.2,3.5C109.1-59.5,110.9-57.3,112.5-57.2z" /><path
       id="XMLID_9_"
       class="st0"
       d="M93.8,67.5h-0.1c-1.8,0-3.1,1.5-3.2,3.5c0,1.9,1.7,4.1,3.3,4.2h0.1c1.5,0,2.5-1.5,2.5-3.9   C96.6,69,95.6,67.6,93.8,67.5z" /><path
       id="XMLID_8_"
       class="st0"
       d="M178-58.3c0.2,0,0.4,0,0.5,0c0.8,0,0.9-0.2,1.9-0.8c0.7-0.4,0.9-1.2,1.1-1.8   c0.2-0.7,0-2.1-0.5-3c-0.7-1.1-1-1.5-2.2-1.5c-0.5,0-1,0.1-1.5,0.3c-1.5,0.6-1.8,2.6-1.6,4.2C175.9-59.1,177.2-58.5,178-58.3z" /><path
       id="XMLID_7_"
       class="st0"
       d="M60.5,19L60.5,19c-1.2,0-2.4,0.7-2.4,2.2c0,1.7,1,3.2,2.2,3.3c0.1,0,0.1,0,0.2,0   c1.5,0,2.5-0.9,2.5-2.2C63,20.8,62.4,19,60.5,19z" /><path
       id="XMLID_6_"
       class="st0"
       d="M180.4-54.8c-0.1,0.8,0.8,1.3,1.1,1.4c0.1,0,0.2,0,0.3,0c0.9,0,1.5-0.6,1.6-1.7   c0.1-0.5-0.1-1-0.4-1.3c-0.2-0.2-0.4-0.3-0.7-0.3l0,0C181.8-56.7,180.6-56.5,180.4-54.8z" /><path
       id="XMLID_5_"
       class="st0"
       d="M196.3,59.3c0-1.1-0.9-1.8-1.7-1.9c-0.1,0-0.2,0-0.2,0c-0.8,0-1.6,0.5-1.9,1.2   c-0.2,0.6-0.2,1.2,0.2,1.7s0.9,0.8,1.6,0.8l0,0C195.8,61.1,196.3,60.7,196.3,59.3z" /></g><g
     id="g3479"><polygon
       id="XMLID_4_"
       class="st1"
       points="140.6,-22.2 143.2,-19.5 137.4,-13.7 126.7,-3.1 118.8,4.9 120.5,6.7 127.7,-0.5    129,0.8 121.8,8 123.6,9.7 130.8,2.6 132,3.9 124.9,11 126.6,12.8 134.6,4.8 145.3,-5.8 151.1,-11.7 153.7,-9 158.5,-27  " /><g
       id="g3482"><polygon
         id="XMLID_3_"
         class="st1"
         points="120.9,-11.7 127.4,-5.1 135.3,-13 128.8,-19.5 131.4,-22.2 113.5,-27 118.3,-9   " /><polygon
         id="XMLID_2_"
         class="st1"
         points="136.7,4.1 145.4,12.8 147.1,11 140,3.9 141.2,2.6 148.4,9.7 150.2,8 143,0.8     144.3,-0.5 151.5,6.7 153.2,4.9 144.6,-3.8   " /></g></g><g
     style="font-style:normal;font-weight:normal;font-size:40px;line-height:125%;font-family:sans-serif;letter-spacing:0px;word-spacing:0px;fill:#212121;fill-opacity:1;stroke:none;stroke-width:1px;stroke-linecap:butt;stroke-linejoin:miter;stroke-opacity:1"
     id="text3508"><path
       d="m 105.54237,22.040255 7.0625,0 0,3.85 -1.95,0 0,4.275 -2.925,0 0,-4.275 -2.1875,0 0,-3.85 z"
       style="font-style:normal;font-variant:normal;font-weight:bold;font-stretch:normal;font-size:12.5px;font-family:'Project Paintball';-inkscape-font-specification:'Project Paintball Bold';fill:#212121;fill-opacity:1"
       id="path3513" /><path
       d="m 117.43632,23.665255 2.95,0 0,6.5 -2.95,0 0,-0.9875 q -0.1875,0.4875 -0.7375,0.8 -0.5375,0.3125 -1.1875,0.3125 -0.8375,0 -1.4,-0.525 -0.5625,-0.5375 -0.6625,-1.45 -0.2,-1.775 -0.125,-4.65 l 2.7375,0 q -0.075,2.0375 0,3.2 0.025,0.375 0.275,0.575 0.25,0.1875 0.575,0.1125 0.325,-0.0875 0.525,-0.425 l 0,-3.4625 z"
       style="font-style:normal;font-variant:normal;font-weight:bold;font-stretch:normal;font-size:12.5px;font-family:'Project Paintball';-inkscape-font-specification:'Project Paintball Bold';fill:#212121;fill-opacity:1"
       id="path3515" /><path
       d="m 124.27323,24.390255 q 0.3375,-0.425 0.8,-0.5875 0.475,-0.175 0.95,-0.0375 l 0,1.675 q -1.175,0.0625 -1.75,0.9625 l 0,3.7625 -2.975,0 0,-6.5 2.975,0 0,0.725 z"
       style="font-style:normal;font-variant:normal;font-weight:bold;font-stretch:normal;font-size:12.5px;font-family:'Project Paintball';-inkscape-font-specification:'Project Paintball Bold';fill:#212121;fill-opacity:1"
       id="path3517" /><path
       d="m 130.30097,25.402755 0.7375,0 0,1.9375 -0.7375,0 0,2.825 -3.0625,0 0,-2.825 -0.7,0 0,-1.9375 0.7,0 0,-1.225 q 0,-0.6625 0.275,-1.1375 0.2875,-0.475 0.7125,-0.7 0.425,-0.2375 0.95,-0.3375 0.525,-0.1 0.9875,-0.075 0.475,0.025 0.875,0.125 l 0,1.7625 q -0.2125,-0.0875 -0.475,0.075 -0.2625,0.1625 -0.2625,0.4625 l 0,1.05 z"
       style="font-style:normal;font-variant:normal;font-weight:bold;font-stretch:normal;font-size:12.5px;font-family:'Project Paintball';-inkscape-font-specification:'Project Paintball Bold';fill:#212121;fill-opacity:1"
       id="path3519" /><path
       d="m 136.54237,22.040255 1.7375,0 0.9125,3.625 1.2125,-3.625 2.425,0 1.575,3.875 1.075,-3.875 1.7625,0 -1.5375,8.125 -2.6875,0 -1.2,-3.125 -0.9125,3.125 -2.9375,0 -1.425,-8.125 z"
       style="font-style:normal;font-variant:normal;font-weight:bold;font-stretch:normal;font-size:12.5px;font-family:'Project Paintball';-inkscape-font-specification:'Project Paintball Bold';fill:#212121;fill-opacity:1"
       id="path3521" /><path
       d="m 151.17323,28.977755 0,-0.95 q 0,-0.125 -0.1875,-0.25 -0.1875,-0.125 -0.35,-0.1 -0.2625,0.025 -0.4875,0.25 -0.225,0.2125 -0.225,0.4625 0,0.25 0.225,0.45 0.225,0.1875 0.4875,0.1875 0.35,0 0.5375,-0.05 z m 0,1.1125 q -0.4625,0.125 -1,0.125 -1.2625,0 -1.9125,-0.5125 -0.65,-0.5125 -0.65,-1.675 0,-0.825 0.6625,-1.3875 0.675,-0.5625 1.825,-0.5625 0.15,0 0.525,0.05 0.375,0.05 0.55,0.05 l 0,-0.35 q 0,-0.325 -0.4,-0.475 -0.4,-0.15 -0.85,-0.15 -0.775,0 -1.1875,0.05 -0.4,0.05 -0.8125,0.225 l 0,-0.875 q 1,-1 3.25,-1 1.1375,0 1.9,0.75 0.7625,0.75 0.7625,1.6625 l 0,4.15 q -1.325,0.0875 -2.6625,0 l 0,-0.075 z"
       style="font-style:normal;font-variant:normal;font-weight:bold;font-stretch:normal;font-size:12.5px;font-family:'Project Paintball';-inkscape-font-specification:'Project Paintball Bold';fill:#212121;fill-opacity:1"
       id="path3523" /><path
       d="m 158.0623,24.390255 q 0.3375,-0.425 0.8,-0.5875 0.475,-0.175 0.95,-0.0375 l 0,1.675 q -1.175,0.0625 -1.75,0.9625 l 0,3.7625 -2.975,0 0,-6.5 2.975,0 0,0.725 z"
       style="font-style:normal;font-variant:normal;font-weight:bold;font-stretch:normal;font-size:12.5px;font-family:'Project Paintball';-inkscape-font-specification:'Project Paintball Bold';fill:#212121;fill-opacity:1"
       id="path3525" /><path
       d="m 160.76503,29.852755 0,-1 q 0.75,0.1875 1.1875,0.1875 1.15,0 1.15,-0.5375 0,-0.1375 -0.25,-0.225 -0.25,-0.1 -0.6,-0.2125 -0.35,-0.1125 -0.7,-0.2875 -0.35,-0.175 -0.6,-0.575 -0.25,-0.4125 -0.25,-1.0125 0,-2.5875 3.025,-2.5875 1.4375,0 2.1625,0.125 l 0,2.75 q -0.0875,-0.0625 -0.3125,-0.0875 -0.2125,-0.0375 -0.3875,-0.025 l -0.175,0 q -0.4,0 -0.4,0.3625 0,0.175 0.2,0.35 0.2125,0.175 0.4625,0.3125 0.2625,0.1375 0.4625,0.3875 0.2125,0.25 0.2125,0.55 0,1 -1,1.45 -1,0.45 -2.9375,0.45 -0.3,0 -0.7,-0.1 -0.3875,-0.1125 -0.55,-0.275 z"
       style="font-style:normal;font-variant:normal;font-weight:bold;font-stretch:normal;font-size:12.5px;font-family:'Project Paintball';-inkscape-font-specification:'Project Paintball Bold';fill:#212121;fill-opacity:1"
       id="path3527" /></g></svg>