<?xml version="1.0" encoding="UTF-8" standalone="no"?>
<!-- Generator: Adobe Illustrator 17.1.0, SVG Export Plug-In . SVG Version: 6.00 Build 0)  -->

<svg
   xmlns:dc="http://purl.org/dc/elements/1.1/"
   xmlns:cc="http://creativecommons.org/ns#"
   xmlns:rdf="http://www.w3.org/1999/02/22-rdf-syntax-ns#"
   xmlns:svg="http://www.w3.org/2000/svg"
   xmlns="http://www.w3.org/2000/svg"
   xmlns:sodipodi="http://sodipodi.sourceforge.net/DTD/sodipodi-0.dtd"
   xmlns:inkscape="http://www.inkscape.org/namespaces/inkscape"
   version="1.1"
   x="0px"
   y="0px"
   viewBox="0 0 145.6 16.4"
   enable-background="new 0 0 145.6 16.4"
   xml:space="preserve"
   id="svg2"
   inkscape:version="0.91 r13725"
   sodipodi:docname="of_page.svg"><metadata
     id="metadata42"><rdf:RDF><cc:Work
         rdf:about=""><dc:format>image/svg+xml</dc:format><dc:type
           rdf:resource="http://purl.org/dc/dcmitype/StillImage" /></cc:Work></rdf:RDF></metadata><defs
     id="defs40" /><sodipodi:namedview
     pagecolor="#ffffff"
     bordercolor="#666666"
     borderopacity="1"
     objecttolerance="10"
     gridtolerance="10"
     guidetolerance="10"
     inkscape:pageopacity="0"
     inkscape:pageshadow="2"
     inkscape:window-width="1920"
     inkscape:window-height="1017"
     id="namedview38"
     showgrid="false"
     inkscape:zoom="1.9986263"
     inkscape:cx="72.800003"
     inkscape:cy="8.1999998"
     inkscape:window-x="-8"
     inkscape:window-y="-8"
     inkscape:window-maximized="1"
     inkscape:current-layer="svg2" /><g
     id="bg"
     display="none"><rect
       x="0.7"
       y="-61.6"
       display="inline"
       width="447.8"
       height="80.6"
       id="rect5" /></g><g
     style="font-style:normal;font-weight:normal;font-size:40px;line-height:125%;font-family:sans-serif;letter-spacing:0px;word-spacing:0px;fill:#ffffff;fill-opacity:1;stroke:none;stroke-width:1px;stroke-linecap:butt;stroke-linejoin:miter;stroke-opacity:1"
     id="text3370"><path
       d="m 11.818093,3.6659992 0,3.4925 q -1.74625,-0.385 -1.74625,0.34375 0,0.39875 0.17875,0.6325 0.17875,0.22 0.42625,0.34375 0.26125,0.11 0.5225,0.275 0.26125,0.15125 0.44,0.53625 0.17875,0.385 0.17875,1.0037498 0,0.6875 -0.55,1.19625 -0.53625,0.50875 -1.3612502,0.7425 -0.825,0.23375 -1.74625,0.28875 -0.9075,0.06875 -1.71875,-0.06875 -0.81125,-0.1375 -1.25125,-0.4125 l 0,-1.485 q 1.21,0.34375 2.1725,0.28875 0.9625,-0.055 0.9625,-0.55 0,-0.3437498 -0.17875,-0.5362498 -0.165,-0.1925 -0.44,-0.26125 -0.275,-0.06875 -0.61875,-0.12375 -0.33,-0.055 -0.67375,-0.1925 -0.33,-0.15125 -0.605,-0.42625 -0.275,-0.275 -0.45375,-0.8525 -0.165,-0.59125 -0.165,-1.44375 0,-1.11375 0.715,-1.85625 0.72875,-0.75625 1.77375,-1.0175 1.045,-0.275 2.15875,-0.2475 1.1137502,0.01375 1.9800002,0.33 z"
       style="font-style:normal;font-variant:normal;font-weight:bold;font-stretch:normal;font-size:13.75px;font-family:'Project Paintball';-inkscape-font-specification:'Project Paintball Bold';fill:#ffffff"
       id="path3375" /><path
       d="m 16.162878,12.410999 0,1.74625 -2.9425,0 0,-8.8824998 2.805,0 q 1.96625,-0.06875 3.1075,0.77 1.14125,0.83875 1.14125,2.75 0,0.935 -0.33,1.6499998 -0.31625,0.70125 -0.78375,1.0725 -0.45375,0.37125 -1.05875,0.59125 -0.605,0.22 -1.0725,0.275 -0.45375,0.04125 -0.86625,0.0275 z m 0,-1.58125 q 0.50875,0.04125 0.935,-0.23375 0.44,-0.275 0.44,-0.8249998 0,-0.495 -0.4675,-0.61875 -0.4675,-0.12375 -0.9075,0.11 l 0,1.5674998 z"
       style="font-style:normal;font-variant:normal;font-weight:bold;font-stretch:normal;font-size:13.75px;font-family:'Project Paintball';-inkscape-font-specification:'Project Paintball Bold';fill:#ffffff"
       id="path3377" /><path
       d="m 21.41194,3.4597492 3.20375,0 q 0.0275,3.01125 0,8.9374998 l -3.20375,0 q -0.0275,-7.2187498 0,-8.9374998 z"
       style="font-style:normal;font-variant:normal;font-weight:bold;font-stretch:normal;font-size:13.75px;font-family:'Project Paintball';-inkscape-font-specification:'Project Paintball Bold';fill:#ffffff"
       id="path3379" /><path
       d="m 29.647331,11.090999 0,-1.045 q 0,-0.1374998 -0.20625,-0.2749998 -0.20625,-0.1375 -0.385,-0.11 -0.28875,0.0275 -0.53625,0.275 -0.2475,0.2337498 -0.2475,0.5087498 0,0.275 0.2475,0.495 0.2475,0.20625 0.53625,0.20625 0.385,0 0.59125,-0.055 z m 0,1.22375 q -0.50875,0.1375 -1.1,0.1375 -1.38875,0 -2.10375,-0.56375 -0.715,-0.56375 -0.715,-1.8425 0,-0.9074998 0.72875,-1.5262498 0.7425,-0.61875 2.0075,-0.61875 0.165,0 0.5775,0.055 0.4125,0.055 0.605,0.055 l 0,-0.385 q 0,-0.3575 -0.44,-0.5225 -0.44,-0.165 -0.935,-0.165 -0.8525,0 -1.30625,0.055 -0.44,0.055 -0.89375,0.2475 l 0,-0.9625 q 1.1,-1.1 3.575,-1.1 1.25125,0 2.09,0.825 0.83875,0.825 0.83875,1.82875 l 0,4.5649998 q -1.4575,0.09625 -2.92875,0 l 0,-0.0825 z"
       style="font-style:normal;font-variant:normal;font-weight:bold;font-stretch:normal;font-size:13.75px;font-family:'Project Paintball';-inkscape-font-specification:'Project Paintball Bold';fill:#ffffff"
       id="path3381" /><path
       d="m 34.5578,4.2709992 3.20375,0 0,0.97625 2.13125,0 0,3.56125 -2.13125,0 0,0.3025 q 0,0.83875 0.56375,1.3337498 0.5775,0.48125 1.5675,0.50875 l 0,1.43 q -0.99,0.0825 -1.76,0.04125 -0.77,-0.04125 -1.33375,-0.09625 -0.56375,-0.06875 -0.9625,-0.2475 -0.39875,-0.17875 -0.64625,-0.3575 -0.2475,-0.1925 -0.385,-0.4675 -0.1375,-0.275 -0.1925,-0.55 -0.055,-0.275 -0.055,-0.61875 l 0,-1.2787498 -0.88,0 0,-3.56125 0.88,0 0,-0.97625 z"
       style="font-style:normal;font-variant:normal;font-weight:bold;font-stretch:normal;font-size:13.75px;font-family:'Project Paintball';-inkscape-font-specification:'Project Paintball Bold';fill:#ffffff"
       id="path3383" /><path
       d="m 44.412683,5.1784992 q 1.76,0 2.59875,0.92125 0.8525,0.92125 0.8525,2.5575 0,2.1312498 -0.88,3.0112498 -0.88,0.86625 -2.57125,0.86625 -2.0075,0 -2.86,-0.92125 -0.83875,-0.92125 -0.83875,-2.9562498 0,-3.47875 3.69875,-3.47875 z m 0.4675,3.58875 q -0.55,0 -0.7975,0.23375 -0.2475,0.23375 -0.2475,0.75625 0,0.9899998 1.045,0.9899998 0.37125,0 0.67375,-0.275 0.31625,-0.275 0.31625,-0.7149998 0,-0.45375 -0.31625,-0.715 -0.3025,-0.275 -0.67375,-0.275 z"
       style="font-style:normal;font-variant:normal;font-weight:bold;font-stretch:normal;font-size:13.75px;font-family:'Project Paintball';-inkscape-font-specification:'Project Paintball Bold';fill:#ffffff"
       id="path3385" /><path
       d="m 52.388757,5.1784992 q 1.76,0 2.59875,0.92125 0.8525,0.92125 0.8525,2.5575 0,2.1312498 -0.88,3.0112498 -0.88,0.86625 -2.57125,0.86625 -2.0075,0 -2.86,-0.92125 -0.83875,-0.92125 -0.83875,-2.9562498 0,-3.47875 3.69875,-3.47875 z m 0.4675,3.58875 q -0.55,0 -0.7975,0.23375 -0.2475,0.23375 -0.2475,0.75625 0,0.9899998 1.045,0.9899998 0.37125,0 0.67375,-0.275 0.31625,-0.275 0.31625,-0.7149998 0,-0.45375 -0.31625,-0.715 -0.3025,-0.275 -0.67375,-0.275 z"
       style="font-style:normal;font-variant:normal;font-weight:bold;font-stretch:normal;font-size:13.75px;font-family:'Project Paintball';-inkscape-font-specification:'Project Paintball Bold';fill:#ffffff"
       id="path3387" /><path
       d="m 64.379831,12.397249 -2.73625,0 0,-3.1349998 q 0,-0.55 -0.50875,-0.77 -0.50875,-0.22 -0.86625,0.12375 l 0,3.7812498 -3.3275,0 0,-7.1499998 3.3275,0 0,1.4025 q 0.3025,-0.72875 0.70125,-1.11375 0.39875,-0.385 1.05875,-0.385 0.935,0 1.63625,0.715 0.70125,0.70125 0.715,1.705 l 0,4.8262498 z"
       style="font-style:normal;font-variant:normal;font-weight:bold;font-stretch:normal;font-size:13.75px;font-family:'Project Paintball';-inkscape-font-specification:'Project Paintball Bold';fill:#ffffff"
       id="path3389" /><path
       d="m 70.567546,3.4597492 1.91125,0 1.00375,3.9875 1.33375,-3.9875 2.6675,0 1.7325,4.2625 1.1825,-4.2625 1.93875,0 -1.69125,8.9374998 -2.95625,0 -1.32,-3.4374998 -1.00375,3.4374998 -3.23125,0 -1.5675,-8.9374998 z"
       style="font-style:normal;font-variant:normal;font-weight:bold;font-stretch:normal;font-size:13.75px;font-family:'Project Paintball';-inkscape-font-specification:'Project Paintball Bold';fill:#ffffff"
       id="path3391" /><path
       d="m 86.565241,5.1922492 q 1.93875,0 2.915,1.05875 0.97625,1.045 0.7425,2.95625 l -4.24875,0 q 0,0.77 0.4125,1.1687498 0.42625,0.385 0.99,0.385 0.56375,0 1.03125,-0.1925 0.48125,-0.1925 0.66,-0.5774998 l 1.045,0 q -0.15125,1.0587498 -1.14125,1.7737498 -0.97625,0.715 -2.40625,0.715 -1.55375,0 -2.695,-0.99 -1.1275,-1.00375 -1.1275,-2.6812498 0,-1.705 1.0725,-2.65375 1.0725,-0.9625 2.75,-0.9625 z m 0.5225,1.66375 q -0.3575,0 -0.7425,0.31625 -0.37125,0.31625 -0.37125,0.8525 l 2.09,0 q 0.15125,-0.5225 -0.22,-0.83875 -0.37125,-0.33 -0.75625,-0.33 z"
       style="font-style:normal;font-variant:normal;font-weight:bold;font-stretch:normal;font-size:13.75px;font-family:'Project Paintball';-inkscape-font-specification:'Project Paintball Bold';fill:#ffffff"
       id="path3393" /><path
       d="m 91.369792,3.4597492 2.92875,0 0,2.3375 q 0.42625,-0.11 0.92125,-0.1375 0.50875,-0.04125 1.03125,0.165 0.53625,0.20625 0.97625,0.55 0.44,0.34375 0.715,1.00375 0.275,0.64625 0.275,1.49875 0,0.825 -0.1925,1.4574998 -0.17875,0.6325 -0.495,0.99 -0.31625,0.3575 -0.72875,0.61875 -0.39875,0.2475 -0.83875,0.31625 -0.42625,0.055 -0.86625,0.11 -0.42625,0.04125 -0.7975,-0.01375 l 0,0.04125 -2.92875,0 0,-8.9374998 z m 2.92875,7.3287498 q 1.16875,0.1375 1.16875,-0.9349998 0,-0.45375 -0.37125,-0.64625 -0.3575,-0.20625 -0.7975,-0.11 l 0,1.6912498 z"
       style="font-style:normal;font-variant:normal;font-weight:bold;font-stretch:normal;font-size:13.75px;font-family:'Project Paintball';-inkscape-font-specification:'Project Paintball Bold';fill:#ffffff"
       id="path3395" /><path
       d="m 99.387761,12.053499 0,-1.1 q 0.824999,0.20625 1.306249,0.20625 1.265,0 1.265,-0.59125 0,-0.15125 -0.275,-0.2475 -0.275,-0.11 -0.66,-0.23375 -0.385,-0.1237498 -0.77,-0.3162498 -0.384999,-0.1925 -0.659999,-0.6325 -0.275,-0.45375 -0.275,-1.11375 0,-2.84625 3.327499,-2.84625 1.58125,0 2.37875,0.1375 l 0,3.025 q -0.0962,-0.06875 -0.34375,-0.09625 -0.23375,-0.04125 -0.42625,-0.0275 l -0.1925,0 q -0.44,0 -0.44,0.39875 0,0.1925 0.22,0.385 0.23375,0.1925 0.50875,0.34375 0.28875,0.15125 0.50875,0.42625 0.23375,0.2749998 0.23375,0.6049998 0,1.1 -1.1,1.595 -1.1,0.495 -3.23125,0.495 -0.33,0 -0.769999,-0.11 -0.42625,-0.12375 -0.605,-0.3025 z"
       style="font-style:normal;font-variant:normal;font-weight:bold;font-stretch:normal;font-size:13.75px;font-family:'Project Paintball';-inkscape-font-specification:'Project Paintball Bold';fill:#ffffff"
       id="path3397" /><path
       d="m 106.48942,3.4597492 3.08,0 0,1.375 -3.08,0 0,-1.375 z m 3.08,2.18625 0,6.7512498 -3.08,0 0,-6.7512498 3.08,0 z"
       style="font-style:normal;font-variant:normal;font-weight:bold;font-stretch:normal;font-size:13.75px;font-family:'Project Paintball';-inkscape-font-specification:'Project Paintball Bold';fill:#ffffff"
       id="path3399" /><path
       d="m 111.57928,4.2709992 3.20375,0 0,0.97625 2.13125,0 0,3.56125 -2.13125,0 0,0.3025 q 0,0.83875 0.56375,1.3337498 0.5775,0.48125 1.5675,0.50875 l 0,1.43 q -0.99,0.0825 -1.76,0.04125 -0.77,-0.04125 -1.33375,-0.09625 -0.56375,-0.06875 -0.9625,-0.2475 -0.39875,-0.17875 -0.64625,-0.3575 -0.2475,-0.1925 -0.385,-0.4675 -0.1375,-0.275 -0.1925,-0.55 -0.055,-0.275 -0.055,-0.61875 l 0,-1.2787498 -0.88,0 0,-3.56125 0.88,0 0,-0.97625 z"
       style="font-style:normal;font-variant:normal;font-weight:bold;font-stretch:normal;font-size:13.75px;font-family:'Project Paintball';-inkscape-font-specification:'Project Paintball Bold';fill:#ffffff"
       id="path3401" /><path
       d="m 121.55792,5.1922492 q 1.93875,0 2.915,1.05875 0.97625,1.045 0.7425,2.95625 l -4.24875,0 q 0,0.77 0.4125,1.1687498 0.42625,0.385 0.99,0.385 0.56375,0 1.03125,-0.1925 0.48125,-0.1925 0.66,-0.5774998 l 1.045,0 q -0.15125,1.0587498 -1.14125,1.7737498 -0.97625,0.715 -2.40625,0.715 -1.55375,0 -2.695,-0.99 -1.1275,-1.00375 -1.1275,-2.6812498 0,-1.705 1.0725,-2.65375 1.0725,-0.9625 2.75,-0.9625 z m 0.5225,1.66375 q -0.3575,0 -0.7425,0.31625 -0.37125,0.31625 -0.37125,0.8525 l 2.09,0 q 0.15125,-0.5225 -0.22,-0.83875 -0.37125,-0.33 -0.75625,-0.33 z"
       style="font-style:normal;font-variant:normal;font-weight:bold;font-stretch:normal;font-size:13.75px;font-family:'Project Paintball';-inkscape-font-specification:'Project Paintball Bold';fill:#ffffff"
       id="path3403" /></g></svg>