<?xml version="1.0" encoding="UTF-8" standalone="no"?>
<!-- Generator: Adobe Illustrator 19.0.0, SVG Export Plug-In . SVG Version: 6.00 Build 0)  -->

<svg
   xmlns:dc="http://purl.org/dc/elements/1.1/"
   xmlns:cc="http://creativecommons.org/ns#"
   xmlns:rdf="http://www.w3.org/1999/02/22-rdf-syntax-ns#"
   xmlns:svg="http://www.w3.org/2000/svg"
   xmlns="http://www.w3.org/2000/svg"
   xmlns:sodipodi="http://sodipodi.sourceforge.net/DTD/sodipodi-0.dtd"
   xmlns:inkscape="http://www.inkscape.org/namespaces/inkscape"
   version="1.1"
   id="レイヤー_1"
   x="0px"
   y="0px"
   viewBox="0 0 194 30"
   style="enable-background:new 0 0 194 30;"
   xml:space="preserve"
   inkscape:version="0.91 r13725"
   sodipodi:docname="online.svg"><metadata
     id="metadata15"><rdf:RDF><cc:Work
         rdf:about=""><dc:format>image/svg+xml</dc:format><dc:type
           rdf:resource="http://purl.org/dc/dcmitype/StillImage" /></cc:Work></rdf:RDF></metadata><defs
     id="defs13" /><sodipodi:namedview
     pagecolor="#ffffff"
     bordercolor="#666666"
     borderopacity="1"
     objecttolerance="10"
     gridtolerance="10"
     guidetolerance="10"
     inkscape:pageopacity="0"
     inkscape:pageshadow="2"
     inkscape:window-width="1920"
     inkscape:window-height="1017"
     id="namedview11"
     showgrid="false"
     inkscape:zoom="3"
     inkscape:cx="48.5"
     inkscape:cy="14.127417"
     inkscape:window-x="-8"
     inkscape:window-y="-8"
     inkscape:window-maximized="1"
     inkscape:current-layer="レイヤー_1" /><style
     type="text/css"
     id="style3">
	.st0{fill:#FF6E00;}
</style><g
     style="font-style:normal;font-weight:normal;font-size:40px;line-height:125%;font-family:sans-serif;letter-spacing:0px;word-spacing:0px;fill:#000000;fill-opacity:1;stroke:none;stroke-width:1px;stroke-linecap:butt;stroke-linejoin:miter;stroke-opacity:1"
     id="text3343"
     transform="translate(-4,0.33333333)"><path
       d="m 11.825,6.5 q 3,0 4.8,2.175 1.8,2.15 1.8,6.275 0,4.325 -1.8,6.325 -1.8,2 -4.8,2 -7.0750002,0 -7.0750002,-8.325 0,-4.225 1.975,-6.325 Q 8.6999998,6.5 11.825,6.5 Z m 1.025,8.45 q -0.7,0 -1.275,0.55 Q 11,16.025 11,16.8 q 0,0.9 0.5,1.4 0.525,0.475 1.35,0.475 0.85,0 1.35,-0.575 0.525,-0.575 0.525,-1.3 0,-0.85 -0.525,-1.35 -0.525,-0.5 -1.35,-0.5 z"
       style="font-style:normal;font-variant:normal;font-weight:bold;font-stretch:normal;font-size:25px;font-family:'Project Paintball';-inkscape-font-specification:'Project Paintball Bold';fill:#ff6600"
       id="path3348"
       inkscape:connector-curvature="0" /><path
       d="m 33.911719,23 -4.975,0 0,-5.7 q 0,-1 -0.925,-1.4 -0.925,-0.4 -1.575,0.225 l 0,6.875 -6.05,0 0,-13 6.05,0 0,2.55 q 0.55,-1.325 1.275,-2.025 0.725,-0.7 1.925,-0.7 1.7,0 2.975,1.3 1.275,1.275 1.3,3.1 l 0,8.775 z"
       style="font-style:normal;font-variant:normal;font-weight:bold;font-stretch:normal;font-size:25px;font-family:'Project Paintball';-inkscape-font-specification:'Project Paintball Bold';fill:#ff6600"
       id="path3350"
       inkscape:connector-curvature="0" /><path
       d="m 36.452344,6.75 5.825,0 q 0.05,5.475 0,16.25 l -5.825,0 q -0.05,-13.125 0,-16.25 z"
       style="font-style:normal;font-variant:normal;font-weight:bold;font-stretch:normal;font-size:25px;font-family:'Project Paintball';-inkscape-font-specification:'Project Paintball Bold';fill:#ff6600"
       id="path3352"
       inkscape:connector-curvature="0" /><path
       d="m 44.800781,6.75 5.6,0 0,2.5 -5.6,0 0,-2.5 z m 5.6,3.975 0,12.275 -5.6,0 0,-12.275 5.6,0 z"
       style="font-style:normal;font-variant:normal;font-weight:bold;font-stretch:normal;font-size:25px;font-family:'Project Paintball';-inkscape-font-specification:'Project Paintball Bold';fill:#ff6600"
       id="path3354"
       inkscape:connector-curvature="0" /><path
       d="m 66.480078,23 -4.975,0 0,-5.7 q 0,-1 -0.925,-1.4 -0.925,-0.4 -1.575,0.225 l 0,6.875 -6.05,0 0,-13 6.05,0 0,2.55 q 0.55,-1.325 1.275,-2.025 0.725,-0.7 1.925,-0.7 1.7,0 2.975,1.3 1.275,1.275 1.3,3.1 l 0,8.775 z"
       style="font-style:normal;font-variant:normal;font-weight:bold;font-stretch:normal;font-size:25px;font-family:'Project Paintball';-inkscape-font-specification:'Project Paintball Bold';fill:#ff6600"
       id="path3356"
       inkscape:connector-curvature="0" /><path
       d="m 75.420703,9.9 q 3.525,0 5.3,1.925 1.775,1.9 1.35,5.375 l -7.725,0 q 0,1.4 0.75,2.125 0.775,0.7 1.8,0.7 1.025,0 1.875,-0.35 0.875,-0.35 1.2,-1.05 l 1.9,0 q -0.275,1.925 -2.075,3.225 -1.775,1.3 -4.375,1.3 -2.825,0 -4.9,-1.8 -2.05,-1.825 -2.05,-4.875 0,-3.1 1.95,-4.825 1.95,-1.75 5,-1.75 z m 0.95,3.025 q -0.65,0 -1.35,0.575 -0.675,0.575 -0.675,1.55 l 3.8,0 q 0.275,-0.95 -0.4,-1.525 -0.675,-0.6 -1.375,-0.6 z"
       style="font-style:normal;font-variant:normal;font-weight:bold;font-stretch:normal;font-size:25px;font-family:'Project Paintball';-inkscape-font-specification:'Project Paintball Bold';fill:#ff6600"
       id="path3358"
       inkscape:connector-curvature="0" /></g></svg>