<?xml version="1.0" encoding="UTF-8" standalone="no"?>
<!-- Generator: Adobe Illustrator 19.0.0, SVG Export Plug-In . SVG Version: 6.00 Build 0)  -->

<svg
   xmlns:dc="http://purl.org/dc/elements/1.1/"
   xmlns:cc="http://creativecommons.org/ns#"
   xmlns:rdf="http://www.w3.org/1999/02/22-rdf-syntax-ns#"
   xmlns:svg="http://www.w3.org/2000/svg"
   xmlns="http://www.w3.org/2000/svg"
   xmlns:sodipodi="http://sodipodi.sourceforge.net/DTD/sodipodi-0.dtd"
   xmlns:inkscape="http://www.inkscape.org/namespaces/inkscape"
   version="1.1"
   id="レイヤー_1"
   x="0px"
   y="0px"
   viewBox="0 0 190 32"
   style="enable-background:new 0 0 190 32;"
   xml:space="preserve"
   inkscape:version="0.91 r13725"
   sodipodi:docname="privatematch.svg"><metadata
     id="metadata26"><rdf:RDF><cc:Work
         rdf:about=""><dc:format>image/svg+xml</dc:format><dc:type
           rdf:resource="http://purl.org/dc/dcmitype/StillImage" /></cc:Work></rdf:RDF></metadata><defs
     id="defs24" /><sodipodi:namedview
     pagecolor="#ffffff"
     bordercolor="#666666"
     borderopacity="1"
     objecttolerance="10"
     gridtolerance="10"
     guidetolerance="10"
     inkscape:pageopacity="0"
     inkscape:pageshadow="2"
     inkscape:window-width="1920"
     inkscape:window-height="1017"
     id="namedview22"
     showgrid="false"
     inkscape:zoom="1.5315789"
     inkscape:cx="95"
     inkscape:cy="16"
     inkscape:window-x="-8"
     inkscape:window-y="-8"
     inkscape:window-maximized="1"
     inkscape:current-layer="レイヤー_1" /><style
     type="text/css"
     id="style3">
	.st0{fill:#FFFFFF;}
</style><g
     style="font-style:normal;font-variant:normal;font-weight:bold;font-stretch:normal;font-size:20px;line-height:125%;font-family:'Project Paintball';-inkscape-font-specification:'Project Paintball Bold';letter-spacing:0px;word-spacing:0px;fill:#ffffff;fill-opacity:1;stroke:none;stroke-width:1px;stroke-linecap:butt;stroke-linejoin:miter;stroke-opacity:1"
     id="text3354"><path
       d="m 24.505154,21.513265 0,-12.8400004 q 4.06,-0.4 5.24,-0.38 3.12,0.02 4.36,1.58 1.14,1.4200004 1.14,4.4000004 0,1.46 -0.48,2.44 -0.46,0.96 -1.32,1.4 -0.86,0.42 -1.76,0.54 -0.9,0.12 -2.06,0.02 l 0,2.88 -5.12,-0.04 z m 5.12,-5.16 q 0.7,0.06 1.22,-0.18 0.54,-0.26 0.54,-0.88 0,-1.48 -1.76,-0.98 l 0,2.04 z"
       style=""
       id="path3359" /><path
       d="m 41.608904,12.313265 q 0.54,-0.68 1.28,-0.94 0.76,-0.28 1.52,-0.06 l 0,2.68 q -1.88,0.1 -2.8,1.54 l 0,6.02 -4.76,0 0,-10.4 4.76,0 0,1.16 z"
       style=""
       id="path3361" /><path
       d="m 45.833279,8.5532646 4.48,0 0,2.0000004 -4.48,0 0,-2.0000004 z m 4.48,3.1800004 0,9.82 -4.48,0 0,-9.82 4.48,0 z"
       style=""
       id="path3363" /><path
       d="m 51.656716,11.173265 4.44,0 q 0.38,2.12 1.38,4.9 0.56,-1.68 1.36,-4.9 l 2.76,0 q -0.2,0.84 -1.1,4.66 -0.88,3.8 -1.38,5.72 l -4.68,0 q -1.84,-5.56 -2.78,-10.38 z"
       style=""
       id="path3365" /><path
       d="m 68.203591,19.653265 0,-1.52 q 0,-0.2 -0.3,-0.4 -0.3,-0.2 -0.56,-0.16 -0.42,0.04 -0.78,0.4 -0.36,0.34 -0.36,0.74 0,0.4 0.36,0.72 0.36,0.3 0.78,0.3 0.56,0 0.86,-0.08 z m 0,1.78 q -0.74,0.2 -1.6,0.2 -2.02,0 -3.06,-0.82 -1.04,-0.82 -1.04,-2.68 0,-1.32 1.06,-2.22 1.08,-0.9 2.92,-0.9 0.24,0 0.84,0.08 0.6,0.08 0.88,0.08 l 0,-0.56 q 0,-0.52 -0.64,-0.76 -0.64,-0.24 -1.36,-0.24 -1.24,0 -1.9,0.08 -0.64,0.08 -1.3,0.36 l 0,-1.4 q 1.6,-1.6 5.2,-1.6 1.82,0 3.04,1.2 1.22,1.2 1.22,2.66 l 0,6.64 q -2.12,0.14 -4.26,0 l 0,-0.12 z"
       style=""
       id="path3367" /><path
       d="m 75.346091,9.7332646 4.66,0 0,1.4200004 3.1,0 0,5.18 -3.1,0 0,0.44 q 0,1.22 0.82,1.94 0.84,0.7 2.28,0.74 l 0,2.08 q -1.44,0.12 -2.56,0.06 -1.12,-0.06 -1.94,-0.14 -0.82,-0.1 -1.4,-0.36 -0.58,-0.26 -0.94,-0.52 -0.36,-0.28 -0.56,-0.68 -0.2,-0.4 -0.28,-0.8 -0.08,-0.4 -0.08,-0.9 l 0,-1.86 -1.28,0 0,-5.18 1.28,0 0,-1.4200004 z"
       style=""
       id="path3369" /><path
       d="m 89.860466,11.073265 q 2.82,0 4.24,1.54 1.42,1.52 1.08,4.3 l -6.18,0 q 0,1.12 0.6,1.7 0.62,0.56 1.44,0.56 0.82,0 1.5,-0.28 0.7,-0.28 0.96,-0.84 l 1.52,0 q -0.22,1.54 -1.66,2.58 -1.42,1.04 -3.5,1.04 -2.26,0 -3.92,-1.44 -1.64,-1.46 -1.64,-3.9 0,-2.48 1.56,-3.86 1.56,-1.4 4,-1.4 z m 0.76,2.42 q -0.52,0 -1.08,0.46 -0.54,0.46 -0.54,1.24 l 3.04,0 q 0.22,-0.76 -0.32,-1.22 -0.54,-0.48 -1.1,-0.48 z"
       style=""
       id="path3371" /><path
       d="m 104.65672,21.553265 0.28,-13.0000004 4.56,0 q 0.84,2.1200004 2.86,8.3000004 2.18,-6.48 2.86,-8.3000004 l 4.7,0 0,13.0000004 -4.42,0 0,-3 -1.14,3 -3.72,0 -1.42,-3.28 0,3.28 -4.56,0 z"
       style=""
       id="path3373" /><path
       d="m 127.22703,19.653265 0,-1.52 q 0,-0.2 -0.3,-0.4 -0.3,-0.2 -0.56,-0.16 -0.42,0.04 -0.78,0.4 -0.36,0.34 -0.36,0.74 0,0.4 0.36,0.72 0.36,0.3 0.78,0.3 0.56,0 0.86,-0.08 z m 0,1.78 q -0.74,0.2 -1.6,0.2 -2.02,0 -3.06,-0.82 -1.04,-0.82 -1.04,-2.68 0,-1.32 1.06,-2.22 1.08,-0.9 2.92,-0.9 0.24,0 0.84,0.08 0.6,0.08 0.88,0.08 l 0,-0.56 q 0,-0.52 -0.64,-0.76 -0.64,-0.24 -1.36,-0.24 -1.24,0 -1.9,0.08 -0.64,0.08 -1.3,0.36 l 0,-1.4 q 1.6,-1.6 5.2,-1.6 1.82,0 3.04,1.2 1.22,1.2 1.22,2.66 l 0,6.64 q -2.12,0.14 -4.26,0 l 0,-0.12 z"
       style=""
       id="path3375" /><path
       d="m 134.36953,9.7332646 4.66,0 0,1.4200004 3.1,0 0,5.18 -3.1,0 0,0.44 q 0,1.22 0.82,1.94 0.84,0.7 2.28,0.74 l 0,2.08 q -1.44,0.12 -2.56,0.06 -1.12,-0.06 -1.94,-0.14 -0.82,-0.1 -1.4,-0.36 -0.58,-0.26 -0.94,-0.52 -0.36,-0.28 -0.56,-0.68 -0.2,-0.4 -0.28,-0.8 -0.08,-0.4 -0.08,-0.9 l 0,-1.86 -1.28,0 0,-5.18 1.28,0 0,-1.4200004 z"
       style=""
       id="path3377" /><path
       d="m 149.5439,21.733265 q -3.1,0 -4.66,-1.36 -1.56,-1.36 -1.56,-4.36 0,-2.68 1.82,-3.82 1.82,-1.16 5.26,-1.16 1.48,0 2.2,0.5 l 0,5.36 q -1.1,-0.54 -2.14,-0.04 -1.04,0.5 -1.04,1.46 0,0.6 0.56,1 0.58,0.4 1.28,0.52 0.7,0.12 1.34,0.06 l 0,1.6 q -1.64,0.24 -3.06,0.24 z"
       style=""
       id="path3379" /><path
       d="m 165.34328,21.553265 -3.96,0 0,-4.52 q 0,-0.8 -0.74,-1.12 -0.72,-0.32 -1.24,0.18 l 0,5.46 -4.82,0 0,-13.0000004 4.82,0 0,3.6800004 q 0.84,-1.14 2.54,-1.14 1.34,0 2.36,1.04 1.04,1.02 1.04,2.46 l 0,6.96 z"
       style=""
       id="path3381" /></g></svg>