<?xml version="1.0" encoding="UTF-8" standalone="no"?>
<!-- Generator: Adobe Illustrator 19.0.0, SVG Export Plug-In . SVG Version: 6.00 Build 0)  -->

<svg
   xmlns:dc="http://purl.org/dc/elements/1.1/"
   xmlns:cc="http://creativecommons.org/ns#"
   xmlns:rdf="http://www.w3.org/1999/02/22-rdf-syntax-ns#"
   xmlns:svg="http://www.w3.org/2000/svg"
   xmlns="http://www.w3.org/2000/svg"
   xmlns:sodipodi="http://sodipodi.sourceforge.net/DTD/sodipodi-0.dtd"
   xmlns:inkscape="http://www.inkscape.org/namespaces/inkscape"
   version="1.1"
   id="レイヤー_1"
   x="0px"
   y="0px"
   viewBox="0 0 150 174"
   style="enable-background:new 0 0 150 174;"
   xml:space="preserve"
   inkscape:version="0.91 r13725"
   sodipodi:docname="btn_tab_gachi_selected.svg"><metadata
     id="metadata3408"><rdf:RDF><cc:Work
         rdf:about=""><dc:format>image/svg+xml</dc:format><dc:type
           rdf:resource="http://purl.org/dc/dcmitype/StillImage" /><dc:title></dc:title></cc:Work></rdf:RDF></metadata><defs
     id="defs3406" /><sodipodi:namedview
     pagecolor="#ffffff"
     bordercolor="#666666"
     borderopacity="1"
     objecttolerance="10"
     gridtolerance="10"
     guidetolerance="10"
     inkscape:pageopacity="0"
     inkscape:pageshadow="2"
     inkscape:window-width="1920"
     inkscape:window-height="1017"
     id="namedview3404"
     showgrid="false"
     inkscape:zoom="7.6725149"
     inkscape:cx="96.965398"
     inkscape:cy="60.807919"
     inkscape:window-x="-8"
     inkscape:window-y="-8"
     inkscape:window-maximized="1"
     inkscape:current-layer="text3410" /><style
     type="text/css"
     id="style3375">
	.st0{fill-rule:evenodd;clip-rule:evenodd;fill:#FF4E00;}
	.st1{fill:#212121;}
</style><g
     id="XMLID_3_"><path
       id="XMLID_24_"
       class="st0"
       d="M142.1,63.3c-1.1,0-2.3,0.3-3.5,1c-2.3,1.2-4.3,1.9-6.1,1.9c-1.7,0-3.2-0.6-4.4-1.7   c-1-0.9-2-3.1-1.5-4.7c0.2-0.7,0.8-1.6,2.3-1.9c1.7-0.3,2.2-1.2,2.1-1.9c-0.1-0.6-0.6-1.2-1.5-1.2c-0.7,0-1.5,0.3-2.3,0.9   c-0.4,0.3-0.8,0.4-1.2,0.4c-1,0-1.8-0.8-1.9-1.8c-0.1-0.7,0.4-1.6,1.7-1.8c2.8-0.5,6.4-2.3,7.1-4c0.2-0.5,0.1-1-0.3-1.5   c-0.4-0.5-0.9-0.8-1.4-0.8c-1.1,0-2.3,1.1-3.5,2.2c-1,0.9-2,1.8-3,2.1c-0.4,0.2-0.9,0.2-1.4,0.2c-1,0-1.9-0.4-2.4-1   c-0.4-0.5-0.7-1.3-0.3-2.7c1-3.8,7.5-7,11.4-8.9c0.9-0.4,1.7-0.8,2.2-1.1c1.2-0.7,1.7-1.5,1.5-2.2c-0.2-0.8-1.1-1.4-2.1-1.4   c-0.4,0-0.9,0.1-1.3,0.7c-1.6,2.7-8.9,7.8-13.1,9.3c-0.3,0.1-0.7,0.2-1,0.2c-0.9,0-1.7-0.4-2.2-1.1c-0.5-0.7-0.5-1.7-0.1-2.6   c0.7-1.5,1.8-2.1,2.8-2.6c1.1-0.6,2-1.1,2.4-2.5c0.2-0.6,0.1-1.2-0.2-1.6c-0.3-0.4-0.9-0.7-1.6-0.7c-0.3,0-0.6,0-0.9,0.1   c-1.2,0.3-1.7,1.1-2.2,2c-0.4,0.7-0.9,1.6-1.9,2.3c-0.4,0.3-1.1,0.5-1.9,0.5c-1.3,0-2.7-0.6-3.6-1.5c-0.7-0.8-1.1-1.8-1.1-2.9   c0.1-3.3,5.6-11.2,7.9-13.1c1.5-1.2,1.7-2.8,1.3-3.8c-0.2-0.7-0.8-1.1-1.3-1.1c-1.1,0-2.2,1.4-3.1,3.7c-2.9,7.7-5.1,12.7-8.1,12.7   c-0.5,0-0.9-0.1-1.4-0.4c-2-1.1-1.5-3-1-5.2l0.1-0.2c0.3-1.1,0.2-2-0.2-2.5c-0.3-0.4-0.8-0.5-1.2-0.5c-1,0-2.2,0.7-2.9,1.6   c-1.1,1.5-2.7,2.3-4.4,2.3c-1.9,0-3.7-1-4.6-2.4c-1.5-2.4,0.3-6.8,1.6-9.9l0.2-0.4c0.4-1.1,0.4-2,0-2.6c-0.3-0.4-0.8-0.7-1.3-0.7   c-0.5,0-0.9,0.2-1.2,0.5c-0.4,0.4-0.6,1-0.5,1.8c0.3,4.4,0,9.1-4.8,10.7c-1,0.3-1.9,0.5-2.7,0.5c-1.9,0-3-0.8-3.5-1.5   c-0.8-0.9-1.2-2.3-1-3.5c0.1-0.7-0.1-1.4-0.5-1.9c-0.5-0.6-1.3-0.9-2.1-0.9c-0.7,0-1.3,0.2-1.8,0.7c-0.5,0.5-0.8,1.3-0.8,2.4   c0.1,4.1-2.4,5.3-4.6,5.9c-0.7,0.2-1.5,0.3-2.2,0.3c-2.6,0-4.3-1.3-4.5-3.5c-0.2-2.3-0.9-3.9-1.6-3.9c-0.1,0-0.2,0-0.2,0   c-0.7,0.3-0.7,0.8-0.2,2.8c0.1,0.4,0.2,0.8,0.3,1.3c0.3,1.6,1,5.1-2.2,6.2c-0.6,0.2-1.1,0.3-1.6,0.3c-1.9,0-2.9-1.8-4.1-4.9   c-1.1-3-2.8-8-6.2-8c-1.1,0-2.3,0.5-3.6,1.5c-1.5,1.2-2.4,2.9-2.4,5c-0.1,3.3,1.9,7.1,5.2,9.8c2.1,1.7,2.2,3.5,2.1,4.4   c-0.1,1.1-0.8,2-1.7,2.4c-0.4,0.2-0.7,0.2-1.1,0.2c-1.5,0-2.5-1.4-3.2-2.4c-2.1-3.2-4-4.9-5.7-4.9c-0.3,0-0.7,0.1-1,0.2   c-0.7,0.3-1.1,0.8-1.1,1.4c0,1.3,1.7,3.4,5.5,5.1c2.4,1.1,3.7,2.8,3.7,5.1c0,0.9-0.4,1.9-1.1,2.6c-0.6,0.6-1.2,0.9-1.9,0.9   c-0.6,0-1.5-0.3-2.1-1.5c-0.1-0.1-0.1-0.2-0.2-0.3c-0.9-1.6-1.9-3.5-4-3.5c-0.2,0-0.4,0-0.6,0c-1.7,0.3-2.9,1.4-3,2.8   c-0.1,1.5,1.2,3.4,4.9,4.3c1.2,0.3,2.1,0.9,2.5,1.9c0.7,1.8-0.2,4.1-0.9,5.2l-0.1,0.2c-0.7,1.2-2.1,3.4-4.3,3.4   c-0.5,0-1-0.1-1.4-0.3c-0.8-0.4-1.7-0.9-2.5-1.4c-1.3-0.8-2.7-1.6-3.6-1.6c-0.3,0-0.5,0.1-0.7,0.5c-0.3,0.7-0.3,1.3,0.1,1.8   c0.7,1.1,2.8,1.8,5.6,1.9c1,0,1.9,0.6,2.4,1.5c0.7,1.2,0.8,3.1,0.2,4.3c-0.5,1.1-1.2,1.6-2.1,1.6c-0.7,0-1.4-0.4-2.1-0.8   c-0.6-0.3-1.3-0.7-1.8-0.7c-0.4,0-0.7,0.2-1,0.5c-0.5,0.5-0.6,1.3-0.3,2c0.4,1,1.6,1.5,3.3,1.5c0.2,0,0.4,0,0.6,0c0,0,0.1,0,0.1,0   c1.1,0,1.7,1,1.7,1.9c0,1-0.6,1.9-2,1.9c-0.6,0-1.4-0.2-2.2-0.6C22.4,73,20.7,72,19,71c-3.4-2-7.7-4.4-10.6-5.2   c-0.7-0.2-1.5-0.3-2.2-0.3c-3.3,0-5.7,2-6.1,3.9c-0.4,2.5,0.7,4.3,3.1,4.9C4.1,74.6,5,74.7,6,74.7c1.3,0,2.6-0.2,3.8-0.4   c1.2-0.2,2.5-0.4,3.9-0.4c1.1,0,2.2,0.2,3.2,0.5c2.3,0.7,2.6,1.6,2.5,2.1c-0.1,0.6-0.7,1-1.4,1c-0.9,0-1.7,0.4-2,0.9   c-0.3,0.6-0.1,1.3,0.5,2.1c0.4,0.5,1,0.7,1.8,0.7c1.3,0,3.2-0.6,5.8-1.5c0.7-0.2,1.4-0.5,2.2-0.7c0.3-0.1,0.6-0.1,0.8-0.1   c1.2,0,2.1,1,2.2,2.4c0.1,1.3-0.7,2.7-2.2,2.8c-1,0.1-2.4,0.3-3.9,0.4c-2.4,0.3-4.8,0.5-6,0.6c-2.4,0.2-4.4,1-5,2.1   c-0.2,0.4-0.2,0.8,0,1.2c0.4,0.9,1.1,1.4,2.1,1.4c0.9,0,2.1-0.4,3.4-1.1c2.4-1.4,8.1-3.1,10.7-3.3c0.1,0,0.2,0,0.2,0   c2.4,0,3.9,2.4,4.1,4.6c0.2,2-0.7,3.4-2.1,3.7c-0.2,0-0.4,0-0.6,0c-0.5,0-1.1-0.1-1.7-0.2c-0.6-0.1-1.2-0.2-1.7-0.2   c-0.8,0-1.5,0.2-2,0.7c-0.6,0.6-0.9,1.8-0.6,2.7c0.2,0.5,0.6,1.2,1.6,1.4c0.4,0.1,0.8,0.1,1.1,0.1c1.1,0,1.7-0.4,2.3-0.9   c0.6-0.4,1.2-0.9,2.4-1c0.1,0,0.2,0,0.3,0c1.6,0,2.3,0.9,2.4,1.7c0,1-1,2.2-2.9,2.3c-2.5,0.2-4.4,0.9-5,1.8   c-0.2,0.4-0.2,0.8,0.1,1.3c0.3,0.6,0.7,0.7,0.9,0.7c0.6,0,1.5-0.5,2.4-1c0.5-0.3,1-0.6,1.5-0.8c0.5-0.2,1-0.3,1.5-0.3   c1.8,0,3.1,1.3,3.5,2.5c0.4,1.1,0.4,2.1-0.1,3c-0.5,1-1.6,1.8-2.9,2.2c-0.6,0.2-1.4,0.3-2.4,0.5c-2.7,0.6-6.5,1.3-8.2,2.5   c-2.6,1.9-3.5,4.6-2.2,6.6c1.3,2,3.1,2.4,4.3,2.4c1.9,0,3.8-1,4.8-2.4c2.4-3.6,6.3-7.3,8.7-8.3c0.3-0.1,0.7-0.2,1-0.2   c1.7,0,3.3,1.7,3.5,3.1c0.2,0.9-0.2,1.5-0.9,1.8c-1.6,0.6-2.6,1.6-2.8,2.7c-0.2,0.9,0.1,1.7,0.8,2.4c0.4,0.4,1,0.7,1.6,0.7   c1.4,0,2.9-1.1,3.3-1.8c0.7-1.2,1.4-1.4,1.8-1.4c0.8,0,1.3,0.7,1.5,1.9c0.3,2.4-1.7,4.8-3.4,6.9c-0.8,1-1.6,2-2.1,2.9   c-0.6,1.1-0.3,1.9-0.1,2.3c0.3,0.6,0.9,0.9,1.5,0.9c0.4,0,0.8-0.2,1.1-0.6c1.7-1.5,2.5-5,3-6.4l0,0c0.4-1.1,1.6-1.3,1.8,0.4   l0.1,0.5c0.5,4.5,1.6,8.6,4.2,9.2c5.8,1.5,4.1,14.8,7.2,26.4c3.9,14.8,16.9,11.8,17.2,0.2c0.6-24.5,4.6-35.5,9.9-15.9   c4,14.9,23.5,14,23.6-12.8c0-5.5,0.2-10.6,0.6-15.1c0.3-3.5,2.1-4.2,3.3-3.1c1.4,1.5,2.7,3.3,3.6,4.8c0.3,0.5,0.6,1,0.9,1.3   c0.2,0.2,0.4,0.5,0.5,0.8c1.2,1.7,3.2,4.6,4.3,4.6c0.1,0,0.1,0,0.2-0.1c0.4-0.2,0.6-0.6,0.6-1.2c0.1-0.7-0.1-2.7-3.2-5.6   c-0.4-0.4-0.9-0.9-1.4-1.3c-2.9-2.7-5.3-5-6.7-6.9c-0.8-1.3-1.5-4.2,0.6-4.3c1.5,0.2,2.8,2.5,3.4,3.5c0.7,1.3,1.5,2.3,2.5,2.4   c0.2,0,0.5,0,0.6,0c0.3-0.1,0.5-0.3,0.5-0.5c0-0.2-0.2-0.7-0.4-1c-0.4-0.6-0.8-1.5-0.1-2c0.3-0.3,0.7-0.4,1.1-0.4   c1.6,0,3.5,2.1,5.3,3.9l0.3,0.3c0.3,0.4,0.7,0.7,1,1.1c1.2,1.4,2.6,3,3.7,3c0.1,0,0.2,0,0.4-0.1c0.8-0.3,1.2-0.7,1.2-1.4   c0.1-1.1-0.9-3-4.1-5c-4.6-3-9.6-8.4-9.7-11.9c0-1.8,0.4-3.2,1.1-4.2c0.9-1.2,2.2-1.8,3.9-1.8c0.2,0,0.5,0,0.7,0   c1.2,0.1,2.5,0.8,4,1.6c2,1,4.2,2.2,7,2.5c0.2,0,0.4,0,0.6,0c2,0,2.9-1.2,3-2.4c0.2-1.4-0.6-3.2-2.8-3.8c-2.2-0.6-4-0.8-5.6-1   c-1.8-0.2-3.4-0.4-5.2-1.1c-1.1-0.4-1.9-1.3-2.2-2.6c-0.6-2.3,0.3-5.2,1.2-6.2c0.4-0.5,1.1-0.8,2-0.8c1.5,0,3.4,0.8,5.4,1.6   c0.3,0.1,0.7,0.2,1,0.2c1.5,0,2.6-1.3,2.6-2.4c0-0.9-0.8-1.4-2.3-1.4c-0.2,0-0.4,0-0.6,0c-0.6,0-1.4,0.1-2.3,0.1   c-3.1,0-5-0.8-5.4-2.3c-0.2-0.7-0.1-1.4,0.4-2c0.7-1,2.3-1.5,4.5-1.5c1.7,0,3.7,0.3,6,0.9c1.1,0.3,2.2,0.5,3.1,0.5   c4.6,0,5.9-3.7,5.9-5.6c0-1.6-0.6-3.3-1.7-4.3C144.5,63.8,143.4,63.3,142.1,63.3z" /><path
       id="XMLID_23_"
       class="st0"
       d="M13.1,57.4c0.1,0,0.2,0,0.3,0c1.3,0,2.5-0.6,3.3-1.7c0.9-1.2,1.3-2.8,0.9-4.3   c-0.7-2.8-2.3-4.9-5-4.9c-0.7,0-1.3,0.1-1.8,0.4c-0.7,0.4-1.5,1.6-1.8,2.6c-0.5,2.4-0.1,4.5,1,6C11.1,56.8,11.3,57.2,13.1,57.4z" /><path
       id="XMLID_22_"
       class="st0"
       d="M99,11.2L99,11.2c2.3,0,4-1.9,4.1-3.7c0.1-1.5,0-4-1-5c-0.8-0.8-2.2-1.6-3.3-1.6h0   c-3,0-4.2,1.8-4.3,4.6c0,1.2,0.3,3.1,1.1,3.9C96.6,10.3,97.8,11.1,99,11.2z" /><path
       id="XMLID_21_"
       class="st0"
       d="M141.5,134.8c-1.6,0-2.5,0.5-3.4,2.1c-0.9,1.5-0.2,4.4,1.3,5.3c0.8,0.5,0.8,0.8,1.9,0.8   c1.3,0,1.6-0.5,2.7-1.2c0.8-0.5,1.1-1.4,1.1-2.1c0.2-1.2-0.2-2.7-0.9-3.5C143.5,135.2,143,134.8,141.5,134.8z" /><path
       id="XMLID_20_"
       class="st0"
       d="M149.1,48.1c-0.6-0.6-1-0.8-2-0.8h0c-2.6,0-3.5,1.4-3.5,3.9c0,0.9,0.3,1.7,0.9,2.4   c0.7,0.7,1.6,1.1,2.6,1.1h0c2.1,0,3-1.9,3-3.9C150,49.7,149.7,48.8,149.1,48.1z" /><path
       id="XMLID_19_"
       class="st0"
       d="M55.5,11.8C55.6,11.8,55.6,11.8,55.5,11.8c1.6,0,2.6-1.5,2.6-3.9c0.1-2.3-0.9-3.7-2.7-3.8   c0,0-0.1,0-0.1,0c-1.8,0-3.1,1.5-3.2,3.5C52.1,9.5,53.9,11.7,55.5,11.8z" /><path
       id="XMLID_18_"
       class="st0"
       d="M36.8,136.5c0,0-0.1,0-0.1,0c-1.8,0-3.1,1.5-3.2,3.5c0,1.9,1.7,4.1,3.3,4.2c0,0,0.1,0,0.1,0   c1.5,0,2.5-1.5,2.5-3.9C39.6,138,38.6,136.6,36.8,136.5z" /><path
       id="XMLID_17_"
       class="st0"
       d="M121,10.7c0.2,0,0.4,0,0.5,0c0.8,0,0.9-0.2,1.9-0.8c0.7-0.4,0.9-1.2,1.1-1.8   c0.2-0.7,0-2.1-0.5-3c-0.7-1.1-1-1.5-2.2-1.5c-0.5,0-1,0.1-1.5,0.3c-1.5,0.6-1.8,2.6-1.6,4.2C118.9,9.9,120.2,10.5,121,10.7z" /><path
       id="XMLID_16_"
       class="st0"
       d="M3.5,88c0,0-0.1,0-0.1,0c-1.1,0-2.3,0.7-2.3,2.2c0,1.7,1,3.2,2.2,3.3c0.1,0,0.1,0,0.2,0   c1.5,0,2.5-0.9,2.5-2.2C6,89.8,5.4,88,3.5,88z" /><path
       id="XMLID_5_"
       class="st0"
       d="M123.4,14.2c-0.1,0.8,0.8,1.3,1.1,1.4c0.1,0,0.2,0,0.3,0c0.9,0,1.5-0.6,1.6-1.7   c0.1-0.5-0.1-1-0.4-1.3c-0.2-0.2-0.4-0.3-0.7-0.3l0,0C124.8,12.3,123.6,12.5,123.4,14.2z" /><path
       id="XMLID_4_"
       class="st0"
       d="M139.3,128.3c0-1.1-0.9-1.8-1.7-1.9c-0.1,0-0.2,0-0.2,0c-0.8,0-1.6,0.5-1.9,1.2   c-0.2,0.6-0.2,1.2,0.2,1.7c0.4,0.5,0.9,0.8,1.6,0.8l0,0C138.8,130.1,139.3,129.7,139.3,128.3z" /></g><g
     id="XMLID_6_"><path
       id="XMLID_51_"
       class="st1"
       d="M74.7,80.6c1.5,1.1,2.8,2.5,4.3,4.3c1.5-1.8,2.8-3.2,4.3-4.3c-1.4-0.3-2.8-0.7-4.3-1.2   C77.6,79.9,76.2,80.3,74.7,80.6z" /><path
       id="XMLID_50_"
       class="st1"
       d="M73,76.5c-1-0.6-2-1.3-3-2c0,0-0.1,0.1-0.1,0.1c-0.8,0.2-1.7,0.5-2.8,0.5c-0.5,0-1-0.1-1.5-0.2   c0.6,1.3,1.4,1.7,2.3,1.9c0.5,0.1,1.1,0.2,1.8,0.2C70.7,77,71.9,76.8,73,76.5z" /><path
       id="XMLID_49_"
       class="st1"
       d="M69.7,74.3c-1-0.8-1.9-1.6-2.9-2.5c-1.5,0-3-0.2-4.5-0.4c0.4,1.4,1.1,2,2,2.3   C65.8,74.3,67.7,74.5,69.7,74.3z" /><path
       id="XMLID_48_"
       class="st1"
       d="M73.4,76.8c-1.1,0.5-2.3,1-3.9,1c-0.4,0-0.9,0-1.3-0.1c0.9,1.8,4.6,2.3,9.3,1.1   C76.2,78.2,74.8,77.6,73.4,76.8z" /><path
       id="XMLID_47_"
       class="st1"
       d="M66.4,61.1c0,0,2.6-0.1,4.8-0.9c0,0-4.7-1.8-10.4-9.3c-1.7,4.8-2.5,8.3-1.3,15.3   c0.8-0.7,2.7-3.1,2.7-3.1C70.3,79,87.8,81.7,89.9,77.7c-0.5,0.1-0.9,0.1-1.3,0.1c-1.5-0.1-2.9-0.5-4-1.1c-0.1,0-0.1-0.1-0.1-0.2   c0-0.1,0.1-0.1,0.2-0.1c1.3,0.4,2.5,0.6,3.7,0.6c0.6,0,1.2-0.1,1.8-0.2c1-0.2,1.7-0.6,2.3-1.9c-0.5,0.1-1,0.2-1.5,0.2   c-1.1,0-2-0.2-2.8-0.5c-0.1,0-0.1-0.1-0.1-0.2c0-0.1,0.1-0.1,0.2-0.1c2.1,0.2,4,0,5.5-0.6c0.9-0.4,1.6-0.9,2-2.3   C83.1,73.5,69.6,66.4,66.4,61.1z" /><path
       id="XMLID_43_"
       class="st1"
       d="M76,54.2L76,54.2c0.9,0,1.3,0.4,1.4,1.2c-0.1,5.6-1.8,8.3-4.1,10.3c1.3,1.1,3.7,2,5.9,2.6   c2.1-0.6,4.6-1.5,5.9-2.6c-2.4-2-4-4.6-4.1-10.3c0-0.9,0.5-1.2,1.4-1.2h0c2.4,0,3.8-0.8,3.8-2.7v-1.2l-5.2,0.6c0-0.4,0-1.3,0-1.6   c2.6-0.8,4.6-3.2,4.6-6.1c0-3.5-2.8-6.3-6.3-6.3c-3.5,0-6.3,2.8-6.3,6.3c0,2.9,1.9,5.3,4.6,6.1c0,0.3,0,1.3,0,1.6l-5.2-0.6v1.2   C72.1,53.4,73.6,54.2,76,54.2z M79.1,40.8c1.3,0,2.4,1.1,2.4,2.4c0,1.3-1.1,2.4-2.4,2.4c-1.3,0-2.4-1.1-2.4-2.4   C76.7,41.9,77.7,40.8,79.1,40.8z" /><g
       id="XMLID_41_"><path
         id="XMLID_42_"
         class="st1"
         d="M97.3,50.9c-5.4,7.2-10.4,9.3-10.4,9.3c2.2,0.7,4.8,0.9,4.8,0.9c-1.6,2.6-5.7,5.7-11,7.9    c3,1,6.3,1.7,9.7,1.9c2.1-2.1,4-4.7,5.5-7.7c0,0,1.9,2.4,2.7,3.1C99.9,61.1,99,55.7,97.3,50.9z" /></g></g><g
     style="font-style:normal;font-weight:normal;font-size:40px;line-height:125%;font-family:sans-serif;letter-spacing:0px;word-spacing:0px;fill:#212121;fill-opacity:1;stroke:none;stroke-width:1px;stroke-linecap:butt;stroke-linejoin:miter;stroke-opacity:1"
     id="text3410"><path
       d="m 56.929874,100.75153 0,-8.087496 q 2.9,-0.1625 3.8125,-0.1125 2.1875,0.125 2.9875,1.175 0.5875,0.7875 0.5875,2.1875 0,1.6625 -1.55,2.4 l 1.2875,2.437496 -2.2875,0 -0.8,-1.999996 q -0.45,0.0375 -0.9875,0.0125 l 0,1.987496 -3.05,0 z m 3.05,-2.974996 q 0.7375,0.05 1.2625,-0.225 0.525,-0.275 0.525,-0.875 0,-0.4375 -0.25,-0.725 -0.2375,-0.2875 -0.7625,-0.2875 -0.3625,0 -0.775,0.1125 l 0,2 z"
       style="font-style:normal;font-variant:normal;font-weight:bold;font-stretch:normal;font-size:12.5px;font-family:'Project Paintball';-inkscape-font-specification:'Project Paintball Bold';fill:#212121;fill-opacity:1"
       id="path3415" /><path
       d="m 68.616398,99.564034 0,-0.95 q 0,-0.125 -0.1875,-0.25 -0.1875,-0.125 -0.35,-0.1 -0.2625,0.025 -0.4875,0.25 -0.225,0.2125 -0.225,0.4625 0,0.25 0.225,0.45 0.225,0.1875 0.4875,0.1875 0.35,0 0.5375,-0.05 z m 0,1.112496 q -0.4625,0.125 -1,0.125 -1.2625,0 -1.9125,-0.5125 -0.65,-0.512496 -0.65,-1.674996 0,-0.825 0.6625,-1.3875 0.675,-0.5625 1.825,-0.5625 0.15,0 0.525,0.05 0.375,0.05 0.55,0.05 l 0,-0.35 q 0,-0.325 -0.4,-0.475 -0.4,-0.15 -0.85,-0.15 -0.775,0 -1.1875,0.05 -0.4,0.05 -0.8125,0.225 l 0,-0.875 q 1,-1 3.25,-1 1.1375,0 1.9,0.75 0.7625,0.75 0.7625,1.6625 l 0,4.149996 q -1.325,0.0875 -2.6625,0 l 0,-0.075 z"
       style="font-style:normal;font-variant:normal;font-weight:bold;font-stretch:normal;font-size:12.5px;font-family:'Project Paintball';-inkscape-font-specification:'Project Paintball Bold';fill:#212121;fill-opacity:1"
       id="path3417" /><path
       d="m 79.29296,100.75153 -2.4875,0 0,-2.849996 q 0,-0.5 -0.4625,-0.7 -0.4625,-0.2 -0.7875,0.1125 l 0,3.437496 -3.025,0 0,-6.499996 3.025,0 0,1.275 q 0.275,-0.6625 0.6375,-1.0125 0.3625,-0.35 0.9625,-0.35 0.85,0 1.4875,0.65 0.6375,0.6375 0.65,1.55 l 0,4.387496 z"
       style="font-style:normal;font-variant:normal;font-weight:bold;font-stretch:normal;font-size:12.5px;font-family:'Project Paintball';-inkscape-font-specification:'Project Paintball Bold';fill:#212121;fill-opacity:1"
       id="path3419" /><path
       d="m 84.913273,94.251534 2.025,0 -1.5375,2.9625 1.7875,3.537496 -2.6125,0 -1.15,-2.399996 0,2.399996 -2.8875,0 0,-8.124996 2.8875,0 0,4.35 1.4875,-2.725 z"
       style="font-style:normal;font-variant:normal;font-weight:bold;font-stretch:normal;font-size:12.5px;font-family:'Project Paintball';-inkscape-font-specification:'Project Paintball Bold';fill:#212121;fill-opacity:1"
       id="path3421" /><path
       d="m 91.160734,94.201534 q 1.7625,0 2.65,0.9625 0.8875,0.95 0.675,2.6875 l -3.8625,0 q 0,0.7 0.375,1.0625 0.3875,0.35 0.9,0.35 0.5125,0 0.9375,-0.175 0.4375,-0.175 0.6,-0.525 l 0.95,0 q -0.1375,0.9625 -1.0375,1.612496 -0.8875,0.65 -2.1875,0.65 -1.4125,0 -2.45,-0.899996 -1.025,-0.9125 -1.025,-2.4375 0,-1.55 0.975,-2.4125 0.975,-0.875 2.5,-0.875 z m 0.475,1.5125 q -0.325,0 -0.675,0.2875 -0.3375,0.2875 -0.3375,0.775 l 1.9,0 q 0.1375,-0.475 -0.2,-0.7625 -0.3375,-0.3 -0.6875,-0.3 z"
       style="font-style:normal;font-variant:normal;font-weight:bold;font-stretch:normal;font-size:12.5px;font-family:'Project Paintball';-inkscape-font-specification:'Project Paintball Bold';fill:#212121;fill-opacity:1"
       id="path3423" /><path
       d="m 101.50351,92.626534 0,8.124996 -2.662503,0 0,-0.0875 q -1.7125,0.3375 -2.6375,-0.4125 -0.925,-0.762496 -0.925,-2.574996 0,-0.675 0.2125,-1.2125 0.225,-0.55 0.575,-0.8875 0.3625,-0.35 0.825,-0.5625 0.475,-0.225 0.9625,-0.2875 0.5,-0.075 0.9875,-0.025 l 0,-2.075 2.662503,0 z m -2.662503,5.125 q -0.4,-0.0875 -0.7375,0.1 -0.325,0.175 -0.325,0.5875 0,0.9625 1.0625,0.8 l 0,-1.4875 z"
       style="font-style:normal;font-variant:normal;font-weight:bold;font-stretch:normal;font-size:12.5px;font-family:'Project Paintball';-inkscape-font-specification:'Project Paintball Bold';fill:#212121;fill-opacity:1"
       id="path3425" /></g></svg>