<?xml version="1.0" encoding="UTF-8" standalone="no"?>
<!-- Generator: Adobe Illustrator 19.0.0, SVG Export Plug-In . SVG Version: 6.00 Build 0)  -->

<svg
   xmlns:dc="http://purl.org/dc/elements/1.1/"
   xmlns:cc="http://creativecommons.org/ns#"
   xmlns:rdf="http://www.w3.org/1999/02/22-rdf-syntax-ns#"
   xmlns:svg="http://www.w3.org/2000/svg"
   xmlns="http://www.w3.org/2000/svg"
   xmlns:sodipodi="http://sodipodi.sourceforge.net/DTD/sodipodi-0.dtd"
   xmlns:inkscape="http://www.inkscape.org/namespaces/inkscape"
   version="1.1"
   id="レイヤー_1"
   x="0px"
   y="0px"
   viewBox="57 -69 150 174"
   style="enable-background:new 57 -69 150 174;"
   xml:space="preserve"
   inkscape:version="0.91 r13725"
   sodipodi:docname="btn_tab_regular.svg"><metadata
     id="metadata3558"><rdf:RDF><cc:Work
         rdf:about=""><dc:format>image/svg+xml</dc:format><dc:type
           rdf:resource="http://purl.org/dc/dcmitype/StillImage" /><dc:title></dc:title></cc:Work></rdf:RDF></metadata><defs
     id="defs3556" /><sodipodi:namedview
     pagecolor="#ffffff"
     bordercolor="#666666"
     borderopacity="1"
     objecttolerance="10"
     gridtolerance="10"
     guidetolerance="10"
     inkscape:pageopacity="0"
     inkscape:pageshadow="2"
     inkscape:window-width="1920"
     inkscape:window-height="1017"
     id="namedview3554"
     showgrid="false"
     inkscape:zoom="5.4252874"
     inkscape:cx="108.9178"
     inkscape:cy="95.426482"
     inkscape:window-x="-8"
     inkscape:window-y="-8"
     inkscape:window-maximized="1"
     inkscape:current-layer="レイヤー_1" /><style
     type="text/css"
     id="style3530">
	.st0{fill:#212121;}
	.st1{fill:#7BED00;}
</style><path
     id="XMLID_44_"
     class="st0"
     d="M185.8,6.3c0,34.4-20.2,49.9-51,52.1C105.8,60.5,84.3,36,84.2,8c-0.1-13,7.1-27.9,15.6-38.8  c8.4-10.8,24.5-15.9,35.6-15.7C159.4-46.2,185.8-21.7,185.8,6.3z" /><g
     id="XMLID_57_"><polygon
       id="XMLID_4_"
       class="st1"
       points="140.6,-22.2 143.2,-19.5 137.4,-13.7 126.7,-3.1 118.8,4.9 120.5,6.7 127.7,-0.5    129,0.8 121.8,8 123.6,9.7 130.8,2.6 132,3.9 124.9,11 126.6,12.8 134.6,4.8 145.3,-5.8 151.1,-11.7 153.7,-9 158.5,-27  " /><g
       id="XMLID_58_"><polygon
         id="XMLID_3_"
         class="st1"
         points="120.9,-11.7 127.4,-5.1 135.3,-13 128.8,-19.5 131.4,-22.2 113.5,-27 118.3,-9   " /><polygon
         id="XMLID_2_"
         class="st1"
         points="136.7,4.1 145.4,12.8 147.1,11 140,3.9 141.2,2.6 148.4,9.7 150.2,8 143,0.8     144.3,-0.5 151.5,6.7 153.2,4.9 144.6,-3.8   " /></g></g><g
     style="font-style:normal;font-variant:normal;font-weight:bold;font-stretch:normal;font-size:12.5px;line-height:125%;font-family:'Project Paintball';-inkscape-font-specification:'Project Paintball Bold';letter-spacing:0px;word-spacing:0px;fill:#7bed00;fill-opacity:1;stroke:none;stroke-width:1px;stroke-linecap:butt;stroke-linejoin:miter;stroke-opacity:1"
     id="text3560"><path
       d="m 105.17373,22.408895 7.0625,0 0,3.85 -1.95,0 0,4.275 -2.925,0 0,-4.275 -2.1875,0 0,-3.85 z"
       style=""
       id="path3565" /><path
       d="m 117.06767,24.033895 2.95,0 0,6.5 -2.95,0 0,-0.9875 q -0.1875,0.4875 -0.7375,0.8 -0.5375,0.3125 -1.1875,0.3125 -0.8375,0 -1.4,-0.525 -0.5625,-0.5375 -0.6625,-1.45 -0.2,-1.775 -0.125,-4.65 l 2.7375,0 q -0.075,2.0375 0,3.2 0.025,0.375 0.275,0.575 0.25,0.1875 0.575,0.1125 0.325,-0.0875 0.525,-0.425 l 0,-3.4625 z"
       style=""
       id="path3567" /><path
       d="m 123.90459,24.758895 q 0.3375,-0.425 0.8,-0.5875 0.475,-0.175 0.95,-0.0375 l 0,1.675 q -1.175,0.0625 -1.75,0.9625 l 0,3.7625 -2.975,0 0,-6.5 2.975,0 0,0.725 z"
       style=""
       id="path3569" /><path
       d="m 129.93232,25.771395 0.7375,0 0,1.9375 -0.7375,0 0,2.825 -3.0625,0 0,-2.825 -0.7,0 0,-1.9375 0.7,0 0,-1.225 q 0,-0.6625 0.275,-1.1375 0.2875,-0.475 0.7125,-0.7 0.425,-0.2375 0.95,-0.3375 0.525,-0.1 0.9875,-0.075 0.475,0.025 0.875,0.125 l 0,1.7625 q -0.2125,-0.0875 -0.475,0.075 -0.2625,0.1625 -0.2625,0.4625 l 0,1.05 z"
       style=""
       id="path3571" /><path
       d="m 136.17373,22.408895 1.7375,0 0.9125,3.625 1.2125,-3.625 2.425,0 1.575,3.875 1.075,-3.875 1.7625,0 -1.5375,8.125 -2.6875,0 -1.2,-3.125 -0.9125,3.125 -2.9375,0 -1.425,-8.125 z"
       style=""
       id="path3573" /><path
       d="m 150.80459,29.346395 0,-0.95 q 0,-0.125 -0.1875,-0.25 -0.1875,-0.125 -0.35,-0.1 -0.2625,0.025 -0.4875,0.25 -0.225,0.2125 -0.225,0.4625 0,0.25 0.225,0.45 0.225,0.1875 0.4875,0.1875 0.35,0 0.5375,-0.05 z m 0,1.1125 q -0.4625,0.125 -1,0.125 -1.2625,0 -1.9125,-0.5125 -0.65,-0.5125 -0.65,-1.675 0,-0.825 0.6625,-1.3875 0.675,-0.5625 1.825,-0.5625 0.15,0 0.525,0.05 0.375,0.05 0.55,0.05 l 0,-0.35 q 0,-0.325 -0.4,-0.475 -0.4,-0.15 -0.85,-0.15 -0.775,0 -1.1875,0.05 -0.4,0.05 -0.8125,0.225 l 0,-0.875 q 1,-1 3.25,-1 1.1375,0 1.9,0.75 0.7625,0.75 0.7625,1.6625 l 0,4.15 q -1.325,0.0875 -2.6625,0 l 0,-0.075 z"
       style=""
       id="path3575" /><path
       d="m 157.69365,24.758895 q 0.3375,-0.425 0.8,-0.5875 0.475,-0.175 0.95,-0.0375 l 0,1.675 q -1.175,0.0625 -1.75,0.9625 l 0,3.7625 -2.975,0 0,-6.5 2.975,0 0,0.725 z"
       style=""
       id="path3577" /><path
       d="m 160.39639,30.221395 0,-1 q 0.75,0.1875 1.1875,0.1875 1.15,0 1.15,-0.5375 0,-0.1375 -0.25,-0.225 -0.25,-0.1 -0.6,-0.2125 -0.35,-0.1125 -0.7,-0.2875 -0.35,-0.175 -0.6,-0.575 -0.25,-0.4125 -0.25,-1.0125 0,-2.5875 3.025,-2.5875 1.4375,0 2.1625,0.125 l 0,2.75 q -0.0875,-0.0625 -0.3125,-0.0875 -0.2125,-0.0375 -0.3875,-0.025 l -0.175,0 q -0.4,0 -0.4,0.3625 0,0.175 0.2,0.35 0.2125,0.175 0.4625,0.3125 0.2625,0.1375 0.4625,0.3875 0.2125,0.25 0.2125,0.55 0,1 -1,1.45 -1,0.45 -2.9375,0.45 -0.3,0 -0.7,-0.1 -0.3875,-0.1125 -0.55,-0.275 z"
       style=""
       id="path3579" /></g></svg>