<?xml version="1.0" encoding="UTF-8" standalone="no"?>
<!-- Generator: Adobe Illustrator 17.1.0, SVG Export Plug-In . SVG Version: 6.00 Build 0)  -->

<svg
   xmlns:dc="http://purl.org/dc/elements/1.1/"
   xmlns:cc="http://creativecommons.org/ns#"
   xmlns:rdf="http://www.w3.org/1999/02/22-rdf-syntax-ns#"
   xmlns:svg="http://www.w3.org/2000/svg"
   xmlns="http://www.w3.org/2000/svg"
   xmlns:sodipodi="http://sodipodi.sourceforge.net/DTD/sodipodi-0.dtd"
   xmlns:inkscape="http://www.inkscape.org/namespaces/inkscape"
   version="1.1"
   id="レイヤー_1"
   x="0px"
   y="0px"
   viewBox="0 0 58.3 23.1"
   enable-background="new 0 0 58.3 23.1"
   xml:space="preserve"
   inkscape:version="0.91 r13725"
   sodipodi:docname="level.svg"><metadata
     id="metadata15"><rdf:RDF><cc:Work
         rdf:about=""><dc:format>image/svg+xml</dc:format><dc:type
           rdf:resource="http://purl.org/dc/dcmitype/StillImage" /></cc:Work></rdf:RDF></metadata><defs
     id="defs13" /><sodipodi:namedview
     pagecolor="#ffffff"
     bordercolor="#666666"
     borderopacity="1"
     objecttolerance="10"
     gridtolerance="10"
     guidetolerance="10"
     inkscape:pageopacity="0"
     inkscape:pageshadow="2"
     inkscape:window-width="1920"
     inkscape:window-height="1017"
     id="namedview11"
     showgrid="false"
     inkscape:zoom="4.9914237"
     inkscape:cx="29.15"
     inkscape:cy="11.55"
     inkscape:window-x="-8"
     inkscape:window-y="-8"
     inkscape:window-maximized="1"
     inkscape:current-layer="text3351" /><flowRoot
     xml:space="preserve"
     id="flowRoot3343"
     style="font-style:normal;font-weight:normal;font-size:40px;line-height:125%;font-family:sans-serif;letter-spacing:0px;word-spacing:0px;fill:#000000;fill-opacity:1;stroke:none;stroke-width:1px;stroke-linecap:butt;stroke-linejoin:miter;stroke-opacity:1"><flowRegion
       id="flowRegion3345"><rect
         id="rect3347"
         width="103.37732"
         height="40.669758"
         x="-25.643986"
         y="-5.1484528" /></flowRegion><flowPara
       id="flowPara3349">Level</flowPara></flowRoot><g
     style="font-style:normal;font-weight:normal;font-size:40px;line-height:125%;font-family:sans-serif;letter-spacing:0px;word-spacing:0px;fill:#7bed00;fill-opacity:1;stroke:none;stroke-width:1px;stroke-linecap:butt;stroke-linejoin:miter;stroke-opacity:1"
     id="text3351"><path
       d="m 2.3270633,4.6684704 5.58,0 0.18,9.2474996 q 1.0125,-0.09 2.3849997,-0.09 l 0,5.4675 -8.1449997,0 0,-14.6249996 z"
       style="font-style:normal;font-variant:normal;font-weight:bold;font-stretch:normal;font-size:22.5px;font-family:'Project Paintball';-inkscape-font-specification:'Project Paintball Bold';fill:#7bed00;fill-opacity:1"
       id="path3356" /><path
       d="m 17.887923,7.5034704 q 3.1725,0 4.77,1.7325 1.5975,1.7099996 1.215,4.8374996 l -6.9525,0 q 0,1.26 0.675,1.9125 0.6975,0.63 1.62,0.63 0.9225,0 1.6875,-0.315 0.7875,-0.315 1.08,-0.945 l 1.71,0 q -0.2475,1.7325 -1.8675,2.9025 -1.5975,1.17 -3.9375,1.17 -2.5425,0 -4.41,-1.62 -1.845,-1.6425 -1.845,-4.3875 0,-2.79 1.755,-4.3424996 1.755,-1.575 4.5,-1.575 z m 0.855,2.7224996 q -0.585,0 -1.215,0.5175 -0.6075,0.5175 -0.6075,1.395 l 3.42,0 q 0.2475,-0.855 -0.36,-1.3725 -0.6075,-0.54 -1.2375,-0.54 z"
       style="font-style:normal;font-variant:normal;font-weight:bold;font-stretch:normal;font-size:22.5px;font-family:'Project Paintball';-inkscape-font-specification:'Project Paintball Bold';fill:#7bed00;fill-opacity:1"
       id="path3358" /><path
       d="m 24.962415,7.6159704 4.995,0 q 0.4275,2.3849996 1.5525,5.5124996 0.63,-1.89 1.53,-5.5124996 l 3.105,0 q -0.225,0.945 -1.2375,5.2424996 -0.99,4.275 -1.5525,6.435 l -5.265,0 q -2.07,-6.255 -3.1275,-11.6774996 z"
       style="font-style:normal;font-variant:normal;font-weight:bold;font-stretch:normal;font-size:22.5px;font-family:'Project Paintball';-inkscape-font-specification:'Project Paintball Bold';fill:#7bed00;fill-opacity:1"
       id="path3360" /><path
       d="m 43.420149,7.5034704 q 3.1725,0 4.77,1.7325 1.5975,1.7099996 1.215,4.8374996 l -6.9525,0 q 0,1.26 0.675,1.9125 0.6975,0.63 1.62,0.63 0.9225,0 1.6875,-0.315 0.7875,-0.315 1.08,-0.945 l 1.71,0 q -0.2475,1.7325 -1.8675,2.9025 -1.5975,1.17 -3.9375,1.17 -2.5425,0 -4.41,-1.62 -1.845,-1.6425 -1.845,-4.3875 0,-2.79 1.755,-4.3424996 1.755,-1.575 4.5,-1.575 z m 0.855,2.7224996 q -0.585,0 -1.215,0.5175 -0.6075,0.5175 -0.6075,1.395 l 3.42,0 q 0.2475,-0.855 -0.36,-1.3725 -0.6075,-0.54 -1.2375,-0.54 z"
       style="font-style:normal;font-variant:normal;font-weight:bold;font-stretch:normal;font-size:22.5px;font-family:'Project Paintball';-inkscape-font-specification:'Project Paintball Bold';fill:#7bed00;fill-opacity:1"
       id="path3362" /><path
       d="m 51.327141,4.6684704 5.2425,0 q 0.045,4.9275 0,14.6249996 l -5.2425,0 q -0.045,-11.8124996 0,-14.6249996 z"
       style="font-style:normal;font-variant:normal;font-weight:bold;font-stretch:normal;font-size:22.5px;font-family:'Project Paintball';-inkscape-font-specification:'Project Paintball Bold';fill:#7bed00;fill-opacity:1"
       id="path3364" /></g></svg>