<?xml version="1.0" encoding="UTF-8" standalone="no"?>
<!-- Generator: Adobe Illustrator 19.0.0, SVG Export Plug-In . SVG Version: 6.00 Build 0)  -->

<svg
   xmlns:dc="http://purl.org/dc/elements/1.1/"
   xmlns:cc="http://creativecommons.org/ns#"
   xmlns:rdf="http://www.w3.org/1999/02/22-rdf-syntax-ns#"
   xmlns:svg="http://www.w3.org/2000/svg"
   xmlns="http://www.w3.org/2000/svg"
   xmlns:sodipodi="http://sodipodi.sourceforge.net/DTD/sodipodi-0.dtd"
   xmlns:inkscape="http://www.inkscape.org/namespaces/inkscape"
   version="1.1"
   id="レイヤー_1"
   x="0px"
   y="0px"
   viewBox="23 13 44 12"
   style="enable-background:new 23 13 44 12;"
   xml:space="preserve"
   inkscape:version="0.91 r13725"
   sodipodi:docname="loading.svg"><metadata
     id="metadata19"><rdf:RDF><cc:Work
         rdf:about=""><dc:format>image/svg+xml</dc:format><dc:type
           rdf:resource="http://purl.org/dc/dcmitype/StillImage" /></cc:Work></rdf:RDF></metadata><defs
     id="defs17" /><sodipodi:namedview
     pagecolor="#ffffff"
     bordercolor="#666666"
     borderopacity="1"
     objecttolerance="10"
     gridtolerance="10"
     guidetolerance="10"
     inkscape:pageopacity="0"
     inkscape:pageshadow="2"
     inkscape:window-width="1920"
     inkscape:window-height="1017"
     id="namedview15"
     showgrid="false"
     inkscape:zoom="6.6136364"
     inkscape:cx="113.16793"
     inkscape:cy="-6.5366962"
     inkscape:window-x="-8"
     inkscape:window-y="-8"
     inkscape:window-maximized="1"
     inkscape:current-layer="レイヤー_1" /><style
     type="text/css"
     id="style3">
	.st0{fill:#FFFFFF;}
</style><g
     style="font-style:normal;font-variant:normal;font-weight:bold;font-stretch:normal;font-size:12.5px;line-height:125%;font-family:'Project Paintball';-inkscape-font-specification:'Project Paintball Bold';letter-spacing:0px;word-spacing:0px;fill:#ffffff;fill-opacity:1;stroke:none;stroke-width:1px;stroke-linecap:butt;stroke-linejoin:miter;stroke-opacity:1"
     id="text3347"><path
       d="m 24.794621,14.814648 2.62125,0 q 0.0225,2.46375 0,7.3125 l -2.62125,0 q -0.0225,-5.90625 0,-7.3125 z"
       style="font-size:11.25px;fill:#ffffff"
       id="path3352" /><path
       d="m 31.352668,16.220898 q 1.44,0 2.12625,0.75375 0.6975,0.75375 0.6975,2.0925 0,1.74375 -0.72,2.46375 -0.72,0.70875 -2.10375,0.70875 -1.6425,0 -2.34,-0.75375 -0.68625,-0.75375 -0.68625,-2.41875 0,-2.84625 3.02625,-2.84625 z m 0.3825,2.93625 q -0.45,0 -0.6525,0.19125 -0.2025,0.19125 -0.2025,0.61875 0,0.81 0.855,0.81 0.30375,0 0.55125,-0.225 0.25875,-0.225 0.25875,-0.585 0,-0.37125 -0.25875,-0.585 -0.2475,-0.225 -0.55125,-0.225 z"
       style="font-size:11.25px;fill:#ffffff"
       id="path3354" /><path
       d="m 38.058547,21.058398 0,-0.855 q 0,-0.1125 -0.16875,-0.225 -0.16875,-0.1125 -0.315,-0.09 -0.23625,0.0225 -0.43875,0.225 -0.2025,0.19125 -0.2025,0.41625 0,0.225 0.2025,0.405 0.2025,0.16875 0.43875,0.16875 0.315,0 0.48375,-0.045 z m 0,1.00125 q -0.41625,0.1125 -0.9,0.1125 -1.13625,0 -1.72125,-0.46125 -0.585,-0.46125 -0.585,-1.5075 0,-0.7425 0.59625,-1.24875 0.6075,-0.50625 1.6425,-0.50625 0.135,0 0.4725,0.045 0.3375,0.045 0.495,0.045 l 0,-0.315 q 0,-0.2925 -0.36,-0.4275 -0.36,-0.135 -0.765,-0.135 -0.6975,0 -1.06875,0.045 -0.36,0.045 -0.73125,0.2025 l 0,-0.7875 q 0.9,-0.9 2.925,-0.9 1.02375,0 1.71,0.675 0.68625,0.675 0.68625,1.49625 l 0,3.735 q -1.1925,0.07875 -2.39625,0 l 0,-0.0675 z"
       style="font-size:11.25px;fill:#ffffff"
       id="path3356" /><path
       d="m 46.958703,14.814648 0,7.3125 -2.39625,0 0,-0.07875 q -1.54125,0.30375 -2.37375,-0.37125 -0.8325,-0.68625 -0.8325,-2.3175 0,-0.6075 0.19125,-1.09125 0.2025,-0.495 0.5175,-0.79875 0.32625,-0.315 0.7425,-0.50625 0.4275,-0.2025 0.86625,-0.25875 0.45,-0.0675 0.88875,-0.0225 l 0,-1.8675 2.39625,0 z m -2.39625,4.6125 q -0.36,-0.07875 -0.66375,0.09 -0.2925,0.1575 -0.2925,0.52875 0,0.86625 0.95625,0.72 l 0,-1.33875 z"
       style="font-size:11.25px;fill:#ffffff"
       id="path3358" /><path
       d="m 48.08511,14.814648 2.52,0 0,1.125 -2.52,0 0,-1.125 z m 2.52,1.78875 0,5.52375 -2.52,0 0,-5.52375 2.52,0 z"
       style="font-size:11.25px;fill:#ffffff"
       id="path3360" /><path
       d="m 57.840793,22.127148 -2.23875,0 0,-2.565 q 0,-0.45 -0.41625,-0.63 -0.41625,-0.18 -0.70875,0.10125 l 0,3.09375 -2.7225,0 0,-5.85 2.7225,0 0,1.1475 q 0.2475,-0.59625 0.57375,-0.91125 0.32625,-0.315 0.86625,-0.315 0.765,0 1.33875,0.585 0.57375,0.57375 0.585,1.395 l 0,3.94875 z"
       style="font-size:11.25px;fill:#ffffff"
       id="path3362" /><path
       d="m 59.715325,22.813398 q 0.6075,0.135 1.215,0.135 0.61875,0 1.09125,-0.25875 0.4725,-0.25875 0.4725,-0.70875 l 0,-0.0225 q -0.675,0.1575 -1.24875,0.1575 -2.50875,0 -2.50875,-2.98125 0,-1.305 0.75375,-2.07 0.765,-0.77625 1.755,-0.77625 0.54,0 1.24875,0.2925 l 0,-0.2925 2.2275,0 0,5.41125 q 0,0.73125 -0.52875,1.2375 -0.52875,0.50625 -1.305,0.68625 -0.77625,0.18 -1.63125,0.14625 -0.855,-0.0225 -1.54125,-0.25875 l 0,-0.6975 z m 2.77875,-1.87875 0,-1.38375 q -0.14625,-0.05625 -0.28125,-0.05625 -0.37125,0 -0.6075,0.225 -0.225,0.225 -0.225,0.52875 0,0.32625 0.2025,0.54 0.21375,0.21375 0.495,0.21375 0.19125,0 0.41625,-0.0675 z"
       style="font-size:11.25px;fill:#ffffff"
       id="path3364" /></g></svg>