<?xml version="1.0" encoding="UTF-8" standalone="no"?>
<!-- Generator: Adobe Illustrator 17.1.0, SVG Export Plug-In . SVG Version: 6.00 Build 0)  -->

<svg
   xmlns:dc="http://purl.org/dc/elements/1.1/"
   xmlns:cc="http://creativecommons.org/ns#"
   xmlns:rdf="http://www.w3.org/1999/02/22-rdf-syntax-ns#"
   xmlns:svg="http://www.w3.org/2000/svg"
   xmlns="http://www.w3.org/2000/svg"
   xmlns:sodipodi="http://sodipodi.sourceforge.net/DTD/sodipodi-0.dtd"
   xmlns:inkscape="http://www.inkscape.org/namespaces/inkscape"
   version="1.1"
   x="0px"
   y="0px"
   viewBox="0 0 58.5 14"
   enable-background="new 0 0 58.5 14"
   xml:space="preserve"
   id="svg2"
   inkscape:version="0.91 r13725"
   sodipodi:docname="Match_Type.svg"><metadata
     id="metadata22"><rdf:RDF><cc:Work
         rdf:about=""><dc:format>image/svg+xml</dc:format><dc:type
           rdf:resource="http://purl.org/dc/dcmitype/StillImage" /></cc:Work></rdf:RDF></metadata><defs
     id="defs20" /><sodipodi:namedview
     pagecolor="#ffffff"
     bordercolor="#666666"
     borderopacity="1"
     objecttolerance="10"
     gridtolerance="10"
     guidetolerance="10"
     inkscape:pageopacity="0"
     inkscape:pageshadow="2"
     inkscape:window-width="1920"
     inkscape:window-height="1017"
     id="namedview18"
     showgrid="false"
     inkscape:zoom="4.974359"
     inkscape:cx="82.443623"
     inkscape:cy="7"
     inkscape:window-x="-8"
     inkscape:window-y="-8"
     inkscape:window-maximized="1"
     inkscape:current-layer="svg2" /><g
     id="bg"
     display="none"><rect
       x="-1"
       y="-64.9"
       display="inline"
       width="447.8"
       height="80.6"
       id="rect5" /></g><g
     style="font-style:normal;font-weight:normal;font-size:40px;line-height:125%;font-family:sans-serif;letter-spacing:0px;word-spacing:0px;fill:#ffffff;fill-opacity:1;stroke:none;stroke-width:1px;stroke-linecap:butt;stroke-linejoin:miter;stroke-opacity:1"
     id="text3344"><path
       d="m 6.5319598,9.9793816 0.105,-4.875 1.71,0 q 0.315,0.795 1.0725,3.1125 0.8175002,-2.43 1.0725002,-3.1125 l 1.7625,0 0,4.875 -1.6575,0 0,-1.125 -0.4275,1.125 -1.3950002,0 -0.5325,-1.23 0,1.23 -1.71,0 z"
       style="font-style:normal;font-variant:normal;font-weight:bold;font-stretch:normal;font-size:7.5px;font-family:'Project Paintball';-inkscape-font-specification:'Project Paintball Bold';fill:#ffffff"
       id="path3349" /><path
       d="m 14.995827,9.2668816 0,-0.57 q 0,-0.075 -0.1125,-0.15 -0.1125,-0.075 -0.21,-0.06 -0.1575,0.015 -0.2925,0.15 -0.135,0.1275 -0.135,0.2775 0,0.15 0.135,0.27 0.135,0.1125 0.2925,0.1125 0.21,0 0.3225,-0.03 z m 0,0.6675 q -0.2775,0.075 -0.6,0.075 -0.7575,0 -1.1475,-0.3075004 -0.39,-0.3075 -0.39,-1.005 0,-0.495 0.3975,-0.8325 0.405,-0.3375 1.095,-0.3375 0.09,0 0.315,0.03 0.225,0.03 0.33,0.03 l 0,-0.21 q 0,-0.195 -0.24,-0.285 -0.24,-0.09 -0.51,-0.09 -0.465,0 -0.7125,0.03 -0.24,0.03 -0.4875,0.135 l 0,-0.525 q 0.6,-0.6 1.95,-0.6 0.6825,0 1.14,0.45 0.4575,0.45 0.4575,0.9975 l 0,2.49 q -0.795,0.0525 -1.5975,0 l 0,-0.045 z"
       style="font-style:normal;font-variant:normal;font-weight:bold;font-stretch:normal;font-size:7.5px;font-family:'Project Paintball';-inkscape-font-specification:'Project Paintball Bold';fill:#ffffff"
       id="path3351" /><path
       d="m 17.674265,5.5468816 1.7475,0 0,0.5325 1.1625,0 0,1.9425 -1.1625,0 0,0.165 q 0,0.4575 0.3075,0.7275 0.315,0.2625 0.855,0.2775 l 0,0.78 q -0.54,0.045 -0.96,0.0225 -0.42,-0.0225 -0.7275,-0.0525 -0.3075,-0.0375 -0.525,-0.135 -0.2175,-0.0975 -0.3525,-0.195 -0.135,-0.105 -0.21,-0.255 -0.075,-0.15 -0.105,-0.3 -0.03,-0.15 -0.03,-0.3375 l 0,-0.6975 -0.48,0 0,-1.9425 0.48,0 0,-0.5325 z"
       style="font-style:normal;font-variant:normal;font-weight:bold;font-stretch:normal;font-size:7.5px;font-family:'Project Paintball';-inkscape-font-specification:'Project Paintball Bold';fill:#ffffff"
       id="path3353" /><path
       d="m 23.364655,10.046882 q -1.1625,0 -1.7475,-0.5100004 -0.585,-0.51 -0.585,-1.635 0,-1.005 0.6825,-1.4325 0.6825,-0.435 1.9725,-0.435 0.555,0 0.825,0.1875 l 0,2.01 q -0.4125,-0.2025 -0.8025,-0.015 -0.39,0.1875 -0.39,0.5475 0,0.225 0.21,0.375 0.2175,0.15 0.48,0.195 0.2625,0.045 0.5025,0.0225 l 0,0.6 q -0.615,0.09 -1.1475,0.09 z"
       style="font-style:normal;font-variant:normal;font-weight:bold;font-stretch:normal;font-size:7.5px;font-family:'Project Paintball';-inkscape-font-specification:'Project Paintball Bold';fill:#ffffff"
       id="path3355" /><path
       d="m 29.289421,9.9793816 -1.485,0 0,-1.695 q 0,-0.3 -0.2775,-0.42 -0.27,-0.12 -0.465,0.0675 l 0,2.0475 -1.8075,0 0,-4.875 1.8075,0 0,1.38 q 0.315,-0.4275 0.9525,-0.4275 0.5025,0 0.885,0.39 0.39,0.3825 0.39,0.9225 l 0,2.61 z"
       style="font-style:normal;font-variant:normal;font-weight:bold;font-stretch:normal;font-size:7.5px;font-family:'Project Paintball';-inkscape-font-specification:'Project Paintball Bold';fill:#ffffff"
       id="path3357" /><path
       d="m 32.97239,9.9793816 0.105,-4.875 1.71,0 q 0.315,0.795 1.0725,3.1125 0.8175,-2.43 1.0725,-3.1125 l 1.7625,0 0,4.875 -1.6575,0 0,-1.125 -0.4275,1.125 -1.395,0 -0.5325,-1.23 0,1.23 -1.71,0 z"
       style="font-style:normal;font-variant:normal;font-weight:bold;font-stretch:normal;font-size:7.5px;font-family:'Project Paintball';-inkscape-font-specification:'Project Paintball Bold';fill:#ffffff"
       id="path3359" /><path
       d="m 41.316257,6.0418816 q 0.96,0 1.4175,0.5025 0.465,0.5025 0.465,1.395 0,1.1625 -0.48,1.6425 -0.48,0.4725004 -1.4025,0.4725004 -1.095,0 -1.56,-0.5025004 -0.4575,-0.5025 -0.4575,-1.6125 0,-1.8975 2.0175,-1.8975 z m 0.255,1.9575 q -0.3,0 -0.435,0.1275 -0.135,0.1275 -0.135,0.4125 0,0.54 0.57,0.54 0.2025,0 0.3675,-0.15 0.1725,-0.15 0.1725,-0.39 0,-0.2475 -0.1725,-0.39 -0.165,-0.15 -0.3675,-0.15 z"
       style="font-style:normal;font-variant:normal;font-weight:bold;font-stretch:normal;font-size:7.5px;font-family:'Project Paintball';-inkscape-font-specification:'Project Paintball Bold';fill:#ffffff"
       id="path3361" /><path
       d="m 47.384343,5.1043816 0,4.875 -1.5975,0 0,-0.0525 q -1.0275,0.2025004 -1.5825,-0.2475 -0.555,-0.4575 -0.555,-1.545 0,-0.405 0.1275,-0.7275 0.135,-0.33 0.345,-0.5325 0.2175,-0.21 0.495,-0.3375 0.285,-0.135 0.5775,-0.1725 0.3,-0.045 0.5925,-0.015 l 0,-1.245 1.5975,0 z m -1.5975,3.075 q -0.24,-0.0525 -0.4425,0.06 -0.195,0.105 -0.195,0.3525 0,0.5775 0.6375,0.48 l 0,-0.8925 z"
       style="font-style:normal;font-variant:normal;font-weight:bold;font-stretch:normal;font-size:7.5px;font-family:'Project Paintball';-inkscape-font-specification:'Project Paintball Bold';fill:#ffffff"
       id="path3363" /><path
       d="m 50.07028,6.0493816 q 1.0575,0 1.59,0.5775 0.5325,0.57 0.405,1.6125 l -2.3175,0 q 0,0.42 0.225,0.6375 0.2325,0.21 0.54,0.21 0.3075,0 0.5625,-0.105 0.2625,-0.105 0.36,-0.315 l 0.57,0 q -0.0825,0.5775 -0.6225,0.9675 -0.5325,0.3900004 -1.3125,0.3900004 -0.8475,0 -1.47,-0.5400004 -0.615,-0.5475 -0.615,-1.4625 0,-0.93 0.585,-1.4475 0.585,-0.525 1.5,-0.525 z m 0.285,0.9075 q -0.195,0 -0.405,0.1725 -0.2025,0.1725 -0.2025,0.465 l 1.14,0 q 0.0825,-0.285 -0.12,-0.4575 -0.2025,-0.18 -0.4125,-0.18 z"
       style="font-style:normal;font-variant:normal;font-weight:bold;font-stretch:normal;font-size:7.5px;font-family:'Project Paintball';-inkscape-font-specification:'Project Paintball Bold';fill:#ffffff"
       id="path3365" /></g></svg>