<?xml version="1.0" encoding="UTF-8" standalone="no"?>
<!-- Generator: Adobe Illustrator 17.1.0, SVG Export Plug-In . SVG Version: 6.00 Build 0)  -->

<svg
   xmlns:dc="http://purl.org/dc/elements/1.1/"
   xmlns:cc="http://creativecommons.org/ns#"
   xmlns:rdf="http://www.w3.org/1999/02/22-rdf-syntax-ns#"
   xmlns:svg="http://www.w3.org/2000/svg"
   xmlns="http://www.w3.org/2000/svg"
   xmlns:sodipodi="http://sodipodi.sourceforge.net/DTD/sodipodi-0.dtd"
   xmlns:inkscape="http://www.inkscape.org/namespaces/inkscape"
   version="1.1"
   x="0px"
   y="0px"
   viewBox="0 0 117.9 28.4"
   enable-background="new 0 0 117.9 28.4"
   xml:space="preserve"
   id="svg2"
   inkscape:version="0.91 r13725"
   sodipodi:docname="planconfig.svg"><metadata
     id="metadata22"><rdf:RDF><cc:Work
         rdf:about=""><dc:format>image/svg+xml</dc:format><dc:type
           rdf:resource="http://purl.org/dc/dcmitype/StillImage" /></cc:Work></rdf:RDF></metadata><defs
     id="defs20" /><sodipodi:namedview
     pagecolor="#ffffff"
     bordercolor="#666666"
     borderopacity="1"
     objecttolerance="10"
     gridtolerance="10"
     guidetolerance="10"
     inkscape:pageopacity="0"
     inkscape:pageshadow="2"
     inkscape:window-width="1920"
     inkscape:window-height="1017"
     id="namedview18"
     showgrid="false"
     inkscape:zoom="2.4681934"
     inkscape:cx="58.950001"
     inkscape:cy="14.2"
     inkscape:window-x="-8"
     inkscape:window-y="-8"
     inkscape:window-maximized="1"
     inkscape:current-layer="svg2" /><g
     id="bg"
     display="none"><rect
       x="-0.9"
       y="-51.9"
       display="inline"
       width="447.8"
       height="80.6"
       id="rect5" /></g><g
     style="font-style:normal;font-weight:normal;font-size:40px;line-height:125%;font-family:sans-serif;letter-spacing:0px;word-spacing:0px;fill:#ffffff;fill-opacity:1;stroke:none;stroke-width:1px;stroke-linecap:butt;stroke-linejoin:miter;stroke-opacity:1"
     id="text3350"><path
       d="m 1.9154641,19.891752 0.245,-11.3749998 3.99,0 q 0.735,1.8549998 2.5025,7.2624998 1.9074999,-5.67 2.5024999,-7.2624998 l 4.1125,0 0,11.3749998 -3.8675,0 0,-2.625 -0.9975,2.625 -3.2549999,0 -1.2425,-2.87 0,2.87 -3.99,0 z"
       style="font-style:normal;font-variant:normal;font-weight:bold;font-stretch:normal;font-size:17.5px;font-family:'Project Paintball';-inkscape-font-specification:'Project Paintball Bold';fill:#ffffff"
       id="path3355" /><path
       d="m 21.664488,18.229252 0,-1.33 q 0,-0.175 -0.2625,-0.35 -0.2625,-0.175 -0.49,-0.14 -0.3675,0.035 -0.6825,0.35 -0.315,0.2975 -0.315,0.6475 0,0.35 0.315,0.63 0.315,0.2625 0.6825,0.2625 0.49,0 0.7525,-0.07 z m 0,1.5575 q -0.6475,0.175 -1.4,0.175 -1.7675,0 -2.6775,-0.7175 -0.91,-0.7175 -0.91,-2.345 0,-1.155 0.9275,-1.9425 0.945,-0.7875 2.555,-0.7875 0.21,0 0.735,0.07 0.525,0.07 0.77,0.07 l 0,-0.49 q 0,-0.455 -0.56,-0.665 -0.56,-0.21 -1.19,-0.21 -1.085,0 -1.6625,0.07 -0.56,0.07 -1.1375,0.315 l 0,-1.225 q 1.4,-1.4 4.55,-1.4 1.5925,0 2.66,1.05 1.0675,1.05 1.0675,2.3275 l 0,5.81 q -1.855,0.1225 -3.7275,0 l 0,-0.105 z"
       style="font-style:normal;font-variant:normal;font-weight:bold;font-stretch:normal;font-size:17.5px;font-family:'Project Paintball';-inkscape-font-specification:'Project Paintball Bold';fill:#ffffff"
       id="path3357" /><path
       d="m 33.269175,10.791752 2.835,0 -2.1525,4.1475 2.5025,4.9525 -3.6575,0 -1.61,-3.36 0,3.36 -4.0425,0 0,-11.3749998 4.0425,0 0,6.0899998 2.0825,-3.815 z"
       style="font-style:normal;font-variant:normal;font-weight:bold;font-stretch:normal;font-size:17.5px;font-family:'Project Paintball';-inkscape-font-specification:'Project Paintball Bold';fill:#ffffff"
       id="path3359" /><path
       d="m 42.01562,10.721752 q 2.4675,0 3.71,1.3475 1.2425,1.33 0.945,3.7625 l -5.4075,0 q 0,0.98 0.525,1.4875 0.5425,0.49 1.26,0.49 0.7175,0 1.3125,-0.245 0.6125,-0.245 0.84,-0.735 l 1.33,0 q -0.1925,1.3475 -1.4525,2.2575 -1.2425,0.91 -3.0625,0.91 -1.9775,0 -3.43,-1.26 -1.435,-1.2775 -1.435,-3.4125 0,-2.17 1.365,-3.3775 1.365,-1.225 3.5,-1.225 z m 0.665,2.1175 q -0.455,0 -0.945,0.4025 -0.4725,0.4025 -0.4725,1.085 l 2.66,0 q 0.1925,-0.665 -0.28,-1.0675 -0.4725,-0.42 -0.9625,-0.42 z"
       style="font-style:normal;font-variant:normal;font-weight:bold;font-stretch:normal;font-size:17.5px;font-family:'Project Paintball';-inkscape-font-specification:'Project Paintball Bold';fill:#ffffff"
       id="path3361" /><path
       d="m 59.774839,18.229252 0,-1.33 q 0,-0.175 -0.2625,-0.35 -0.2625,-0.175 -0.49,-0.14 -0.3675,0.035 -0.6825,0.35 -0.315,0.2975 -0.315,0.6475 0,0.35 0.315,0.63 0.315,0.2625 0.6825,0.2625 0.49,0 0.7525,-0.07 z m 0,1.5575 q -0.6475,0.175 -1.4,0.175 -1.7675,0 -2.6775,-0.7175 -0.91,-0.7175 -0.91,-2.345 0,-1.155 0.9275,-1.9425 0.945,-0.7875 2.555,-0.7875 0.21,0 0.735,0.07 0.525,0.07 0.77,0.07 l 0,-0.49 q 0,-0.455 -0.56,-0.665 -0.56,-0.21 -1.19,-0.21 -1.085,0 -1.6625,0.07 -0.56,0.07 -1.1375,0.315 l 0,-1.225 q 1.4,-1.4 4.55,-1.4 1.5925,0 2.66,1.05 1.0675,1.05 1.0675,2.3275 l 0,5.81 q -1.855,0.1225 -3.7275,0 l 0,-0.105 z"
       style="font-style:normal;font-variant:normal;font-weight:bold;font-stretch:normal;font-size:17.5px;font-family:'Project Paintball';-inkscape-font-specification:'Project Paintball Bold';fill:#ffffff"
       id="path3363" /><path
       d="m 76.006363,19.909252 0,2.2225 -3.745,0 0,-11.305 3.57,0 q 2.5025,-0.0875 3.955,0.98 1.4525,1.0675 1.4525,3.5 0,1.19 -0.42,2.1 -0.4025,0.8925 -0.9975,1.365 -0.5775,0.4725 -1.3475,0.7525 -0.77,0.28 -1.365,0.35 -0.5775,0.0525 -1.1025,0.035 z m 0,-2.0125 q 0.6475,0.0525 1.19,-0.2975 0.56,-0.35 0.56,-1.05 0,-0.63 -0.595,-0.7875 -0.595,-0.1575 -1.155,0.14 l 0,1.995 z"
       style="font-style:normal;font-variant:normal;font-weight:bold;font-stretch:normal;font-size:17.5px;font-family:'Project Paintball';-inkscape-font-specification:'Project Paintball Bold';fill:#ffffff"
       id="path3365" /><path
       d="m 82.686988,8.5167522 4.0775,0 q 0.035,3.8324998 0,11.3749998 l -4.0775,0 q -0.035,-9.1875 0,-11.3749998 z"
       style="font-style:normal;font-variant:normal;font-weight:bold;font-stretch:normal;font-size:17.5px;font-family:'Project Paintball';-inkscape-font-specification:'Project Paintball Bold';fill:#ffffff"
       id="path3367" /><path
       d="m 93.168394,18.229252 0,-1.33 q 0,-0.175 -0.2625,-0.35 -0.2625,-0.175 -0.49,-0.14 -0.3675,0.035 -0.6825,0.35 -0.315,0.2975 -0.315,0.6475 0,0.35 0.315,0.63 0.315,0.2625 0.6825,0.2625 0.49,0 0.7525,-0.07 z m 0,1.5575 q -0.6475,0.175 -1.4,0.175 -1.7675,0 -2.6775,-0.7175 -0.91,-0.7175 -0.91,-2.345 0,-1.155 0.9275,-1.9425 0.945,-0.7875 2.555,-0.7875 0.21,0 0.735,0.07 0.525,0.07 0.77,0.07 l 0,-0.49 q 0,-0.455 -0.56,-0.665 -0.56,-0.21 -1.19,-0.21 -1.085,0 -1.6625,0.07 -0.56,0.07 -1.1375,0.315 l 0,-1.225 q 1.4,-1.4 4.55,-1.4 1.5925,0 2.66,1.05 1.0675,1.05 1.0675,2.3275 l 0,5.81 q -1.855,0.1225 -3.7275,0 l 0,-0.105 z"
       style="font-style:normal;font-variant:normal;font-weight:bold;font-stretch:normal;font-size:17.5px;font-family:'Project Paintball';-inkscape-font-specification:'Project Paintball Bold';fill:#ffffff"
       id="path3369" /><path
       d="m 108.11558,19.891752 -3.4825,0 0,-3.99 q 0,-0.7 -0.6475,-0.98 -0.6475,-0.28 -1.1025,0.1575 l 0,4.8125 -4.234999,0 0,-9.1 4.234999,0 0,1.785 q 0.385,-0.9275 0.8925,-1.4175 0.5075,-0.49 1.3475,-0.49 1.19,0 2.0825,0.91 0.8925,0.8925 0.91,2.17 l 0,6.1425 z"
       style="font-style:normal;font-variant:normal;font-weight:bold;font-stretch:normal;font-size:17.5px;font-family:'Project Paintball';-inkscape-font-specification:'Project Paintball Bold';fill:#ffffff"
       id="path3371" /><path
       d="m 110.17402,17.686752 3.8675,0 0,2.205 -3.8675,0 0,-2.205 z m -0.84,-9.1699998 5.81,0 -1.1025,8.0674998 -3.8675,0 -0.84,-8.0674998 z"
       style="font-style:normal;font-variant:normal;font-weight:bold;font-stretch:normal;font-size:17.5px;font-family:'Project Paintball';-inkscape-font-specification:'Project Paintball Bold';fill:#ffffff"
       id="path3373" /></g></svg>