<?xml version="1.0" encoding="UTF-8" standalone="no"?>
<!-- Generator: Adobe Illustrator 17.1.0, SVG Export Plug-In . SVG Version: 6.00 Build 0)  -->

<svg
   xmlns:dc="http://purl.org/dc/elements/1.1/"
   xmlns:cc="http://creativecommons.org/ns#"
   xmlns:rdf="http://www.w3.org/1999/02/22-rdf-syntax-ns#"
   xmlns:svg="http://www.w3.org/2000/svg"
   xmlns="http://www.w3.org/2000/svg"
   xmlns:sodipodi="http://sodipodi.sourceforge.net/DTD/sodipodi-0.dtd"
   xmlns:inkscape="http://www.inkscape.org/namespaces/inkscape"
   version="1.1"
   x="0px"
   y="0px"
   viewBox="0 0 170.6 48"
   enable-background="new 0 0 170.6 48"
   xml:space="preserve"
   id="svg3457"
   inkscape:version="0.91 r13725"
   sodipodi:docname="rankmatch.svg"><metadata
     id="metadata3479"><rdf:RDF><cc:Work
         rdf:about=""><dc:format>image/svg+xml</dc:format><dc:type
           rdf:resource="http://purl.org/dc/dcmitype/StillImage" /></cc:Work></rdf:RDF></metadata><defs
     id="defs3477" /><sodipodi:namedview
     pagecolor="#ffffff"
     bordercolor="#666666"
     borderopacity="1"
     objecttolerance="10"
     gridtolerance="10"
     guidetolerance="10"
     inkscape:pageopacity="0"
     inkscape:pageshadow="2"
     inkscape:window-width="1920"
     inkscape:window-height="1017"
     id="namedview3475"
     showgrid="false"
     inkscape:zoom="1.7057444"
     inkscape:cx="85.300003"
     inkscape:cy="24"
     inkscape:window-x="-8"
     inkscape:window-y="-8"
     inkscape:window-maximized="1"
     inkscape:current-layer="svg3457" /><g
     id="bg"
     display="none"><rect
       y="-39.8"
       display="inline"
       width="341.3"
       height="87.9"
       id="rect3460" /></g><g
     transform="matrix(0.64743438,0,0,1.2335331,0,8.4078733)"
     style="font-style:normal;font-variant:normal;font-weight:bold;font-stretch:normal;font-size:36.79579163px;line-height:125%;font-family:'Project Paintball';-inkscape-font-specification:'Project Paintball Bold';letter-spacing:0px;word-spacing:0px;fill:#ffffff;fill-opacity:1;stroke:none;stroke-width:1px;stroke-linecap:butt;stroke-linejoin:miter;stroke-opacity:1"
     id="text3481"><path
       d="m 1.7376273,26.701622 0,-23.8068772 Q 10.274251,2.4163995 12.960344,2.5635827 q 6.439263,0.3679579 8.794194,3.4588044 1.729402,2.3181349 1.729402,6.4392639 0,4.89384 -4.562678,7.064792 l 3.789967,7.175179 -6.73363,0 -2.354931,-5.887327 q -1.324649,0.110388 -2.906868,0.0368 l 0,5.850531 -8.9781727,0 z M 10.7158,17.944224 q 2.170952,0.147183 3.716375,-0.662325 1.545424,-0.809507 1.545424,-2.575705 0,-1.287853 -0.735916,-2.134156 -0.69912,-0.846303 -2.244543,-0.846303 -1.067078,0 -2.28134,0.331162 l 0,5.887327 z"
       id="path3486"
       inkscape:connector-curvature="0" /><path
       d="m 36.138817,23.206022 0,-2.79648 q 0,-0.367958 -0.551937,-0.735916 -0.551937,-0.367958 -1.030282,-0.294367 -0.772712,0.07359 -1.435036,0.735916 -0.662324,0.625529 -0.662324,1.361445 0,0.735915 0.662324,1.324648 0.662324,0.551937 1.435036,0.551937 1.030282,0 1.582219,-0.147183 z m 0,3.274825 q -1.361444,0.367958 -2.943663,0.367958 -3.716375,0 -5.629757,-1.508627 -1.913381,-1.508628 -1.913381,-4.930636 0,-2.428523 1.950177,-4.084333 1.986973,-1.655811 5.372186,-1.655811 0.441549,0 1.545423,0.147183 1.103874,0.147183 1.619015,0.147183 l 0,-1.030282 q 0,-0.95669 -1.177465,-1.39824 -1.177466,-0.441549 -2.502114,-0.441549 -2.281339,0 -3.495601,0.147183 -1.177465,0.147183 -2.391726,0.662324 l 0,-2.575705 q 2.943663,-2.9436636 9.566906,-2.9436636 3.348417,0 5.59296,2.2077475 2.244543,2.2077471 2.244543,4.8938401 l 0,12.216203 q -3.900353,0.257571 -7.837503,0 l 0,-0.220775 z"
       id="path3488"
       inkscape:connector-curvature="0" /><path
       d="m 67.567025,26.701622 -7.322363,0 0,-8.38944 q 0,-1.471832 -1.361444,-2.060565 -1.361444,-0.588732 -2.318135,0.331162 l 0,10.118843 -8.904581,0 0,-19.1338116 8.904581,0 0,3.7531706 q 0.809508,-1.9501768 1.876586,-2.980459 1.067078,-1.0302822 2.833276,-1.0302822 2.502113,0 4.378699,1.9133812 1.876585,1.876585 1.913381,4.562678 l 0,12.915323 z"
       id="path3490"
       inkscape:connector-curvature="0" /><path
       d="m 84.111333,7.5678104 5.960918,0 -4.525883,8.7206026 5.261799,10.413209 -7.690321,0 -3.385213,-7.064792 0,7.064792 -8.499827,0 0,-23.9172645 8.499827,0 0,12.8049355 4.3787,-8.0214826 z"
       id="path3492"
       inkscape:connector-curvature="0" /><path
       d="m 102.50175,7.4206272 q 5.18821,0 7.80071,2.8332758 2.6125,2.79648 1.98698,7.911095 l -11.3699,0 q 0,2.060565 1.10387,3.127643 1.14067,1.030282 2.6493,1.030282 1.50862,0 2.75968,-0.515141 1.28785,-0.515141 1.7662,-1.545424 l 2.79648,0 q -0.40475,2.833276 -3.05405,4.746658 -2.6125,1.913381 -6.43927,1.913381 -4.15792,0 -7.211971,-2.649297 -3.017255,-2.686093 -3.017255,-7.17518 0,-4.562678 2.870072,-7.1015874 2.870072,-2.5757054 7.359154,-2.5757054 z m 1.39824,4.4522908 q -0.95669,0 -1.98697,0.846303 -0.99348,0.846303 -0.99348,2.281339 l 5.59296,0 q 0.40475,-1.39824 -0.58874,-2.244543 -0.99348,-0.883099 -2.02377,-0.883099 z"
       id="path3494"
       inkscape:connector-curvature="0" /><path
       d="m 132.9474,2.7843575 0,23.9172645 -7.8375,0 0,-0.257571 q -5.04103,0.993487 -7.76392,-1.214261 -2.72288,-2.244543 -2.72288,-7.579933 0,-1.986972 0.62552,-3.569192 0.66233,-1.619014 1.69261,-2.612501 1.06708,-1.030282 2.42852,-1.6558103 1.39824,-0.6623243 2.83328,-0.8463033 1.47183,-0.2207747 2.90687,-0.073592 l 0,-6.1081014 7.8375,0 z m -7.8375,15.0862745 q -1.17747,-0.257571 -2.17096,0.294366 -0.95669,0.515141 -0.95669,1.729403 0,2.833276 3.12765,2.35493 l 0,-4.378699 z"
       id="path3496"
       inkscape:connector-curvature="0" /><path
       d="m 150.9963,26.701622 0.51514,-23.9172645 8.38944,0 q 1.54543,3.9003539 5.2618,15.2702535 4.01074,-11.9218365 5.2618,-15.2702535 l 8.64701,0 0,23.9172645 -8.13187,0 0,-5.519369 -2.09736,5.519369 -6.84402,0 -2.6125,-6.03451 0,6.03451 -8.38944,0 z"
       id="path3498"
       inkscape:connector-curvature="0" /><path
       d="m 192.52094,23.206022 0,-2.79648 q 0,-0.367958 -0.55194,-0.735916 -0.55194,-0.367958 -1.03028,-0.294367 -0.77271,0.07359 -1.43504,0.735916 -0.66232,0.625529 -0.66232,1.361445 0,0.735915 0.66232,1.324648 0.66233,0.551937 1.43504,0.551937 1.03028,0 1.58222,-0.147183 z m 0,3.274825 q -1.36145,0.367958 -2.94367,0.367958 -3.71637,0 -5.62975,-1.508627 -1.91338,-1.508628 -1.91338,-4.930636 0,-2.428523 1.95017,-4.084333 1.98698,-1.655811 5.37219,-1.655811 0.44155,0 1.54542,0.147183 1.10388,0.147183 1.61902,0.147183 l 0,-1.030282 q 0,-0.95669 -1.17747,-1.39824 -1.17746,-0.441549 -2.50211,-0.441549 -2.28134,0 -3.4956,0.147183 -1.17747,0.147183 -2.39173,0.662324 l 0,-2.575705 q 2.94366,-2.9436636 9.56691,-2.9436636 3.34841,0 5.59296,2.2077475 2.24454,2.2077471 2.24454,4.8938401 l 0,12.216203 q -3.90035,0.257571 -7.8375,0 l 0,-0.220775 z"
       id="path3500"
       inkscape:connector-curvature="0" /><path
       d="m 205.66163,4.9553092 8.57342,0 0,2.6125012 5.70335,0 0,9.5301096 -5.70335,0 0,0.809508 q 0,2.244543 1.50863,3.569192 1.54542,1.287852 4.19472,1.361444 l 0,3.826762 q -2.6493,0.220775 -4.70986,0.110388 -2.06056,-0.110388 -3.56919,-0.257571 -1.50863,-0.183979 -2.57571,-0.662324 -1.06707,-0.478345 -1.7294,-0.956691 -0.66232,-0.515141 -1.03028,-1.251057 -0.36796,-0.735916 -0.51514,-1.471831 -0.14719,-0.735916 -0.14719,-1.655811 l 0,-3.422009 -2.35493,0 0,-9.5301096 2.35493,0 0,-2.6125012 z"
       id="path3502"
       inkscape:connector-curvature="0" /><path
       d="m 233.57928,27.032784 q -5.70335,0 -8.57342,-2.502114 -2.87007,-2.502114 -2.87007,-8.021482 0,-4.930636 3.34842,-7.0279965 3.34841,-2.1341559 9.67729,-2.1341559 2.72289,0 4.04754,0.9198948 l 0,9.8612726 q -2.02377,-0.993487 -3.93715,-0.07359 -1.91338,0.919895 -1.91338,2.686093 0,1.103874 1.03028,1.839789 1.06708,0.735916 2.35493,0.956691 1.28785,0.220775 2.46532,0.110387 l 0,2.943664 q -3.01726,0.441549 -5.62976,0.441549 z"
       id="path3504"
       inkscape:connector-curvature="0" /><path
       d="m 262.64682,26.701622 -7.28557,0 0,-8.315849 q 0,-1.471832 -1.36145,-2.060564 -1.32464,-0.588733 -2.28133,0.331162 l 0,10.045251 -8.86779,0 0,-23.9172645 8.86779,0 0,6.7704256 q 1.54542,-2.0973601 4.67306,-2.0973601 2.46532,0 4.3419,1.9133812 1.91339,1.8765858 1.91339,4.5258828 l 0,12.804935 z"
       id="path3506"
       inkscape:connector-curvature="0" /></g></svg>