<?xml version="1.0" encoding="UTF-8" standalone="no"?>
<!-- Generator: Adobe Illustrator 17.1.0, SVG Export Plug-In . SVG Version: 6.00 Build 0)  -->

<svg
   xmlns:dc="http://purl.org/dc/elements/1.1/"
   xmlns:cc="http://creativecommons.org/ns#"
   xmlns:rdf="http://www.w3.org/1999/02/22-rdf-syntax-ns#"
   xmlns:svg="http://www.w3.org/2000/svg"
   xmlns="http://www.w3.org/2000/svg"
   xmlns:sodipodi="http://sodipodi.sourceforge.net/DTD/sodipodi-0.dtd"
   xmlns:inkscape="http://www.inkscape.org/namespaces/inkscape"
   version="1.1"
   x="0px"
   y="0px"
   viewBox="0 0 245.6 42.6"
   enable-background="new 0 0 245.6 42.6"
   xml:space="preserve"
   id="svg2"
   inkscape:version="0.91 r13725"
   sodipodi:docname="regmatch.svg"><metadata
     id="metadata30"><rdf:RDF><cc:Work
         rdf:about=""><dc:format>image/svg+xml</dc:format><dc:type
           rdf:resource="http://purl.org/dc/dcmitype/StillImage" /></cc:Work></rdf:RDF></metadata><defs
     id="defs28" /><sodipodi:namedview
     pagecolor="#ffffff"
     bordercolor="#666666"
     borderopacity="1"
     objecttolerance="10"
     gridtolerance="10"
     guidetolerance="10"
     inkscape:pageopacity="0"
     inkscape:pageshadow="2"
     inkscape:window-width="1920"
     inkscape:window-height="1017"
     id="namedview26"
     showgrid="false"
     inkscape:zoom="1.1848534"
     inkscape:cx="122.8"
     inkscape:cy="21.299999"
     inkscape:window-x="-8"
     inkscape:window-y="-8"
     inkscape:window-maximized="1"
     inkscape:current-layer="svg2" /><g
     id="bg"
     display="none"><rect
       y="-45.3"
       display="inline"
       width="491.3"
       height="87.9"
       id="rect5" /></g><g
     style="font-style:normal;font-variant:normal;font-weight:bold;font-stretch:normal;font-size:40px;line-height:125%;font-family:'Project Paintball';-inkscape-font-specification:'Project Paintball Bold';letter-spacing:0px;word-spacing:0px;fill:#ffffff;fill-opacity:1;stroke:none;stroke-width:1px;stroke-linecap:butt;stroke-linejoin:miter;stroke-opacity:1"
     id="text3358"
     transform="translate(-25.319588,1.6879726)"><path
       d="m 28.651547,7.3161469 22.6,0 0,12.3200001 -6.24,0 0,13.68 -9.36,0 0,-13.68 -7,0 0,-12.3200001 z"
       id="path3363"
       inkscape:connector-curvature="0" /><path
       d="m 66.712172,12.516147 9.44,0 0,20.8 -9.44,0 0,-3.16 q -0.6,1.56 -2.36,2.56 -1.72,1 -3.8,1 -2.68,0 -4.48,-1.68 -1.8,-1.72 -2.12,-4.64 -0.64,-5.68 -0.4,-14.88 l 8.76,0 q -0.24,6.52 0,10.24 0.08,1.2 0.88,1.84 0.8,0.6 1.84,0.36 1.04,-0.28 1.68,-1.36 l 0,-11.08 z"
       id="path3365"
       inkscape:connector-curvature="0" /><path
       d="m 88.590297,14.836147 q 1.08,-1.36 2.56,-1.88 1.52,-0.56 3.04,-0.12 l 0,5.36 q -3.76,0.2 -5.6,3.08 l 0,12.04 -9.52,0 0,-20.8 9.52,0 0,2.32 z"
       id="path3367"
       inkscape:connector-curvature="0" /><path
       d="m 107.87905,18.076147 2.36,0 0,6.2 -2.36,0 0,9.04 -9.800003,0 0,-9.04 -2.24,0 0,-6.2 2.24,0 0,-3.92 q 0,-2.12 0.88,-3.64 0.92,-1.5200001 2.280003,-2.2400001 1.36,-0.76 3.04,-1.08 1.68,-0.32 3.16,-0.24 1.52,0.08 2.8,0.4 l 0,5.6400001 q -0.68,-0.28 -1.52,0.24 -0.84,0.52 -0.84,1.48 l 0,3.36 z"
       id="path3369"
       inkscape:connector-curvature="0" /><path
       d="m 127.85155,7.3161469 5.56,0 2.92,11.6000001 3.88,-11.6000001 7.76,0 5.04,12.4000001 3.44,-12.4000001 5.64,0 -4.92,26.0000001 -8.6,0 -3.84,-10 -2.92,10 -9.4,0 -4.56,-26.0000001 z"
       id="path3371"
       inkscape:connector-curvature="0" /><path
       d="m 174.6703,29.516147 0,-3.04 q 0,-0.4 -0.6,-0.8 -0.6,-0.4 -1.12,-0.32 -0.84,0.08 -1.56,0.8 -0.72,0.68 -0.72,1.48 0,0.8 0.72,1.44 0.72,0.6 1.56,0.6 1.12,0 1.72,-0.16 z m 0,3.56 q -1.48,0.4 -3.2,0.4 -4.04,0 -6.12,-1.64 -2.08,-1.64 -2.08,-5.36 0,-2.64 2.12,-4.44 2.16,-1.8 5.84,-1.8 0.48,0 1.68,0.16 1.2,0.16 1.76,0.16 l 0,-1.12 q 0,-1.04 -1.28,-1.52 -1.28,-0.48 -2.72,-0.48 -2.48,0 -3.8,0.16 -1.28,0.16 -2.6,0.72 l 0,-2.8 q 3.2,-3.2 10.4,-3.2 3.64,0 6.08,2.4 2.44,2.4 2.44,5.32 l 0,13.28 q -4.24,0.28 -8.52,0 l 0,-0.24 z"
       id="path3373"
       inkscape:connector-curvature="0" /><path
       d="m 196.7153,14.836147 q 1.08,-1.36 2.56,-1.88 1.52,-0.56 3.04,-0.12 l 0,5.36 q -3.76,0.2 -5.6,3.08 l 0,12.04 -9.52,0 0,-20.8 9.52,0 0,2.32 z"
       id="path3375"
       inkscape:connector-curvature="0" /><path
       d="m 205.36405,32.316147 0,-3.2 q 2.4,0.6 3.8,0.6 3.68,0 3.68,-1.72 0,-0.44 -0.8,-0.72 -0.8,-0.32 -1.92,-0.68 -1.12,-0.36 -2.24,-0.92 -1.12,-0.56 -1.92,-1.84 -0.8,-1.32 -0.8,-3.24 0,-8.28 9.68,-8.28 4.6,0 6.92,0.4 l 0,8.8 q -0.28,-0.2 -1,-0.28 -0.68,-0.12 -1.24,-0.08 l -0.56,0 q -1.28,0 -1.28,1.16 0,0.56 0.64,1.12 0.68,0.56 1.48,1 0.84,0.44 1.48,1.24 0.68,0.8 0.68,1.76 0,3.2 -3.2,4.64 -3.2,1.44 -9.4,1.44 -0.96,0 -2.24,-0.32 -1.24,-0.36 -1.76,-0.88 z"
       id="path3377"
       inkscape:connector-curvature="0" /></g></svg>