<?xml version="1.0" encoding="UTF-8" standalone="no"?>
<!-- Generator: Adobe Illustrator 17.1.0, SVG Export Plug-In . SVG Version: 6.00 Build 0)  -->

<svg
   xmlns:dc="http://purl.org/dc/elements/1.1/"
   xmlns:cc="http://creativecommons.org/ns#"
   xmlns:rdf="http://www.w3.org/1999/02/22-rdf-syntax-ns#"
   xmlns:svg="http://www.w3.org/2000/svg"
   xmlns="http://www.w3.org/2000/svg"
   xmlns:sodipodi="http://sodipodi.sourceforge.net/DTD/sodipodi-0.dtd"
   xmlns:inkscape="http://www.inkscape.org/namespaces/inkscape"
   version="1.1"
   x="0px"
   y="0px"
   viewBox="0 0 58.5 14"
   enable-background="new 0 0 58.5 14"
   xml:space="preserve"
   id="svg2"
   inkscape:version="0.91 r13725"
   sodipodi:docname="start_time.svg"><metadata
     id="metadata22"><rdf:RDF><cc:Work
         rdf:about=""><dc:format>image/svg+xml</dc:format><dc:type
           rdf:resource="http://purl.org/dc/dcmitype/StillImage" /></cc:Work></rdf:RDF></metadata><defs
     id="defs20" /><sodipodi:namedview
     pagecolor="#ffffff"
     bordercolor="#666666"
     borderopacity="1"
     objecttolerance="10"
     gridtolerance="10"
     guidetolerance="10"
     inkscape:pageopacity="0"
     inkscape:pageshadow="2"
     inkscape:window-width="1920"
     inkscape:window-height="1017"
     id="namedview18"
     showgrid="false"
     inkscape:zoom="4.974359"
     inkscape:cx="40.961018"
     inkscape:cy="7"
     inkscape:window-x="-8"
     inkscape:window-y="-8"
     inkscape:window-maximized="1"
     inkscape:current-layer="svg2" /><g
     id="bg"
     display="none"><rect
       x="-1"
       y="-64.9"
       display="inline"
       width="447.8"
       height="80.6"
       id="rect5" /></g><g
     style="font-style:normal;font-weight:normal;font-size:40px;line-height:125%;font-family:sans-serif;letter-spacing:0px;word-spacing:0px;fill:#ffffff;fill-opacity:1;stroke:none;stroke-width:1px;stroke-linecap:butt;stroke-linejoin:miter;stroke-opacity:1"
     id="text3350"><path
       d="m 6.3251546,3.8304123 0,2.54 q -1.27,-0.28 -1.27,0.25 0,0.29 0.13,0.46 0.13,0.16 0.31,0.25 0.19,0.08 0.38,0.2 0.19,0.11 0.32,0.39 0.13,0.28 0.13,0.73 0,0.5 -0.4,0.87 -0.39,0.37 -0.99,0.5399997 -0.6,0.17 -1.27,0.21 -0.66,0.05 -1.25,-0.05 -0.59,-0.1 -0.91,-0.2999997 l 0,-1.08 q 0.88,0.25 1.58,0.21 0.7,-0.04 0.7,-0.4 0,-0.25 -0.13,-0.39 -0.12,-0.14 -0.32,-0.19 -0.2,-0.05 -0.45,-0.09 -0.24,-0.04 -0.49,-0.14 -0.24,-0.11 -0.44,-0.31 -0.2,-0.2 -0.33,-0.62 -0.12,-0.43 -0.12,-1.05 0,-0.81 0.52,-1.35 0.53,-0.55 1.29,-0.74 0.76,-0.2 1.57,-0.18 0.81,0.01 1.44,0.24 z"
       style="font-style:normal;font-variant:normal;font-weight:bold;font-stretch:normal;font-size:10px;font-family:'Project Paintball';-inkscape-font-specification:'Project Paintball Bold';fill:#ffffff"
       id="path3355" /><path
       d="m 7.7849984,4.2704123 2.3299996,0 0,0.71 1.55,0 0,2.59 -1.55,0 0,0.22 q 0,0.61 0.41,0.97 0.42,0.35 1.14,0.37 l 0,1.0399997 q -0.72,0.06 -1.28,0.03 -0.5599996,-0.03 -0.9699996,-0.07 -0.41,-0.05 -0.7,-0.1799997 -0.29,-0.13 -0.47,-0.26 -0.18,-0.14 -0.28,-0.34 -0.1,-0.2 -0.14,-0.4 -0.04,-0.2 -0.04,-0.45 l 0,-0.93 -0.64,0 0,-2.59 0.64,0 0,-0.71 z"
       style="font-style:normal;font-variant:normal;font-weight:bold;font-stretch:normal;font-size:10px;font-family:'Project Paintball';-inkscape-font-specification:'Project Paintball Bold';fill:#ffffff"
       id="path3357" /><path
       d="m 15.112186,9.2304123 0,-0.76 q 0,-0.1 -0.15,-0.2 -0.15,-0.1 -0.28,-0.08 -0.21,0.02 -0.39,0.2 -0.18,0.17 -0.18,0.37 0,0.2 0.18,0.36 0.18,0.15 0.39,0.15 0.28,0 0.43,-0.04 z m 0,0.8899997 q -0.37,0.1 -0.8,0.1 -1.01,0 -1.53,-0.4099997 -0.52,-0.41 -0.52,-1.34 0,-0.66 0.53,-1.11 0.54,-0.45 1.46,-0.45 0.12,0 0.42,0.04 0.3,0.04 0.44,0.04 l 0,-0.28 q 0,-0.26 -0.32,-0.38 -0.32,-0.12 -0.68,-0.12 -0.62,0 -0.95,0.04 -0.32,0.04 -0.65,0.18 l 0,-0.7 q 0.8,-0.8 2.6,-0.8 0.91,0 1.52,0.6 0.61,0.6 0.61,1.33 l 0,3.3199997 q -1.06,0.07 -2.13,0 l 0,-0.06 z"
       style="font-style:normal;font-variant:normal;font-weight:bold;font-stretch:normal;font-size:10px;font-family:'Project Paintball';-inkscape-font-specification:'Project Paintball Bold';fill:#ffffff"
       id="path3359" /><path
       d="m 20.623436,5.5604123 q 0.27,-0.34 0.64,-0.47 0.38,-0.14 0.76,-0.03 l 0,1.34 q -0.94,0.05 -1.4,0.77 l 0,3.0099997 -2.38,0 0,-5.1999997 2.38,0 0,0.58 z"
       style="font-style:normal;font-variant:normal;font-weight:bold;font-stretch:normal;font-size:10px;font-family:'Project Paintball';-inkscape-font-specification:'Project Paintball Bold';fill:#ffffff"
       id="path3361" /><path
       d="m 23.175623,4.2704123 2.33,0 0,0.71 1.55,0 0,2.59 -1.55,0 0,0.22 q 0,0.61 0.41,0.97 0.42,0.35 1.14,0.37 l 0,1.0399997 q -0.72,0.06 -1.28,0.03 -0.56,-0.03 -0.97,-0.07 -0.41,-0.05 -0.7,-0.1799997 -0.29,-0.13 -0.47,-0.26 -0.18,-0.14 -0.28,-0.34 -0.1,-0.2 -0.14,-0.4 -0.04,-0.2 -0.04,-0.45 l 0,-0.93 -0.64,0 0,-2.59 0.64,0 0,-0.71 z"
       style="font-style:normal;font-variant:normal;font-weight:bold;font-stretch:normal;font-size:10px;font-family:'Project Paintball';-inkscape-font-specification:'Project Paintball Bold';fill:#ffffff"
       id="path3363" /><path
       d="m 31.556717,3.6804123 5.65,0 0,3.08 -1.56,0 0,3.4199997 -2.34,0 0,-3.4199997 -1.75,0 0,-3.08 z"
       style="font-style:normal;font-variant:normal;font-weight:bold;font-stretch:normal;font-size:10px;font-family:'Project Paintball';-inkscape-font-specification:'Project Paintball Bold';fill:#ffffff"
       id="path3365" /><path
       d="m 37.891873,3.6804123 2.24,0 0,1 -2.24,0 0,-1 z m 2.24,1.59 0,4.9099997 -2.24,0 0,-4.9099997 2.24,0 z"
       style="font-style:normal;font-variant:normal;font-weight:bold;font-stretch:normal;font-size:10px;font-family:'Project Paintball';-inkscape-font-specification:'Project Paintball Bold';fill:#ffffff"
       id="path3367" /><path
       d="m 41.153592,4.9804123 1.74,0 0.29,1.01 q 0.17,-0.32 0.3,-0.5 0.13,-0.19 0.39,-0.35 0.27,-0.16 0.61,-0.16 0.25,0 0.44,0.05 0.19,0.05 0.3,0.11 0.12,0.05 0.21,0.18 0.1,0.12 0.14,0.2 0.04,0.08 0.11,0.25 0.07,0.16 0.1,0.22 0.2,-0.46 0.65,-0.73 0.45,-0.28 0.93,-0.28 0.73,0 1.1,0.61 0.37,0.61 0.42,1.77 0.05,1.15 -0.07,2.8199997 l -1.88,0 0,-1.1599997 q 0,-0.17 -0.11,-0.3 -0.11,-0.13 -0.32,-0.13 -0.19,0 -0.44,0.29 l 0,1.2999997 -1.87,0 0,-1.2999997 q 0,-0.16 -0.13,-0.29 -0.12,-0.14 -0.31,-0.14 -0.22,0 -0.43,0.29 l 0,1.4399997 -2.17,0 0,-5.1999997 z"
       style="font-style:normal;font-variant:normal;font-weight:bold;font-stretch:normal;font-size:10px;font-family:'Project Paintball';-inkscape-font-specification:'Project Paintball Bold';fill:#ffffff"
       id="path3369" /><path
       d="m 52.503123,4.9404123 q 1.41,0 2.12,0.77 0.71,0.76 0.54,2.15 l -3.09,0 q 0,0.56 0.3,0.85 0.31,0.28 0.72,0.28 0.41,0 0.75,-0.14 0.35,-0.14 0.48,-0.42 l 0.76,0 q -0.11,0.77 -0.83,1.29 -0.71,0.5199997 -1.75,0.5199997 -1.13,0 -1.96,-0.7199997 -0.82,-0.73 -0.82,-1.95 0,-1.24 0.78,-1.93 0.78,-0.7 2,-0.7 z m 0.38,1.21 q -0.26,0 -0.54,0.23 -0.27,0.23 -0.27,0.62 l 1.52,0 q 0.11,-0.38 -0.16,-0.61 -0.27,-0.24 -0.55,-0.24 z"
       style="font-style:normal;font-variant:normal;font-weight:bold;font-stretch:normal;font-size:10px;font-family:'Project Paintball';-inkscape-font-specification:'Project Paintball Bold';fill:#ffffff"
       id="path3371" /></g></svg>