<?xml version="1.0" encoding="UTF-8" standalone="no"?>
<!-- Generator: Adobe Illustrator 19.0.0, SVG Export Plug-In . SVG Version: 6.00 Build 0)  -->

<svg
   xmlns:dc="http://purl.org/dc/elements/1.1/"
   xmlns:cc="http://creativecommons.org/ns#"
   xmlns:rdf="http://www.w3.org/1999/02/22-rdf-syntax-ns#"
   xmlns:svg="http://www.w3.org/2000/svg"
   xmlns="http://www.w3.org/2000/svg"
   xmlns:sodipodi="http://sodipodi.sourceforge.net/DTD/sodipodi-0.dtd"
   xmlns:inkscape="http://www.inkscape.org/namespaces/inkscape"
   version="1.1"
   x="0px"
   y="0px"
   viewBox="0 0 380 48"
   xml:space="preserve"
   id="svg3366"
   inkscape:version="0.91 r13725"
   sodipodi:docname="AreaPainted.svg"
   style="enable-background:new 0 0 380 48;"><metadata
     id="metadata3396"><rdf:RDF><cc:Work
         rdf:about=""><dc:format>image/svg+xml</dc:format><dc:type
           rdf:resource="http://purl.org/dc/dcmitype/StillImage" /><dc:title></dc:title></cc:Work></rdf:RDF></metadata><defs
     id="defs3394" /><sodipodi:namedview
     pagecolor="#ffffff"
     bordercolor="#666666"
     borderopacity="1"
     objecttolerance="10"
     gridtolerance="10"
     guidetolerance="10"
     inkscape:pageopacity="0"
     inkscape:pageshadow="2"
     inkscape:window-width="1920"
     inkscape:window-height="1017"
     id="namedview3392"
     showgrid="false"
     inkscape:zoom="2.1659797"
     inkscape:cx="294.14874"
     inkscape:cy="-34.875285"
     inkscape:window-x="-8"
     inkscape:window-y="-8"
     inkscape:window-maximized="1"
     inkscape:current-layer="svg3366" /><style
     type="text/css"
     id="style3368">
	.st0{display:none;}
	.st1{display:inline;}
	.st2{fill:#FFFFFF;}
</style><g
     id="bg"
     class="st0"><rect
       x="-0.5"
       y="0"
       class="st1"
       width="565.6"
       height="48"
       id="rect3371" /></g><flowRoot
     xml:space="preserve"
     id="flowRoot3398"
     style="fill:black;stroke:none;stroke-opacity:1;stroke-width:1px;stroke-linejoin:miter;stroke-linecap:butt;fill-opacity:1;font-family:sans-serif;font-style:normal;font-weight:normal;font-size:40px;line-height:125%;letter-spacing:0px;word-spacing:0px"><flowRegion
       id="flowRegion3400"><rect
         id="rect3402"
         width="379.02063"
         height="47.663231"
         x="0.32646048"
         y="-0.31615126" /></flowRegion><flowPara
       id="flowPara3404"></flowPara></flowRoot><g
     style="font-style:normal;font-weight:normal;font-size:40px;line-height:125%;font-family:sans-serif;letter-spacing:0px;word-spacing:0px;fill:#000000;fill-opacity:1;stroke:none;stroke-width:1px;stroke-linecap:butt;stroke-linejoin:miter;stroke-opacity:1"
     id="text3406"><path
       d="m 7.9853902,14.772406 14.1249998,0 0,7.7 -3.9,0 0,8.55 -5.85,0 0,-8.55 -4.3749998,0 0,-7.7 z"
       style="font-style:normal;font-variant:normal;font-weight:bold;font-stretch:normal;font-size:25px;font-family:'Project Paintball';-inkscape-font-specification:'Project Paintball Bold';fill:#ffffff"
       id="path3411" /><path
       d="m 30.048281,17.897406 q 3.2,0 4.725,1.675 1.55,1.675 1.55,4.65 0,3.875 -1.6,5.475 -1.6,1.575 -4.675,1.575 -3.65,0 -5.2,-1.675 -1.525,-1.675 -1.525,-5.375 0,-6.325 6.725,-6.325 z m 0.85,6.525 q -1,0 -1.45,0.425 -0.45,0.425 -0.45,1.375 0,1.8 1.9,1.8 0.675,0 1.225,-0.5 0.575,-0.5 0.575,-1.3 0,-0.825 -0.575,-1.3 -0.55,-0.5 -1.225,-0.5 z"
       style="font-style:normal;font-variant:normal;font-weight:bold;font-stretch:normal;font-size:25px;font-family:'Project Paintball';-inkscape-font-specification:'Project Paintball Bold';fill:#ffffff"
       id="path3413" /><path
       d="m 39.425234,16.247406 5.825,0 0,1.775 3.875,0 0,6.475 -3.875,0 0,0.55 q 0,1.525 1.025,2.425 1.05,0.875 2.85,0.925 l 0,2.6 q -1.8,0.15 -3.2,0.075 -1.4,-0.075 -2.425,-0.175 -1.025,-0.125 -1.75,-0.45 -0.725,-0.325 -1.175,-0.65 -0.45,-0.35 -0.7,-0.85 -0.25,-0.5 -0.35,-1 -0.1,-0.5 -0.1,-1.125 l 0,-2.325 -1.6,0 0,-6.475 1.6,0 0,-1.775 z"
       style="font-style:normal;font-variant:normal;font-weight:bold;font-stretch:normal;font-size:25px;font-family:'Project Paintball';-inkscape-font-specification:'Project Paintball Bold';fill:#ffffff"
       id="path3415" /><path
       d="m 57.743203,28.647406 0,-1.9 q 0,-0.25 -0.375,-0.5 -0.375,-0.25 -0.7,-0.2 -0.525,0.05 -0.975,0.5 -0.45,0.425 -0.45,0.925 0,0.5 0.45,0.9 0.45,0.375 0.975,0.375 0.7,0 1.075,-0.1 z m 0,2.225 q -0.925,0.25 -2,0.25 -2.525,0 -3.825,-1.025 -1.3,-1.025 -1.3,-3.35 0,-1.65 1.325,-2.775 1.35,-1.125 3.65,-1.125 0.3,0 1.05,0.1 0.75,0.1 1.1,0.1 l 0,-0.7 q 0,-0.65 -0.8,-0.95 -0.8,-0.3 -1.7,-0.3 -1.55,0 -2.375,0.1 -0.8,0.1 -1.625,0.45 l 0,-1.75 q 2,-2 6.5,-2 2.275,0 3.8,1.5 1.525,1.5 1.525,3.325 l 0,8.3 q -2.65,0.175 -5.325,0 l 0,-0.15 z"
       style="font-style:normal;font-variant:normal;font-weight:bold;font-stretch:normal;font-size:25px;font-family:'Project Paintball';-inkscape-font-specification:'Project Paintball Bold';fill:#ffffff"
       id="path3417" /><path
       d="m 65.621328,14.772406 5.825,0 q 0.05,5.475 0,16.25 l -5.825,0 q -0.05,-13.125 0,-16.25 z"
       style="font-style:normal;font-variant:normal;font-weight:bold;font-stretch:normal;font-size:25px;font-family:'Project Paintball';-inkscape-font-specification:'Project Paintball Bold';fill:#ffffff"
       id="path3419" /><path
       d="m 90.604531,28.647406 0,-1.9 q 0,-0.25 -0.375,-0.5 -0.375,-0.25 -0.7,-0.2 -0.525,0.05 -0.975,0.5 -0.45,0.425 -0.45,0.925 0,0.5 0.45,0.9 0.45,0.375 0.975,0.375 0.7,0 1.075,-0.1 z m 0,2.225 q -0.925,0.25 -2,0.25 -2.525,0 -3.825,-1.025 -1.3,-1.025 -1.3,-3.35 0,-1.65 1.325,-2.775 1.35,-1.125 3.65,-1.125 0.3,0 1.05,0.1 0.75,0.1 1.1,0.1 l 0,-0.7 q 0,-0.65 -0.8,-0.95 -0.8,-0.3 -1.7,-0.3 -1.55,0 -2.375,0.1 -0.8,0.1 -1.625,0.45 l 0,-1.75 q 2,-2 6.5,-2 2.275,0 3.8,1.5 1.525,1.5 1.525,3.325 l 0,8.3 q -2.65,0.175 -5.325,0 l 0,-0.15 z"
       style="font-style:normal;font-variant:normal;font-weight:bold;font-stretch:normal;font-size:25px;font-family:'Project Paintball';-inkscape-font-specification:'Project Paintball Bold';fill:#ffffff"
       id="path3421" /><path
       d="m 104.38266,19.472406 q 0.675,-0.85 1.6,-1.175 0.95,-0.35 1.9,-0.075 l 0,3.35 q -2.35,0.125 -3.5,1.925 l 0,7.525 -5.950004,0 0,-13 5.950004,0 0,1.45 z"
       style="font-style:normal;font-variant:normal;font-weight:bold;font-stretch:normal;font-size:25px;font-family:'Project Paintball';-inkscape-font-specification:'Project Paintball Bold';fill:#ffffff"
       id="path3423" /><path
       d="m 116.11312,17.922406 q 3.525,0 5.3,1.925 1.775,1.9 1.35,5.375 l -7.725,0 q 0,1.4 0.75,2.125 0.775,0.7 1.8,0.7 1.025,0 1.875,-0.35 0.875,-0.35 1.2,-1.05 l 1.9,0 q -0.275,1.925 -2.075,3.225 -1.775,1.3 -4.375,1.3 -2.825,0 -4.9,-1.8 -2.05,-1.825 -2.05,-4.875 0,-3.1 1.95,-4.825 1.95,-1.75 5,-1.75 z m 0.95,3.025 q -0.65,0 -1.35,0.575 -0.675,0.575 -0.675,1.55 l 3.8,0 q 0.275,-0.95 -0.4,-1.525 -0.675,-0.6 -1.375,-0.6 z"
       style="font-style:normal;font-variant:normal;font-weight:bold;font-stretch:normal;font-size:25px;font-family:'Project Paintball';-inkscape-font-specification:'Project Paintball Bold';fill:#ffffff"
       id="path3425" /><path
       d="m 131.47367,28.647406 0,-1.9 q 0,-0.25 -0.375,-0.5 -0.375,-0.25 -0.7,-0.2 -0.525,0.05 -0.975,0.5 -0.45,0.425 -0.45,0.925 0,0.5 0.45,0.9 0.45,0.375 0.975,0.375 0.7,0 1.075,-0.1 z m 0,2.225 q -0.925,0.25 -2,0.25 -2.525,0 -3.825,-1.025 -1.3,-1.025 -1.3,-3.35 0,-1.65 1.325,-2.775 1.35,-1.125 3.65,-1.125 0.3,0 1.05,0.1 0.75,0.1 1.1,0.1 l 0,-0.7 q 0,-0.65 -0.8,-0.95 -0.8,-0.3 -1.7,-0.3 -1.55,0 -2.375,0.1 -0.8,0.1 -1.625,0.45 l 0,-1.75 q 2,-2 6.5,-2 2.275,0 3.8,1.5 1.525,1.5 1.525,3.325 l 0,8.3 q -2.65,0.175 -5.325,0 l 0,-0.15 z"
       style="font-style:normal;font-variant:normal;font-weight:bold;font-stretch:normal;font-size:25px;font-family:'Project Paintball';-inkscape-font-specification:'Project Paintball Bold';fill:#ffffff"
       id="path3427" /><path
       d="m 149.31156,14.772406 5.6,0 0,2.5 -5.6,0 0,-2.5 z m 5.6,3.975 0,12.275 -5.6,0 0,-12.275 5.6,0 z"
       style="font-style:normal;font-variant:normal;font-weight:bold;font-stretch:normal;font-size:25px;font-family:'Project Paintball';-inkscape-font-specification:'Project Paintball Bold';fill:#ffffff"
       id="path3429" /><path
       d="m 170.99086,31.022406 -4.975,0 0,-5.7 q 0,-1 -0.925,-1.4 -0.925,-0.4 -1.575,0.225 l 0,6.875 -6.05,0 0,-13 6.05,0 0,2.55 q 0.55,-1.325 1.275,-2.025 0.725,-0.7 1.925,-0.7 1.7,0 2.975,1.3 1.275,1.275 1.3,3.1 l 0,8.775 z"
       style="font-style:normal;font-variant:normal;font-weight:bold;font-stretch:normal;font-size:25px;font-family:'Project Paintball';-inkscape-font-specification:'Project Paintball Bold';fill:#ffffff"
       id="path3431" /><path
       d="m 182.23148,18.022406 4.05,0 -3.075,5.925 3.575,7.075 -5.225,0 -2.3,-4.8 0,4.8 -5.775,0 0,-16.25 5.775,0 0,8.7 2.975,-5.45 z"
       style="font-style:normal;font-variant:normal;font-weight:bold;font-stretch:normal;font-size:25px;font-family:'Project Paintball';-inkscape-font-specification:'Project Paintball Bold';fill:#ffffff"
       id="path3433" /><path
       d="m 194.72641,17.922406 q 3.525,0 5.3,1.925 1.775,1.9 1.35,5.375 l -7.725,0 q 0,1.4 0.75,2.125 0.775,0.7 1.8,0.7 1.025,0 1.875,-0.35 0.875,-0.35 1.2,-1.05 l 1.9,0 q -0.275,1.925 -2.075,3.225 -1.775,1.3 -4.375,1.3 -2.825,0 -4.9,-1.8 -2.05,-1.825 -2.05,-4.875 0,-3.1 1.95,-4.825 1.95,-1.75 5,-1.75 z m 0.95,3.025 q -0.65,0 -1.35,0.575 -0.675,0.575 -0.675,1.55 l 3.8,0 q 0.275,-0.95 -0.4,-1.525 -0.675,-0.6 -1.375,-0.6 z"
       style="font-style:normal;font-variant:normal;font-weight:bold;font-stretch:normal;font-size:25px;font-family:'Project Paintball';-inkscape-font-specification:'Project Paintball Bold';fill:#ffffff"
       id="path3435" /><path
       d="m 215.41195,14.772406 0,16.25 -5.325,0 0,-0.175 q -3.425,0.675 -5.275,-0.825 -1.85,-1.525 -1.85,-5.15 0,-1.35 0.425,-2.425 0.45,-1.1 1.15,-1.775 0.725,-0.7 1.65,-1.125 0.95,-0.45 1.925,-0.575 1,-0.15 1.975,-0.05 l 0,-4.15 5.325,0 z m -5.325,10.25 q -0.8,-0.175 -1.475,0.2 -0.65,0.35 -0.65,1.175 0,1.925 2.125,1.6 l 0,-2.975 z"
       style="font-style:normal;font-variant:normal;font-weight:bold;font-stretch:normal;font-size:25px;font-family:'Project Paintball';-inkscape-font-specification:'Project Paintball Bold';fill:#ffffff"
       id="path3437" /><path
       d="m 233.27484,31.047406 0,3.175 -5.35,0 0,-16.15 5.1,0 q 3.575,-0.125 5.65,1.4 2.075,1.525 2.075,5 0,1.7 -0.6,3 -0.575,1.275 -1.425,1.95 -0.825,0.675 -1.925,1.075 -1.1,0.4 -1.95,0.5 -0.825,0.075 -1.575,0.05 z m 0,-2.875 q 0.925,0.075 1.7,-0.425 0.8,-0.5 0.8,-1.5 0,-0.9 -0.85,-1.125 -0.85,-0.225 -1.65,0.2 l 0,2.85 z"
       style="font-style:normal;font-variant:normal;font-weight:bold;font-stretch:normal;font-size:25px;font-family:'Project Paintball';-inkscape-font-specification:'Project Paintball Bold';fill:#ffffff"
       id="path3439" /><path
       d="m 249.21859,17.922406 q 3.525,0 5.3,1.925 1.775,1.9 1.35,5.375 l -7.725,0 q 0,1.4 0.75,2.125 0.775,0.7 1.8,0.7 1.025,0 1.875,-0.35 0.875,-0.35 1.2,-1.05 l 1.9,0 q -0.275,1.925 -2.075,3.225 -1.775,1.3 -4.375,1.3 -2.825,0 -4.9,-1.8 -2.05,-1.825 -2.05,-4.875 0,-3.1 1.95,-4.825 1.95,-1.75 5,-1.75 z m 0.95,3.025 q -0.65,0 -1.35,0.575 -0.675,0.575 -0.675,1.55 l 3.8,0 q 0.275,-0.95 -0.4,-1.525 -0.675,-0.6 -1.375,-0.6 z"
       style="font-style:normal;font-variant:normal;font-weight:bold;font-stretch:normal;font-size:25px;font-family:'Project Paintball';-inkscape-font-specification:'Project Paintball Bold';fill:#ffffff"
       id="path3441" /><path
       d="m 263.90414,19.472406 q 0.675,-0.85 1.6,-1.175 0.95,-0.35 1.9,-0.075 l 0,3.35 q -2.35,0.125 -3.5,1.925 l 0,7.525 -5.95,0 0,-13 5.95,0 0,1.45 z"
       style="font-style:normal;font-variant:normal;font-weight:bold;font-stretch:normal;font-size:25px;font-family:'Project Paintball';-inkscape-font-specification:'Project Paintball Bold';fill:#ffffff"
       id="path3443" /><path
       d="m 278.44437,18.022406 2.85,0 1.6,5.175 1.575,-5.175 4.15,0 2.55,5.8 1.6,-5.8 3.175,0 -2.875,13 -4.45,0 -1.6,-4.975 -1.575,4.975 -4.775,0 q -0.925,-4.35 -2.225,-13 z"
       style="font-style:normal;font-variant:normal;font-weight:bold;font-stretch:normal;font-size:25px;font-family:'Project Paintball';-inkscape-font-specification:'Project Paintball Bold';fill:#ffffff"
       id="path3445" /><path
       d="m 304.15023,17.922406 q 3.525,0 5.3,1.925 1.775,1.9 1.35,5.375 l -7.725,0 q 0,1.4 0.75,2.125 0.775,0.7 1.8,0.7 1.025,0 1.875,-0.35 0.875,-0.35 1.2,-1.05 l 1.9,0 q -0.275,1.925 -2.075,3.225 -1.775,1.3 -4.375,1.3 -2.825,0 -4.9,-1.8 -2.05,-1.825 -2.05,-4.875 0,-3.1 1.95,-4.825 1.95,-1.75 5,-1.75 z m 0.95,3.025 q -0.65,0 -1.35,0.575 -0.675,0.575 -0.675,1.55 l 3.8,0 q 0.275,-0.95 -0.4,-1.525 -0.675,-0.6 -1.375,-0.6 z"
       style="font-style:normal;font-variant:normal;font-weight:bold;font-stretch:normal;font-size:25px;font-family:'Project Paintball';-inkscape-font-specification:'Project Paintball Bold';fill:#ffffff"
       id="path3447" /><path
       d="m 319.51078,28.647406 0,-1.9 q 0,-0.25 -0.375,-0.5 -0.375,-0.25 -0.7,-0.2 -0.525,0.05 -0.975,0.5 -0.45,0.425 -0.45,0.925 0,0.5 0.45,0.9 0.45,0.375 0.975,0.375 0.7,0 1.075,-0.1 z m 0,2.225 q -0.925,0.25 -2,0.25 -2.525,0 -3.825,-1.025 -1.3,-1.025 -1.3,-3.35 0,-1.65 1.325,-2.775 1.35,-1.125 3.65,-1.125 0.3,0 1.05,0.1 0.75,0.1 1.1,0.1 l 0,-0.7 q 0,-0.65 -0.8,-0.95 -0.8,-0.3 -1.7,-0.3 -1.55,0 -2.375,0.1 -0.8,0.1 -1.625,0.45 l 0,-1.75 q 2,-2 6.5,-2 2.275,0 3.8,1.5 1.525,1.5 1.525,3.325 l 0,8.3 q -2.65,0.175 -5.325,0 l 0,-0.15 z"
       style="font-style:normal;font-variant:normal;font-weight:bold;font-stretch:normal;font-size:25px;font-family:'Project Paintball';-inkscape-font-specification:'Project Paintball Bold';fill:#ffffff"
       id="path3449" /><path
       d="m 332.68891,31.047406 0,3.175 -5.35,0 0,-16.15 5.1,0 q 3.575,-0.125 5.65,1.4 2.075,1.525 2.075,5 0,1.7 -0.6,3 -0.575,1.275 -1.425,1.95 -0.825,0.675 -1.925,1.075 -1.1,0.4 -1.95,0.5 -0.825,0.075 -1.575,0.05 z m 0,-2.875 q 0.925,0.075 1.7,-0.425 0.8,-0.5 0.8,-1.5 0,-0.9 -0.85,-1.125 -0.85,-0.225 -1.65,0.2 l 0,2.85 z"
       style="font-style:normal;font-variant:normal;font-weight:bold;font-stretch:normal;font-size:25px;font-family:'Project Paintball';-inkscape-font-specification:'Project Paintball Bold';fill:#ffffff"
       id="path3451" /><path
       d="m 348.40766,17.897406 q 3.2,0 4.725,1.675 1.55,1.675 1.55,4.65 0,3.875 -1.6,5.475 -1.6,1.575 -4.675,1.575 -3.65,0 -5.2,-1.675 -1.525,-1.675 -1.525,-5.375 0,-6.325 6.725,-6.325 z m 0.85,6.525 q -1,0 -1.45,0.425 -0.45,0.425 -0.45,1.375 0,1.8 1.9,1.8 0.675,0 1.225,-0.5 0.575,-0.5 0.575,-1.3 0,-0.825 -0.575,-1.3 -0.55,-0.5 -1.225,-0.5 z"
       style="font-style:normal;font-variant:normal;font-weight:bold;font-stretch:normal;font-size:25px;font-family:'Project Paintball';-inkscape-font-specification:'Project Paintball Bold';fill:#ffffff"
       id="path3453" /><path
       d="m 370.20961,31.022406 -4.975,0 0,-5.7 q 0,-1 -0.925,-1.4 -0.925,-0.4 -1.575,0.225 l 0,6.875 -6.05,0 0,-13 6.05,0 0,2.55 q 0.55,-1.325 1.275,-2.025 0.725,-0.7 1.925,-0.7 1.7,0 2.975,1.3 1.275,1.275 1.3,3.1 l 0,8.775 z"
       style="font-style:normal;font-variant:normal;font-weight:bold;font-stretch:normal;font-size:25px;font-family:'Project Paintball';-inkscape-font-specification:'Project Paintball Bold';fill:#ffffff"
       id="path3455" /></g></svg>