<?xml version="1.0" encoding="UTF-8" standalone="no"?>
<svg
   xmlns:dc="http://purl.org/dc/elements/1.1/"
   xmlns:cc="http://creativecommons.org/ns#"
   xmlns:rdf="http://www.w3.org/1999/02/22-rdf-syntax-ns#"
   xmlns:svg="http://www.w3.org/2000/svg"
   xmlns="http://www.w3.org/2000/svg"
   xmlns:sodipodi="http://sodipodi.sourceforge.net/DTD/sodipodi-0.dtd"
   xmlns:inkscape="http://www.inkscape.org/namespaces/inkscape"
   xml:space="preserve"
   style="enable-background:new 0 0 150 174;"
   viewBox="0 0 150 174"
   y="0px"
   x="0px"
   id="レイヤー_1"
   version="1.1"
   inkscape:version="0.91 r13725"
   sodipodi:docname="btn_tab_gachi_regular.svg"><sodipodi:namedview
     pagecolor="#ffffff"
     bordercolor="#666666"
     borderopacity="1"
     objecttolerance="10"
     gridtolerance="10"
     guidetolerance="10"
     inkscape:pageopacity="0"
     inkscape:pageshadow="2"
     inkscape:window-width="1920"
     inkscape:window-height="1017"
     id="namedview3448"
     showgrid="false"
     inkscape:zoom="10.850575"
     inkscape:cx="130.0441"
     inkscape:cy="57.949198"
     inkscape:window-x="-8"
     inkscape:window-y="-8"
     inkscape:window-maximized="1"
     inkscape:current-layer="text3370" /><metadata
     id="metadata3360"><rdf:RDF><cc:Work
         rdf:about=""><dc:format>image/svg+xml</dc:format><dc:type
           rdf:resource="http://purl.org/dc/dcmitype/StillImage" /><dc:title /></cc:Work></rdf:RDF></metadata><defs
     id="defs3358" /><style
     id="style3337"
     type="text/css">
	.st0{fill-rule:evenodd;clip-rule:evenodd;fill:#212121;}
	.st1{fill:#FF4E00;}
</style><path
     d="M128.8,75.3c0,34.4-20.2,49.9-51,52.1c-29,2.1-50.5-22.4-50.6-50.4c-0.1-13,7.1-27.9,15.6-38.8  c8.4-10.8,24.5-15.9,35.6-15.7C102.4,22.8,128.8,47.3,128.8,75.3z"
     class="st0"
     id="XMLID_44_" /><g
     id="XMLID_6_"><g
       id="XMLID_113_"><path
         d="M74.7,80.6c1.5,1.1,2.8,2.5,4.3,4.3c1.5-1.8,2.8-3.2,4.3-4.3c-1.4-0.3-2.8-0.7-4.3-1.2    C77.6,79.9,76.2,80.3,74.7,80.6z"
         class="st1"
         id="XMLID_123_" /><path
         d="M73,76.5c-1-0.6-2-1.3-3-2c0,0-0.1,0.1-0.1,0.1c-0.8,0.2-1.7,0.5-2.8,0.5    c-0.5,0-1-0.1-1.5-0.2c0.6,1.3,1.4,1.7,2.3,1.9c0.5,0.1,1.1,0.2,1.8,0.2C70.7,77,71.9,76.8,73,76.5z"
         class="st1"
         id="XMLID_122_" /><path
         d="M69.7,74.3c-1-0.8-1.9-1.6-2.9-2.5c-1.5,0-3-0.2-4.5-0.4c0.4,1.4,1.1,2,2,2.3    C65.8,74.3,67.7,74.5,69.7,74.3z"
         class="st1"
         id="XMLID_121_" /><path
         d="M73.4,76.8c-1.1,0.5-2.3,1-3.9,1c-0.4,0-0.9,0-1.3-0.1c0.9,1.8,4.6,2.3,9.3,1.1    C76.2,78.2,74.8,77.6,73.4,76.8z"
         class="st1"
         id="XMLID_120_" /><path
         d="M66.4,61.1c0,0,2.6-0.1,4.8-0.9c0,0-4.7-1.8-10.4-9.3c-1.7,4.8-2.5,8.3-1.3,15.3    c0.8-0.7,2.7-3.1,2.7-3.1C70.3,79,87.8,81.7,89.9,77.7c-0.5,0.1-0.9,0.1-1.3,0.1c-1.5-0.1-2.9-0.5-4-1.1c-0.1,0-0.1-0.1-0.1-0.2    c0-0.1,0.1-0.1,0.2-0.1c1.3,0.4,2.5,0.6,3.7,0.6c0.6,0,1.2-0.1,1.8-0.2c1-0.2,1.7-0.6,2.3-1.9c-0.5,0.1-1,0.2-1.5,0.2    c-1.1,0-2-0.2-2.8-0.5c-0.1,0-0.1-0.1-0.1-0.2c0-0.1,0.1-0.1,0.2-0.1c2.1,0.2,4,0,5.5-0.6c0.9-0.4,1.6-0.9,2-2.3    C83.1,73.5,69.6,66.4,66.4,61.1z"
         class="st1"
         id="XMLID_119_" /><path
         d="M76,54.2L76,54.2c0.9,0,1.3,0.4,1.4,1.2c-0.1,5.6-1.8,8.3-4.1,10.3c1.3,1.1,3.7,2,5.9,2.6    c2.1-0.6,4.6-1.5,5.9-2.6c-2.4-2-4-4.6-4.1-10.3c0-0.9,0.5-1.2,1.4-1.2h0c2.4,0,3.8-0.8,3.8-2.7v-1.2l-5.2,0.6c0-0.4,0-1.3,0-1.6    c2.6-0.8,4.6-3.2,4.6-6.1c0-3.5-2.8-6.3-6.3-6.3c-3.5,0-6.3,2.8-6.3,6.3c0,2.9,1.9,5.3,4.6,6.1c0,0.3,0,1.3,0,1.6l-5.2-0.6v1.2    C72.1,53.4,73.6,54.2,76,54.2z M79.1,40.8c1.3,0,2.4,1.1,2.4,2.4c0,1.3-1.1,2.4-2.4,2.4c-1.3,0-2.4-1.1-2.4-2.4    C76.7,41.9,77.7,40.8,79.1,40.8z"
         class="st1"
         id="XMLID_116_" /><g
         id="XMLID_114_"><path
           d="M97.3,50.9c-5.4,7.2-10.4,9.3-10.4,9.3c2.2,0.7,4.8,0.9,4.8,0.9c-1.6,2.6-5.7,5.7-11,7.9     c3,1,6.3,1.7,9.7,1.9c2.1-2.1,4-4.7,5.5-7.7c0,0,1.9,2.4,2.7,3.1C99.9,61.1,99,55.7,97.3,50.9z"
           class="st1"
           id="XMLID_115_" /></g></g></g><flowRoot
     style="fill:black;stroke:none;stroke-opacity:1;stroke-width:1px;stroke-linejoin:miter;stroke-linecap:butt;fill-opacity:1;font-family:sans-serif;font-style:normal;font-weight:normal;font-size:40px;line-height:125%;letter-spacing:0px;word-spacing:0px"
     id="flowRoot3362"
     xml:space="preserve"><flowRegion
       id="flowRegion3364"><rect
         y="78.300003"
         x="39.917648"
         height="41.248234"
         width="71.749413"
         id="rect3366" /></flowRegion><flowPara
       id="flowPara3368" /></flowRoot><g
     style="font-style:normal;font-weight:normal;font-size:40px;line-height:125%;font-family:sans-serif;letter-spacing:0px;word-spacing:0px;fill:#ff4e00;fill-opacity:1;stroke:none;stroke-width:1px;stroke-linecap:butt;stroke-linejoin:miter;stroke-opacity:1"
     id="text3370"><path
       d="m 57.438885,101.27267 0,-8.087503 q 2.9,-0.1625 3.8125,-0.1125 2.1875,0.125 2.9875,1.175 0.5875,0.7875 0.5875,2.1875 0,1.6625 -1.55,2.4 l 1.2875,2.437503 -2.2875,0 -0.8,-2.000003 q -0.45,0.0375 -0.9875,0.0125 l 0,1.987503 -3.05,0 z m 3.05,-2.975003 q 0.7375,0.05 1.2625,-0.225 0.525,-0.275 0.525,-0.875 0,-0.4375 -0.25,-0.725 -0.2375,-0.2875 -0.7625,-0.2875 -0.3625,0 -0.775,0.1125 l 0,2 z"
       style="font-style:normal;font-variant:normal;font-weight:bold;font-stretch:normal;font-size:12.5px;font-family:'Project Paintball';-inkscape-font-specification:'Project Paintball Bold';fill:#ff4e00;fill-opacity:1"
       id="path3451" /><path
       d="m 69.125408,100.08517 0,-0.950003 q 0,-0.125 -0.1875,-0.25 -0.1875,-0.125 -0.35,-0.1 -0.2625,0.025 -0.4875,0.25 -0.225,0.2125 -0.225,0.4625 0,0.25 0.225,0.45 0.225,0.187503 0.4875,0.187503 0.35,0 0.5375,-0.05 z m 0,1.1125 q -0.4625,0.125 -1,0.125 -1.2625,0 -1.9125,-0.5125 -0.65,-0.5125 -0.65,-1.675003 0,-0.825 0.6625,-1.3875 0.675,-0.5625 1.825,-0.5625 0.15,0 0.525,0.05 0.375,0.05 0.55,0.05 l 0,-0.35 q 0,-0.325 -0.4,-0.475 -0.4,-0.15 -0.85,-0.15 -0.775,0 -1.1875,0.05 -0.4,0.05 -0.8125,0.225 l 0,-0.875 q 1,-1 3.25,-1 1.1375,0 1.9,0.75 0.7625,0.75 0.7625,1.6625 l 0,4.150003 q -1.325,0.0875 -2.6625,0 l 0,-0.075 z"
       style="font-style:normal;font-variant:normal;font-weight:bold;font-stretch:normal;font-size:12.5px;font-family:'Project Paintball';-inkscape-font-specification:'Project Paintball Bold';fill:#ff4e00;fill-opacity:1"
       id="path3453" /><path
       d="m 79.801971,101.27267 -2.4875,0 0,-2.850003 q 0,-0.5 -0.4625,-0.7 -0.4625,-0.2 -0.7875,0.1125 l 0,3.437503 -3.025,0 0,-6.500003 3.025,0 0,1.275 q 0.275,-0.6625 0.6375,-1.0125 0.3625,-0.35 0.9625,-0.35 0.85,0 1.4875,0.65 0.6375,0.6375 0.65,1.55 l 0,4.387503 z"
       style="font-style:normal;font-variant:normal;font-weight:bold;font-stretch:normal;font-size:12.5px;font-family:'Project Paintball';-inkscape-font-specification:'Project Paintball Bold';fill:#ff4e00;fill-opacity:1"
       id="path3455" /><path
       d="m 85.422283,94.772667 2.025,0 -1.5375,2.9625 1.7875,3.537503 -2.6125,0 -1.15,-2.400003 0,2.400003 -2.8875,0 0,-8.125003 2.8875,0 0,4.35 1.4875,-2.725 z"
       style="font-style:normal;font-variant:normal;font-weight:bold;font-stretch:normal;font-size:12.5px;font-family:'Project Paintball';-inkscape-font-specification:'Project Paintball Bold';fill:#ff4e00;fill-opacity:1"
       id="path3457" /><path
       d="m 91.669744,94.722667 q 1.7625,0 2.65,0.9625 0.8875,0.95 0.675,2.6875 l -3.8625,0 q 0,0.7 0.375,1.0625 0.3875,0.35 0.9,0.35 0.5125,0 0.9375,-0.175 0.4375,-0.175 0.6,-0.525 l 0.95,0 q -0.1375,0.962503 -1.0375,1.612503 -0.8875,0.65 -2.1875,0.65 -1.4125,0 -2.45,-0.9 -1.025,-0.912503 -1.025,-2.437503 0,-1.55 0.975,-2.4125 0.975,-0.875 2.5,-0.875 z m 0.475,1.5125 q -0.325,0 -0.675,0.2875 -0.3375,0.2875 -0.3375,0.775 l 1.9,0 q 0.1375,-0.475 -0.2,-0.7625 -0.3375,-0.3 -0.6875,-0.3 z"
       style="font-style:normal;font-variant:normal;font-weight:bold;font-stretch:normal;font-size:12.5px;font-family:'Project Paintball';-inkscape-font-specification:'Project Paintball Bold';fill:#ff4e00;fill-opacity:1"
       id="path3459" /><path
       d="m 102.01252,93.147667 0,8.125003 -2.662502,0 0,-0.0875 q -1.7125,0.3375 -2.6375,-0.4125 -0.925,-0.7625 -0.925,-2.575003 0,-0.675 0.2125,-1.2125 0.225,-0.55 0.575,-0.8875 0.3625,-0.35 0.825,-0.5625 0.475,-0.225 0.9625,-0.2875 0.5,-0.075 0.9875,-0.025 l 0,-2.075 2.662502,0 z m -2.662502,5.125 q -0.4,-0.0875 -0.7375,0.1 -0.325,0.175 -0.325,0.5875 0,0.9625 1.0625,0.8 l 0,-1.4875 z"
       style="font-style:normal;font-variant:normal;font-weight:bold;font-stretch:normal;font-size:12.5px;font-family:'Project Paintball';-inkscape-font-specification:'Project Paintball Bold';fill:#ff4e00;fill-opacity:1"
       id="path3461" /></g></svg>