<?xml version="1.0" encoding="UTF-8" standalone="no"?>
<!-- Generator: Adobe Illustrator 17.1.0, SVG Export Plug-In . SVG Version: 6.00 Build 0)  -->

<svg
   xmlns:dc="http://purl.org/dc/elements/1.1/"
   xmlns:cc="http://creativecommons.org/ns#"
   xmlns:rdf="http://www.w3.org/1999/02/22-rdf-syntax-ns#"
   xmlns:svg="http://www.w3.org/2000/svg"
   xmlns="http://www.w3.org/2000/svg"
   xmlns:sodipodi="http://sodipodi.sourceforge.net/DTD/sodipodi-0.dtd"
   xmlns:inkscape="http://www.inkscape.org/namespaces/inkscape"
   version="1.1"
   x="0px"
   y="0px"
   viewBox="0 0 68.5 14.8"
   enable-background="new 0 0 68.5 14.8"
   xml:space="preserve"
   id="svg2"
   inkscape:version="0.91 r13725"
   sodipodi:docname="logout.svg"><metadata
     id="metadata24"><rdf:RDF><cc:Work
         rdf:about=""><dc:format>image/svg+xml</dc:format><dc:type
           rdf:resource="http://purl.org/dc/dcmitype/StillImage" /></cc:Work></rdf:RDF></metadata><defs
     id="defs22" /><sodipodi:namedview
     pagecolor="#ffffff"
     bordercolor="#666666"
     borderopacity="1"
     objecttolerance="10"
     gridtolerance="10"
     guidetolerance="10"
     inkscape:pageopacity="0"
     inkscape:pageshadow="2"
     inkscape:window-width="1920"
     inkscape:window-height="1017"
     id="namedview20"
     showgrid="false"
     inkscape:zoom="4.2481752"
     inkscape:cx="34.25"
     inkscape:cy="7.4000001"
     inkscape:window-x="-8"
     inkscape:window-y="-8"
     inkscape:window-maximized="1"
     inkscape:current-layer="svg2" /><g
     id="bg"
     display="none"><rect
       x="-47.2"
       y="-56.3"
       display="inline"
       width="447.8"
       height="80.6"
       id="rect5" /></g><g
     style="font-style:normal;font-variant:normal;font-weight:bold;font-stretch:normal;font-size:20px;line-height:125%;font-family:'Project Paintball';-inkscape-font-specification:'Project Paintball Bold';letter-spacing:0px;word-spacing:0px;fill:#ffffff;fill-opacity:1;stroke:none;stroke-width:1px;stroke-linecap:butt;stroke-linejoin:miter;stroke-opacity:1"
     id="text3352"><path
       d="m 3.9701375,0.60025787 4.0775,0 q 0.035,3.83250003 0,11.37500013 l -4.0775,0 q -0.035,-9.1875001 0,-11.37500013 z"
       style="font-size:17.5px;fill:#ffffff"
       id="path3357" /><path
       d="m 14.171544,2.7877579 q 2.24,0 3.3075,1.1725 1.085,1.1725 1.085,3.255 0,2.7125 -1.12,3.8325001 -1.12,1.1025 -3.2725,1.1025 -2.555,0 -3.64,-1.1725 -1.0675002,-1.1725001 -1.0675002,-3.7625001 0,-4.4275 4.7075002,-4.4275 z m 0.595,4.5675 q -0.7,0 -1.015,0.2975 -0.315,0.2975 -0.315,0.9625 0,1.26 1.33,1.26 0.4725,0 0.8575,-0.35 0.4025,-0.35 0.4025,-0.91 0,-0.5775 -0.4025,-0.91 -0.385,-0.35 -0.8575,-0.35 z"
       style="font-size:17.5px;fill:#ffffff"
       id="path3359" /><path
       d="m 21.137911,13.042758 q 0.945,0.21 1.89,0.21 0.9625,0 1.6975,-0.4025 0.735,-0.4025 0.735,-1.1025 l 0,-0.035 q -1.05,0.245 -1.9425,0.245 -3.9025,0 -3.9025,-4.6375001 0,-2.03 1.1725,-3.22 1.19,-1.2075 2.73,-1.2075 0.84,0 1.9425,0.455 l 0,-0.455 3.465,0 0,8.4175001 q 0,1.1375 -0.8225,1.925 -0.8225,0.7875 -2.03,1.0675 -1.2075,0.28 -2.5375,0.2275 -1.33,-0.035 -2.3975,-0.4025 l 0,-1.085 z m 4.3225,-2.9225 0,-2.1525001 q -0.2275,-0.0875 -0.4375,-0.0875 -0.5775,0 -0.945,0.35 -0.35,0.35 -0.35,0.8225 0,0.5075 0.315,0.84 0.3325,0.3325001 0.77,0.3325001 0.2975,0 0.6475,-0.105 z"
       style="font-size:17.5px;fill:#ffffff"
       id="path3361" /><path
       d="m 35.021153,2.7877579 q 2.24,0 3.3075,1.1725 1.085,1.1725 1.085,3.255 0,2.7125 -1.12,3.8325001 -1.12,1.1025 -3.2725,1.1025 -2.555,0 -3.64,-1.1725 -1.0675,-1.1725001 -1.0675,-3.7625001 0,-4.4275 4.7075,-4.4275 z m 0.595,4.5675 q -0.7,0 -1.015,0.2975 -0.315,0.2975 -0.315,0.9625 0,1.26 1.33,1.26 0.4725,0 0.8575,-0.35 0.4025,-0.35 0.4025,-0.91 0,-0.5775 -0.4025,-0.91 -0.385,-0.35 -0.8575,-0.35 z"
       style="font-size:17.5px;fill:#ffffff"
       id="path3363" /><path
       d="m 46.38002,2.8752579 4.13,0 0,9.1000001 -4.13,0 0,-1.3825 q -0.2625,0.6825 -1.0325,1.12 -0.7525,0.4375 -1.6625,0.4375 -1.1725,0 -1.96,-0.735 -0.7875,-0.7525 -0.9275,-2.0300001 -0.28,-2.485 -0.175,-6.51 l 3.8325,0 q -0.105,2.8525 0,4.48 0.035,0.525 0.385,0.805 0.35,0.2625 0.805,0.1575 0.455,-0.1225 0.735,-0.595 l 0,-4.8475 z"
       style="font-size:17.5px;fill:#ffffff"
       id="path3365" /><path
       d="m 52.5567,1.6327579 4.0775,0 0,1.2425 2.7125,0 0,4.5325 -2.7125,0 0,0.385 q 0,1.0675 0.7175,1.6975 0.735,0.6125001 1.995,0.6475001 l 0,1.82 q -1.26,0.105 -2.24,0.0525 -0.98,-0.0525 -1.6975,-0.1225 -0.7175,-0.0875 -1.225,-0.315 -0.5075,-0.2275 -0.8225,-0.455 -0.315,-0.245 -0.49,-0.595 -0.175,-0.35 -0.245,-0.7000001 -0.07,-0.35 -0.07,-0.7875 l 0,-1.6275 -1.12,0 0,-4.5325 1.12,0 0,-1.2425 z"
       style="font-size:17.5px;fill:#ffffff"
       id="path3367" /></g></svg>