<?xml version="1.0" encoding="UTF-8" standalone="no"?>
<!-- Generator: Adobe Illustrator 19.0.0, SVG Export Plug-In . SVG Version: 6.00 Build 0)  -->

<svg
   xmlns:dc="http://purl.org/dc/elements/1.1/"
   xmlns:cc="http://creativecommons.org/ns#"
   xmlns:rdf="http://www.w3.org/1999/02/22-rdf-syntax-ns#"
   xmlns:svg="http://www.w3.org/2000/svg"
   xmlns="http://www.w3.org/2000/svg"
   xmlns:sodipodi="http://sodipodi.sourceforge.net/DTD/sodipodi-0.dtd"
   xmlns:inkscape="http://www.inkscape.org/namespaces/inkscape"
   version="1.1"
   id="レイヤー_1"
   x="0px"
   y="0px"
   viewBox="0 0 190 32"
   style="enable-background:new 0 0 190 32;"
   xml:space="preserve"
   inkscape:version="0.91 r13725"
   sodipodi:docname="messing.svg"><metadata
     id="metadata26"><rdf:RDF><cc:Work
         rdf:about=""><dc:format>image/svg+xml</dc:format><dc:type
           rdf:resource="http://purl.org/dc/dcmitype/StillImage" /><dc:title></dc:title></cc:Work></rdf:RDF></metadata><defs
     id="defs24" /><sodipodi:namedview
     pagecolor="#ffffff"
     bordercolor="#666666"
     borderopacity="1"
     objecttolerance="10"
     gridtolerance="10"
     guidetolerance="10"
     inkscape:pageopacity="0"
     inkscape:pageshadow="2"
     inkscape:window-width="1920"
     inkscape:window-height="1017"
     id="namedview22"
     showgrid="false"
     inkscape:zoom="1.5315789"
     inkscape:cx="95"
     inkscape:cy="16"
     inkscape:window-x="-8"
     inkscape:window-y="-8"
     inkscape:window-maximized="1"
     inkscape:current-layer="レイヤー_1" /><style
     type="text/css"
     id="style3">
	.st0{fill:#FFFFFF;}
</style><g
     style="font-style:normal;font-weight:normal;font-size:40px;line-height:125%;font-family:sans-serif;letter-spacing:0px;word-spacing:0px;fill:#ffffff;fill-opacity:1;stroke:none;stroke-width:1px;stroke-linecap:butt;stroke-linejoin:miter;stroke-opacity:1"
     id="text3410"><path
       d="m 15.210441,8.8532646 0,5.0800004 q -2.54,-0.56 -2.54,0.5 0,0.58 0.26,0.92 0.26,0.32 0.62,0.5 0.38,0.16 0.76,0.4 0.38,0.22 0.64,0.78 0.26,0.56 0.26,1.46 0,1 -0.8,1.74 -0.78,0.74 -1.98,1.08 -1.2,0.34 -2.5399998,0.42 -1.32,0.1 -2.5,-0.1 -1.18,-0.2 -1.82,-0.6 l 0,-2.16 q 1.76,0.5 3.16,0.42 1.3999998,-0.08 1.3999998,-0.8 0,-0.5 -0.2599998,-0.78 -0.24,-0.28 -0.64,-0.38 -0.4,-0.1 -0.9,-0.18 -0.48,-0.08 -0.98,-0.28 -0.48,-0.22 -0.88,-0.62 -0.4,-0.4 -0.66,-1.24 -0.24,-0.86 -0.24,-2.1 0,-1.62 1.04,-2.7 1.06,-1.1000004 2.58,-1.4800004 1.5199998,-0.4 3.1399998,-0.36 1.62,0.02 2.88,0.48 z"
       style="font-style:normal;font-variant:normal;font-weight:bold;font-stretch:normal;font-size:20px;font-family:'Project Paintball';-inkscape-font-specification:'Project Paintball Bold';fill:#ffffff"
       id="path3415" /><path
       d="m 27.110129,11.193265 0,12.92 -4.28,0 0,-2.54 q -0.6,0.02 -1.28,-0.04 -0.66,-0.08 -1.54,-0.4 -0.88,-0.32 -1.56,-0.86 -0.66,-0.54 -1.14,-1.56 -0.46,-1.04 -0.46,-2.4 0,-2.78 1.66,-4 1.66,-1.22 4.52,-1.12 l 4.08,0 z m -4.28,5.8 q -0.64,-0.34 -1.32,-0.16 -0.68,0.18 -0.68,0.9 0,0.8 0.62,1.2 0.64,0.4 1.38,0.34 l 0,-2.28 z"
       style="font-style:normal;font-variant:normal;font-weight:bold;font-stretch:normal;font-size:20px;font-family:'Project Paintball';-inkscape-font-specification:'Project Paintball Bold';fill:#ffffff"
       id="path3417" /><path
       d="m 35.485129,11.153265 4.72,0 0,10.4 -4.72,0 0,-1.58 q -0.3,0.78 -1.18,1.28 -0.86,0.5 -1.9,0.5 -1.34,0 -2.24,-0.84 -0.9,-0.86 -1.06,-2.32 -0.32,-2.84 -0.2,-7.44 l 4.38,0 q -0.12,3.26 0,5.12 0.04,0.6 0.44,0.92 0.4,0.3 0.92,0.18 0.52,-0.14 0.84,-0.68 l 0,-5.54 z"
       style="font-style:normal;font-variant:normal;font-weight:bold;font-stretch:normal;font-size:20px;font-family:'Project Paintball';-inkscape-font-specification:'Project Paintball Bold';fill:#ffffff"
       id="path3419" /><path
       d="m 41.664191,8.5532646 4.48,0 0,2.0000004 -4.48,0 0,-2.0000004 z m 4.48,3.1800004 0,9.82 -4.48,0 0,-9.82 4.48,0 z"
       style="font-style:normal;font-variant:normal;font-weight:bold;font-stretch:normal;font-size:20px;font-family:'Project Paintball';-inkscape-font-specification:'Project Paintball Bold';fill:#ffffff"
       id="path3421" /><path
       d="m 57.747629,8.5532646 0,13.0000004 -4.26,0 0,-0.14 q -2.74,0.54 -4.22,-0.66 -1.48,-1.22 -1.48,-4.12 0,-1.08 0.34,-1.94 0.36,-0.88 0.92,-1.42 0.58,-0.56 1.32,-0.9 0.76,-0.36 1.54,-0.46 0.8,-0.12 1.58,-0.04 l 0,-3.3200004 4.26,0 z m -4.26,8.2000004 q -0.64,-0.14 -1.18,0.16 -0.52,0.28 -0.52,0.94 0,1.54 1.7,1.28 l 0,-2.38 z"
       style="font-style:normal;font-variant:normal;font-weight:bold;font-stretch:normal;font-size:20px;font-family:'Project Paintball';-inkscape-font-specification:'Project Paintball Bold';fill:#ffffff"
       id="path3423" /><path
       d="m 69.310129,8.5532646 0,13.0000004 -4.26,0 0,-0.14 q -2.74,0.54 -4.22,-0.66 -1.48,-1.22 -1.48,-4.12 0,-1.08 0.34,-1.94 0.36,-0.88 0.92,-1.42 0.58,-0.56 1.32,-0.9 0.76,-0.36 1.54,-0.46 0.8,-0.12 1.58,-0.04 l 0,-3.3200004 4.26,0 z m -4.26,8.2000004 q -0.64,-0.14 -1.18,0.16 -0.52,0.28 -0.52,0.94 0,1.54 1.7,1.28 l 0,-2.38 z"
       style="font-style:normal;font-variant:normal;font-weight:bold;font-stretch:normal;font-size:20px;font-family:'Project Paintball';-inkscape-font-specification:'Project Paintball Bold';fill:#ffffff"
       id="path3425" /><path
       d="m 71.312629,8.5532646 4.48,0 0,2.0000004 -4.48,0 0,-2.0000004 z m 4.48,3.1800004 0,9.82 -4.48,0 0,-9.82 4.48,0 z"
       style="font-style:normal;font-variant:normal;font-weight:bold;font-stretch:normal;font-size:20px;font-family:'Project Paintball';-inkscape-font-specification:'Project Paintball Bold';fill:#ffffff"
       id="path3427" /><path
       d="m 88.656066,21.553265 -3.98,0 0,-4.56 q 0,-0.8 -0.74,-1.12 -0.74,-0.32 -1.26,0.18 l 0,5.5 -4.84,0 0,-10.4 4.84,0 0,2.04 q 0.44,-1.06 1.02,-1.62 0.58,-0.56 1.54,-0.56 1.36,0 2.38,1.04 1.02,1.02 1.04,2.48 l 0,7.02 z"
       style="font-style:normal;font-variant:normal;font-weight:bold;font-stretch:normal;font-size:20px;font-family:'Project Paintball';-inkscape-font-specification:'Project Paintball Bold';fill:#ffffff"
       id="path3429" /><path
       d="m 91.988566,22.773265 q 1.08,0.24 2.16,0.24 1.1,0 1.94,-0.46 0.84,-0.46 0.84,-1.26 l 0,-0.04 q -1.2,0.28 -2.22,0.28 -4.46,0 -4.46,-5.3 0,-2.32 1.34,-3.68 1.36,-1.38 3.12,-1.38 0.96,0 2.22,0.52 l 0,-0.52 3.960004,0 0,9.62 q 0,1.3 -0.940004,2.2 -0.94,0.9 -2.32,1.22 -1.38,0.32 -2.9,0.26 -1.52,-0.04 -2.74,-0.46 l 0,-1.24 z m 4.94,-3.34 0,-2.46 q -0.26,-0.1 -0.5,-0.1 -0.66,0 -1.08,0.4 -0.4,0.4 -0.4,0.94 0,0.58 0.36,0.96 0.38,0.38 0.88,0.38 0.34,0 0.74,-0.12 z"
       style="font-style:normal;font-variant:normal;font-weight:bold;font-stretch:normal;font-size:20px;font-family:'Project Paintball';-inkscape-font-specification:'Project Paintball Bold';fill:#ffffff"
       id="path3431" /><path
       d="m 109.88294,21.553265 3.72,-13.0000004 4.36,0 4.12,13.0000004 -3.16,0 -0.38,-1.36 -3.28,0 -0.36,1.36 -5.02,0 z m 6,-3.62 2.02,0 -1.04,-3.66 -0.98,3.66 z"
       style="font-style:normal;font-variant:normal;font-weight:bold;font-stretch:normal;font-size:20px;font-family:'Project Paintball';-inkscape-font-specification:'Project Paintball Bold';fill:#ffffff"
       id="path3433" /><path
       d="m 127.83044,12.313265 q 0.54,-0.68 1.28,-0.94 0.76,-0.28 1.52,-0.06 l 0,2.68 q -1.88,0.1 -2.8,1.54 l 0,6.02 -4.76,0 0,-10.4 4.76,0 0,1.16 z"
       style="font-style:normal;font-variant:normal;font-weight:bold;font-stretch:normal;font-size:20px;font-family:'Project Paintball';-inkscape-font-specification:'Project Paintball Bold';fill:#ffffff"
       id="path3435" /><path
       d="m 137.03482,11.053265 q 2.56,0 3.78,1.34 1.24,1.34 1.24,3.72 0,3.1 -1.28,4.38 -1.28,1.26 -3.74,1.26 -2.92,0 -4.16,-1.34 -1.22,-1.34 -1.22,-4.3 0,-5.06 5.38,-5.06 z m 0.68,5.22 q -0.8,0 -1.16,0.34 -0.36,0.34 -0.36,1.1 0,1.44 1.52,1.44 0.54,0 0.98,-0.4 0.46,-0.4 0.46,-1.04 0,-0.66 -0.46,-1.04 -0.44,-0.4 -0.98,-0.4 z"
       style="font-style:normal;font-variant:normal;font-weight:bold;font-stretch:normal;font-size:20px;font-family:'Project Paintball';-inkscape-font-specification:'Project Paintball Bold';fill:#ffffff"
       id="path3437" /><path
       d="m 150.01638,11.153265 4.72,0 0,10.4 -4.72,0 0,-1.58 q -0.3,0.78 -1.18,1.28 -0.86,0.5 -1.9,0.5 -1.34,0 -2.24,-0.84 -0.9,-0.86 -1.06,-2.32 -0.32,-2.84 -0.2,-7.44 l 4.38,0 q -0.12,3.26 0,5.12 0.04,0.6 0.44,0.92 0.4,0.3 0.92,0.18 0.52,-0.14 0.84,-0.68 l 0,-5.54 z"
       style="font-style:normal;font-variant:normal;font-weight:bold;font-stretch:normal;font-size:20px;font-family:'Project Paintball';-inkscape-font-specification:'Project Paintball Bold';fill:#ffffff"
       id="path3439" /><path
       d="m 167.01544,21.553265 -3.98,0 0,-4.56 q 0,-0.8 -0.74,-1.12 -0.74,-0.32 -1.26,0.18 l 0,5.5 -4.84,0 0,-10.4 4.84,0 0,2.04 q 0.44,-1.06 1.02,-1.62 0.58,-0.56 1.54,-0.56 1.36,0 2.38,1.04 1.02,1.02 1.04,2.48 l 0,7.02 z"
       style="font-style:normal;font-variant:normal;font-weight:bold;font-stretch:normal;font-size:20px;font-family:'Project Paintball';-inkscape-font-specification:'Project Paintball Bold';fill:#ffffff"
       id="path3441" /><path
       d="m 178.56794,8.5532646 0,13.0000004 -4.26,0 0,-0.14 q -2.74,0.54 -4.22,-0.66 -1.48,-1.22 -1.48,-4.12 0,-1.08 0.34,-1.94 0.36,-0.88 0.92,-1.42 0.58,-0.56 1.32,-0.9 0.76,-0.36 1.54,-0.46 0.8,-0.12 1.58,-0.04 l 0,-3.3200004 4.26,0 z m -4.26,8.2000004 q -0.64,-0.14 -1.18,0.16 -0.52,0.28 -0.52,0.94 0,1.54 1.7,1.28 l 0,-2.38 z"
       style="font-style:normal;font-variant:normal;font-weight:bold;font-stretch:normal;font-size:20px;font-family:'Project Paintball';-inkscape-font-specification:'Project Paintball Bold';fill:#ffffff"
       id="path3443" /><path
       d="m 180.93044,19.033265 4.42,0 0,2.52 -4.42,0 0,-2.52 z m -0.96,-10.4800004 6.64,0 -1.26,9.2200004 -4.42,0 -0.96,-9.2200004 z"
       style="font-style:normal;font-variant:normal;font-weight:bold;font-stretch:normal;font-size:20px;font-family:'Project Paintball';-inkscape-font-specification:'Project Paintball Bold';fill:#ffffff"
       id="path3445" /></g></svg>