<?xml version="1.0" encoding="UTF-8" standalone="no"?>
<!-- Generator: Adobe Illustrator 19.0.0, SVG Export Plug-In . SVG Version: 6.00 Build 0)  -->

<svg
   xmlns:dc="http://purl.org/dc/elements/1.1/"
   xmlns:cc="http://creativecommons.org/ns#"
   xmlns:rdf="http://www.w3.org/1999/02/22-rdf-syntax-ns#"
   xmlns:svg="http://www.w3.org/2000/svg"
   xmlns="http://www.w3.org/2000/svg"
   xmlns:sodipodi="http://sodipodi.sourceforge.net/DTD/sodipodi-0.dtd"
   xmlns:inkscape="http://www.inkscape.org/namespaces/inkscape"
   version="1.1"
   id="レイヤー_1"
   x="0px"
   y="0px"
   viewBox="0 0 194 30"
   style="enable-background:new 0 0 194 30;"
   xml:space="preserve"
   inkscape:version="0.91 r13725"
   sodipodi:docname="playing.svg"><metadata
     id="metadata23"><rdf:RDF><cc:Work
         rdf:about=""><dc:format>image/svg+xml</dc:format><dc:type
           rdf:resource="http://purl.org/dc/dcmitype/StillImage" /></cc:Work></rdf:RDF></metadata><defs
     id="defs21" /><sodipodi:namedview
     pagecolor="#ffffff"
     bordercolor="#666666"
     borderopacity="1"
     objecttolerance="10"
     gridtolerance="10"
     guidetolerance="10"
     inkscape:pageopacity="0"
     inkscape:pageshadow="2"
     inkscape:window-width="1920"
     inkscape:window-height="1017"
     id="namedview19"
     showgrid="false"
     inkscape:zoom="3"
     inkscape:cx="135.48485"
     inkscape:cy="0.73451182"
     inkscape:window-x="-8"
     inkscape:window-y="-8"
     inkscape:window-maximized="1"
     inkscape:current-layer="レイヤー_1" /><style
     type="text/css"
     id="style3">
	.st0{fill:#FF6E00;}
</style><g
     style="font-style:normal;font-variant:normal;font-weight:bold;font-stretch:normal;font-size:17.5px;line-height:125%;font-family:'Project Paintball';-inkscape-font-specification:'Project Paintball Bold';letter-spacing:0px;word-spacing:0px;fill:#ff6e00;fill-opacity:1;stroke:none;stroke-width:1px;stroke-linecap:butt;stroke-linejoin:miter;stroke-opacity:1"
     id="text3351"
     transform="matrix(1.2378828,0,0,1.3529422,-2.3505797,-5.4341288)"><path
       d="m 2.8750002,21.298334 0,-11.235 q 3.5525,-0.35 4.585,-0.3325 2.7299998,0.0175 3.8149998,1.3825 0.9975,1.2425 0.9975,3.85 0,1.2775 -0.42,2.135 -0.4025,0.84 -1.155,1.225 -0.7524998,0.3675 -1.5399998,0.4725 -0.7875,0.105 -1.8025,0.0175 l 0,2.52 -4.48,-0.035 z m 4.48,-4.515 q 0.6125,0.0525 1.0675,-0.1575 0.4725,-0.2275 0.4725,-0.77 0,-1.295 -1.54,-0.8575 l 0,1.785 z"
       id="path3356"
       inkscape:connector-curvature="0" /><path
       d="m 13.710781,9.958334 4.0775,0 q 0.035,3.8325 0,11.375 l -4.0775,0 q -0.035,-9.1875 0,-11.375 z"
       id="path3358"
       inkscape:connector-curvature="0" /><path
       d="m 24.192188,19.670834 0,-1.33 q 0,-0.175 -0.2625,-0.35 -0.2625,-0.175 -0.49,-0.14 -0.3675,0.035 -0.6825,0.35 -0.315,0.2975 -0.315,0.6475 0,0.35 0.315,0.63 0.315,0.2625 0.6825,0.2625 0.49,0 0.7525,-0.07 z m 0,1.5575 q -0.6475,0.175 -1.4,0.175 -1.7675,0 -2.6775,-0.7175 -0.91,-0.7175 -0.91,-2.345 0,-1.155 0.9275,-1.9425 0.945,-0.7875 2.555,-0.7875 0.21,0 0.735,0.07 0.525,0.07 0.77,0.07 l 0,-0.49 q 0,-0.455 -0.56,-0.665 -0.56,-0.21 -1.19,-0.21 -1.085,0 -1.6625,0.07 -0.56,0.07 -1.1375,0.315 l 0,-1.225 q 1.4,-1.4 4.55,-1.4 1.5925,0 2.66,1.05 1.0675,1.05 1.0675,2.3275 l 0,5.81 q -1.855,0.1225 -3.7275,0 l 0,-0.105 z"
       id="path3360"
       inkscape:connector-curvature="0" /><path
       d="m 28.971875,12.233334 4.305,0 1.5925,3.8675 q 0.7525,-2.0475 1.3475,-3.8675 l 2.765,0 q -1.4525,4.8125 -4.165,11.2875 l -2.9225,0 0.945,-2.31 -3.8675,-8.9775 z"
       id="path3362"
       inkscape:connector-curvature="0" /><path
       d="m 40.028321,9.958334 3.92,0 0,1.75 -3.92,0 0,-1.75 z m 3.92,2.7825 0,8.5925 -3.92,0 0,-8.5925 3.92,0 z"
       id="path3364"
       inkscape:connector-curvature="0" /><path
       d="m 55.203828,21.333334 -3.4825,0 0,-3.99 q 0,-0.7 -0.6475,-0.98 -0.6475,-0.28 -1.1025,0.1575 l 0,4.8125 -4.235,0 0,-9.1 4.235,0 0,1.785 q 0.385,-0.9275 0.8925,-1.4175 0.5075,-0.49 1.3475,-0.49 1.19,0 2.0825,0.91 0.8925,0.8925 0.91,2.17 l 0,6.1425 z"
       id="path3366"
       inkscape:connector-curvature="0" /><path
       d="m 58.119766,22.400834 q 0.945,0.21 1.89,0.21 0.9625,0 1.6975,-0.4025 0.735,-0.4025 0.735,-1.1025 l 0,-0.035 q -1.05,0.245 -1.9425,0.245 -3.9025,0 -3.9025,-4.6375 0,-2.03 1.1725,-3.22 1.19,-1.2075 2.73,-1.2075 0.84,0 1.9425,0.455 l 0,-0.455 3.465,0 0,8.4175 q 0,1.1375 -0.8225,1.925 -0.8225,0.7875 -2.03,1.0675 -1.2075,0.28 -2.5375,0.2275 -1.33,-0.035 -2.3975,-0.4025 l 0,-1.085 z m 4.3225,-2.9225 0,-2.1525 q -0.2275,-0.0875 -0.4375,-0.0875 -0.5775,0 -0.945,0.35 -0.35,0.35 -0.35,0.8225 0,0.5075 0.315,0.84 0.3325,0.3325 0.77,0.3325 0.2975,0 0.6475,-0.105 z"
       id="path3368"
       inkscape:connector-curvature="0" /><path
       d="m 83.087344,10.220834 0,4.445 q -2.2225,-0.49 -2.2225,0.4375 0,0.5075 0.2275,0.805 0.2275,0.28 0.5425,0.4375 0.3325,0.14 0.665,0.35 0.3325,0.1925 0.56,0.6825 0.2275,0.49 0.2275,1.2775 0,0.875 -0.7,1.5225 -0.6825,0.6475 -1.7325,0.945 -1.05,0.2975 -2.2225,0.3675 -1.155,0.0875 -2.1875,-0.0875 -1.0325,-0.175 -1.5925,-0.525 l 0,-1.89 q 1.54,0.4375 2.765,0.3675 1.225,-0.07 1.225,-0.7 0,-0.4375 -0.2275,-0.6825 -0.21,-0.245 -0.56,-0.3325 -0.35,-0.0875 -0.7875,-0.1575 -0.42,-0.07 -0.8575,-0.245 -0.42,-0.1925 -0.77,-0.5425 -0.35,-0.35 -0.5775,-1.085 -0.21,-0.7525 -0.21,-1.8375 0,-1.4175 0.91,-2.3625 0.9275,-0.9625 2.2575,-1.295 1.33,-0.35 2.7475,-0.315 1.4175,0.0175 2.52,0.42 z"
       id="path3370"
       inkscape:connector-curvature="0" /><path
       d="m 88.617071,21.350834 0,2.2225 -3.745,0 0,-11.305 3.57,0 q 2.5025,-0.0875 3.955,0.98 1.4525,1.0675 1.4525,3.5 0,1.19 -0.42,2.1 -0.4025,0.8925 -0.9975,1.365 -0.5775,0.4725 -1.3475,0.7525 -0.77,0.28 -1.365,0.35 -0.5775,0.0525 -1.1025,0.035 z m 0,-2.0125 q 0.6475,0.0525 1.19,-0.2975 0.56,-0.35 0.56,-1.05 0,-0.63 -0.595,-0.7875 -0.595,-0.1575 -1.155,0.14 l 0,1.995 z"
       id="path3372"
       inkscape:connector-curvature="0" /><path
       d="m 95.297696,9.958334 4.0775,0 q 0.035,3.8325 0,11.375 l -4.0775,0 q -0.035,-9.1875 0,-11.375 z"
       id="path3374"
       inkscape:connector-curvature="0" /><path
       d="m 105.7791,19.670834 0,-1.33 q 0,-0.175 -0.2625,-0.35 -0.2625,-0.175 -0.49,-0.14 -0.3675,0.035 -0.6825,0.35 -0.315,0.2975 -0.315,0.6475 0,0.35 0.315,0.63 0.315,0.2625 0.6825,0.2625 0.49,0 0.7525,-0.07 z m 0,1.5575 q -0.6475,0.175 -1.4,0.175 -1.7675,0 -2.6775,-0.7175 -0.91,-0.7175 -0.91,-2.345 0,-1.155 0.9275,-1.9425 0.945,-0.7875 2.555,-0.7875 0.21,0 0.735,0.07 0.525,0.07 0.77,0.07 l 0,-0.49 q 0,-0.455 -0.56,-0.665 -0.56,-0.21 -1.19,-0.21 -1.085,0 -1.6625,0.07 -0.56,0.07 -1.1375,0.315 l 0,-1.225 q 1.4,-1.4 4.55,-1.4 1.5925,0 2.66,1.05 1.0675,1.05 1.0675,2.3275 l 0,5.81 q -1.855,0.1225 -3.7275,0 l 0,-0.105 z"
       id="path3376"
       inkscape:connector-curvature="0" /><path
       d="m 112.02879,10.990834 4.0775,0 0,1.2425 2.7125,0 0,4.5325 -2.7125,0 0,0.385 q 0,1.0675 0.7175,1.6975 0.735,0.6125 1.995,0.6475 l 0,1.82 q -1.26,0.105 -2.24,0.0525 -0.98,-0.0525 -1.6975,-0.1225 -0.7175,-0.0875 -1.225,-0.315 -0.5075,-0.2275 -0.8225,-0.455 -0.315,-0.245 -0.49,-0.595 -0.175,-0.35 -0.245,-0.7 -0.07,-0.35 -0.07,-0.7875 l 0,-1.6275 -1.12,0 0,-4.5325 1.12,0 0,-1.2425 z"
       id="path3378"
       inkscape:connector-curvature="0" /><path
       d="m 124.57137,12.145834 q 2.24,0 3.3075,1.1725 1.085,1.1725 1.085,3.255 0,2.7125 -1.12,3.8325 -1.12,1.1025 -3.2725,1.1025 -2.555,0 -3.64,-1.1725 -1.0675,-1.1725 -1.0675,-3.7625 0,-4.4275 4.7075,-4.4275 z m 0.595,4.5675 q -0.7,0 -1.015,0.2975 -0.315,0.2975 -0.315,0.9625 0,1.26 1.33,1.26 0.4725,0 0.8575,-0.35 0.4025,-0.35 0.4025,-0.91 0,-0.5775 -0.4025,-0.91 -0.385,-0.35 -0.8575,-0.35 z"
       id="path3380"
       inkscape:connector-curvature="0" /><path
       d="m 134.72273,12.145834 q 2.24,0 3.3075,1.1725 1.085,1.1725 1.085,3.255 0,2.7125 -1.12,3.8325 -1.12,1.1025 -3.2725,1.1025 -2.555,0 -3.64,-1.1725 -1.0675,-1.1725 -1.0675,-3.7625 0,-4.4275 4.7075,-4.4275 z m 0.595,4.5675 q -0.7,0 -1.015,0.2975 -0.315,0.2975 -0.315,0.9625 0,1.26 1.33,1.26 0.4725,0 0.8575,-0.35 0.4025,-0.35 0.4025,-0.91 0,-0.5775 -0.4025,-0.91 -0.385,-0.35 -0.8575,-0.35 z"
       id="path3382"
       inkscape:connector-curvature="0" /><path
       d="m 149.9841,21.333334 -3.4825,0 0,-3.99 q 0,-0.7 -0.6475,-0.98 -0.6475,-0.28 -1.1025,0.1575 l 0,4.8125 -4.235,0 0,-9.1 4.235,0 0,1.785 q 0.385,-0.9275 0.8925,-1.4175 0.5075,-0.49 1.3475,-0.49 1.19,0 2.0825,0.91 0.8925,0.8925 0.91,2.17 l 0,6.1425 z"
       id="path3384"
       inkscape:connector-curvature="0" /><path
       d="m 152.04254,19.128334 3.8675,0 0,2.205 -3.8675,0 0,-2.205 z m -0.84,-9.17 5.81,0 -1.1025,8.0675 -3.8675,0 -0.84,-8.0675 z"
       id="path3386"
       inkscape:connector-curvature="0" /></g></svg>