<?xml version="1.0" encoding="UTF-8" standalone="no"?>
<!-- Generator: Adobe Illustrator 17.1.0, SVG Export Plug-In . SVG Version: 6.00 Build 0)  -->

<svg
   xmlns:dc="http://purl.org/dc/elements/1.1/"
   xmlns:cc="http://creativecommons.org/ns#"
   xmlns:rdf="http://www.w3.org/1999/02/22-rdf-syntax-ns#"
   xmlns:svg="http://www.w3.org/2000/svg"
   xmlns="http://www.w3.org/2000/svg"
   xmlns:sodipodi="http://sodipodi.sourceforge.net/DTD/sodipodi-0.dtd"
   xmlns:inkscape="http://www.inkscape.org/namespaces/inkscape"
   version="1.1"
   x="0px"
   y="0px"
   viewBox="0 0 82.6 30.8"
   enable-background="new 0 0 82.6 30.8"
   xml:space="preserve"
   id="svg2"
   inkscape:version="0.91 r13725"
   sodipodi:docname="rank.svg"><metadata
     id="metadata22"><rdf:RDF><cc:Work
         rdf:about=""><dc:format>image/svg+xml</dc:format><dc:type
           rdf:resource="http://purl.org/dc/dcmitype/StillImage" /></cc:Work></rdf:RDF></metadata><defs
     id="defs20" /><sodipodi:namedview
     pagecolor="#ffffff"
     bordercolor="#666666"
     borderopacity="1"
     objecttolerance="10"
     gridtolerance="10"
     guidetolerance="10"
     inkscape:pageopacity="0"
     inkscape:pageshadow="2"
     inkscape:window-width="1920"
     inkscape:window-height="1017"
     id="namedview18"
     showgrid="false"
     inkscape:zoom="3.5230025"
     inkscape:cx="41.299999"
     inkscape:cy="15.4"
     inkscape:window-x="-8"
     inkscape:window-y="-8"
     inkscape:window-maximized="1"
     inkscape:current-layer="text3350" /><g
     id="bg"
     display="none"><rect
       y="-51.2"
       display="inline"
       width="447.8"
       height="80.6"
       id="rect5" /></g><g
     style="font-style:normal;font-weight:normal;font-size:40px;line-height:125%;font-family:sans-serif;letter-spacing:0px;word-spacing:0px;fill:#ff4e00;fill-opacity:1;stroke:none;stroke-width:1px;stroke-linecap:butt;stroke-linejoin:miter;stroke-opacity:1"
     id="text3350"><path
       d="m 1.4088472,23.419931 0,-14.5574997 q 5.22,-0.2925 6.8625,-0.2025 3.9374998,0.225 5.3774998,2.1149997 1.0575,1.4175 1.0575,3.9375 0,2.9925 -2.79,4.32 l 2.3175,4.3875 -4.1175,0 -1.4399998,-3.6 q -0.81,0.0675 -1.7775,0.0225 l 0,3.5775 -5.49,0 z m 5.49,-5.355 q 1.3275,0.09 2.2725,-0.405 0.9449998,-0.495 0.9449998,-1.575 0,-0.7875 -0.4499998,-1.305 -0.4275,-0.5175 -1.3725,-0.5175 -0.6525,0 -1.395,0.2025 l 0,3.6 z"
       style="font-style:normal;font-variant:normal;font-weight:bold;font-stretch:normal;font-size:22.5px;font-family:'Project Paintball';-inkscape-font-specification:'Project Paintball Bold';fill:#ff4e00;fill-opacity:1"
       id="path3355"
       inkscape:connector-curvature="0" /><path
       d="m 22.444589,21.282431 0,-1.71 q 0,-0.225 -0.3375,-0.45 -0.3375,-0.225 -0.63,-0.18 -0.4725,0.045 -0.8775,0.45 -0.405,0.3825 -0.405,0.8325 0,0.45 0.405,0.81 0.405,0.3375 0.8775,0.3375 0.63,0 0.9675,-0.09 z m 0,2.0025 q -0.8325,0.225 -1.8,0.225 -2.2725,0 -3.4425,-0.9225 -1.17,-0.9225 -1.17,-3.015 0,-1.485 1.1925,-2.4975 1.215,-1.0125 3.285,-1.0125 0.27,0 0.945,0.09 0.675,0.09 0.99,0.09 l 0,-0.63 q 0,-0.585 -0.72,-0.855 -0.72,-0.27 -1.53,-0.27 -1.395,0 -2.1375,0.09 -0.72,0.09 -1.4625,0.405 l 0,-1.575 q 1.8,-1.8 5.85,-1.8 2.0475,0 3.42,1.35 1.3725,1.35 1.3725,2.9925 l 0,7.47 q -2.385,0.1575 -4.7925,0 l 0,-0.135 z"
       style="font-style:normal;font-variant:normal;font-weight:bold;font-stretch:normal;font-size:22.5px;font-family:'Project Paintball';-inkscape-font-specification:'Project Paintball Bold';fill:#ff4e00;fill-opacity:1"
       id="path3357"
       inkscape:connector-curvature="0" /><path
       d="m 41.662402,23.419931 -4.4775,0 0,-5.13 q 0,-0.9 -0.8325,-1.26 -0.8325,-0.36 -1.4175,0.2025 l 0,6.1875 -5.445,0 0,-11.7 5.445,0 0,2.295 q 0.495,-1.1925 1.1475,-1.8225 0.6525,-0.63 1.7325,-0.63 1.53,0 2.6775,1.17 1.1475,1.1475 1.17,2.79 l 0,7.8975 z"
       style="font-style:normal;font-variant:normal;font-weight:bold;font-stretch:normal;font-size:22.5px;font-family:'Project Paintball';-inkscape-font-specification:'Project Paintball Bold';fill:#ff4e00;fill-opacity:1"
       id="path3359"
       inkscape:connector-curvature="0" /><path
       d="m 51.778964,11.719931 3.645,0 -2.7675,5.3325 3.2175,6.3675 -4.7025,0 -2.07,-4.32 0,4.32 -5.1975,0 0,-14.6249997 5.1975,0 0,7.8299997 2.6775,-4.905 z"
       style="font-style:normal;font-variant:normal;font-weight:bold;font-stretch:normal;font-size:22.5px;font-family:'Project Paintball';-inkscape-font-specification:'Project Paintball Bold';fill:#ff4e00;fill-opacity:1"
       id="path3361"
       inkscape:connector-curvature="0" /></g></svg>