<?xml version="1.0" encoding="UTF-8" standalone="no"?>
<!-- Generator: Adobe Illustrator 19.0.0, SVG Export Plug-In . SVG Version: 6.00 Build 0)  -->

<svg
   xmlns:dc="http://purl.org/dc/elements/1.1/"
   xmlns:cc="http://creativecommons.org/ns#"
   xmlns:rdf="http://www.w3.org/1999/02/22-rdf-syntax-ns#"
   xmlns:svg="http://www.w3.org/2000/svg"
   xmlns="http://www.w3.org/2000/svg"
   xmlns:sodipodi="http://sodipodi.sourceforge.net/DTD/sodipodi-0.dtd"
   xmlns:inkscape="http://www.inkscape.org/namespaces/inkscape"
   version="1.1"
   id="レイヤー_1"
   x="0px"
   y="0px"
   viewBox="-26 31.1 70.4 20.9"
   style="enable-background:new -26 31.1 70.4 20.9;"
   xml:space="preserve"
   inkscape:version="0.91 r13725"
   sodipodi:docname="rule.svg"><metadata
     id="metadata21"><rdf:RDF><cc:Work
         rdf:about=""><dc:format>image/svg+xml</dc:format><dc:type
           rdf:resource="http://purl.org/dc/dcmitype/StillImage" /></cc:Work></rdf:RDF></metadata><defs
     id="defs19" /><sodipodi:namedview
     pagecolor="#ffffff"
     bordercolor="#666666"
     borderopacity="1"
     objecttolerance="10"
     gridtolerance="10"
     guidetolerance="10"
     inkscape:pageopacity="0"
     inkscape:pageshadow="2"
     inkscape:window-width="1920"
     inkscape:window-height="1017"
     id="namedview17"
     showgrid="false"
     inkscape:zoom="4.1335226"
     inkscape:cx="35.200001"
     inkscape:cy="10.45"
     inkscape:window-x="-8"
     inkscape:window-y="-8"
     inkscape:window-maximized="1"
     inkscape:current-layer="レイヤー_1" /><style
     type="text/css"
     id="style3">
	.st0{display:none;}
	.st1{display:inline;}
	.st2{fill:#FFFFFF;}
</style><g
     id="bg"
     class="st0"><rect
       x="-26"
       y="-29.2"
       class="st1"
       width="447.8"
       height="80.6"
       id="rect6" /></g><g
     style="font-style:normal;font-variant:normal;font-weight:bold;font-stretch:normal;font-size:25px;line-height:125%;font-family:'Project Paintball';-inkscape-font-specification:'Project Paintball Bold';letter-spacing:0px;word-spacing:0px;fill:#ffffff;fill-opacity:1;stroke:none;stroke-width:1px;stroke-linecap:butt;stroke-linejoin:miter;stroke-opacity:1"
     id="text3349"><path
       d="m -24.266151,49.580757 0,-16.175 q 5.8,-0.325 7.625,-0.225 4.375,0.25 5.975,2.35 1.1749996,1.575 1.1749996,4.375 0,3.325 -3.0999996,4.8 l 2.575,4.875 -4.575,0 -1.6,-4 q -0.9,0.075 -1.975,0.025 l 0,3.975 -6.1,0 z m 6.1,-5.95 q 1.475,0.1 2.525,-0.45 1.05,-0.55 1.05,-1.75 0,-0.875 -0.5,-1.45 -0.475,-0.575 -1.525,-0.575 -0.725,0 -1.55,0.225 l 0,4 z"
       style=""
       id="path3354" /><path
       d="m 0.43189545,36.580757 5.89999995,0 0,13 -5.89999995,0 0,-1.975 q -0.375,0.975 -1.47500005,1.6 -1.075,0.625 -2.375,0.625 -1.675,0 -2.8,-1.05 -1.125,-1.075 -1.325,-2.9 -0.4,-3.55 -0.25,-9.3 l 5.475,0 q -0.15,4.075 0,6.4 0.05,0.75 0.55,1.15 0.5,0.375 1.15000005,0.225 0.65,-0.175 1.05,-0.85 l 0,-6.925 z"
       style=""
       id="path3356" /><path
       d="m 8.2057236,33.330757 5.8250004,0 q 0.05,5.475 0,16.25 l -5.8250004,0 q -0.05,-13.125 0,-16.25 z"
       style=""
       id="path3358" /><path
       d="m 23.004161,36.480757 q 3.525,0 5.3,1.925 1.775,1.9 1.35,5.375 l -7.725,0 q 0,1.4 0.75,2.125 0.775,0.7 1.8,0.7 1.025,0 1.875,-0.35 0.875,-0.35 1.2,-1.05 l 1.9,0 q -0.275,1.925 -2.075,3.225 -1.775,1.3 -4.375,1.3 -2.825,0 -4.9,-1.8 -2.05,-1.825 -2.05,-4.875 0,-3.1 1.95,-4.825 1.95,-1.75 5,-1.75 z m 0.95,3.025 q -0.65,0 -1.35,0.575 -0.675,0.575 -0.675,1.55 l 3.8,0 q 0.275,-0.95 -0.4,-1.525 -0.675,-0.6 -1.375,-0.6 z"
       style=""
       id="path3360" /><path
       d="m 31.864708,48.955757 0,-2 q 1.5,0.375 2.375,0.375 2.3,0 2.3,-1.075 0,-0.275 -0.5,-0.45 -0.5,-0.2 -1.2,-0.425 -0.7,-0.225 -1.4,-0.575 -0.7,-0.35 -1.2,-1.15 -0.5,-0.825 -0.5,-2.025 0,-5.175 6.05,-5.175 2.875,0 4.325,0.25 l 0,5.5 q -0.175,-0.125 -0.625,-0.175 -0.425,-0.075 -0.775,-0.05 l -0.35,0 q -0.8,0 -0.8,0.725 0,0.35 0.4,0.7 0.425,0.35 0.925,0.625 0.525,0.275 0.925,0.775 0.425,0.5 0.425,1.1 0,2 -2,2.9 -2,0.9 -5.875,0.9 -0.6,0 -1.4,-0.2 -0.775,-0.225 -1.1,-0.55 z"
       style=""
       id="path3362" /></g></svg>