<?xml version="1.0" encoding="UTF-8" standalone="no"?>
<!-- Generator: Adobe Illustrator 17.1.0, SVG Export Plug-In . SVG Version: 6.00 Build 0)  -->

<svg
   xmlns:dc="http://purl.org/dc/elements/1.1/"
   xmlns:cc="http://creativecommons.org/ns#"
   xmlns:rdf="http://www.w3.org/1999/02/22-rdf-syntax-ns#"
   xmlns:svg="http://www.w3.org/2000/svg"
   xmlns="http://www.w3.org/2000/svg"
   xmlns:sodipodi="http://sodipodi.sourceforge.net/DTD/sodipodi-0.dtd"
   xmlns:inkscape="http://www.inkscape.org/namespaces/inkscape"
   version="1.1"
   x="0px"
   y="0px"
   viewBox="0 0 91.5 14.6"
   enable-background="new 0 0 91.5 14.6"
   xml:space="preserve"
   id="svg2"
   inkscape:version="0.91 r13725"
   sodipodi:docname="twit_link.svg"><metadata
     id="metadata32"><rdf:RDF><cc:Work
         rdf:about=""><dc:format>image/svg+xml</dc:format><dc:type
           rdf:resource="http://purl.org/dc/dcmitype/StillImage" /></cc:Work></rdf:RDF></metadata><defs
     id="defs30" /><sodipodi:namedview
     pagecolor="#ffffff"
     bordercolor="#666666"
     borderopacity="1"
     objecttolerance="10"
     gridtolerance="10"
     guidetolerance="10"
     inkscape:pageopacity="0"
     inkscape:pageshadow="2"
     inkscape:window-width="1920"
     inkscape:window-height="1017"
     id="namedview28"
     showgrid="false"
     inkscape:zoom="4.4976628"
     inkscape:cx="140.29122"
     inkscape:cy="-10.367959"
     inkscape:window-x="-8"
     inkscape:window-y="-8"
     inkscape:window-maximized="1"
     inkscape:current-layer="svg2" /><g
     id="bg"
     display="none"><rect
       x="-46.6"
       y="-56"
       display="inline"
       width="447.8"
       height="80.6"
       id="rect5" /></g><g
     style="font-style:normal;font-variant:normal;font-weight:bold;font-stretch:normal;font-size:15px;line-height:125%;font-family:'Project Paintball';-inkscape-font-specification:'Project Paintball Bold';letter-spacing:0px;word-spacing:0px;fill:#ffffff;fill-opacity:1;stroke:none;stroke-width:1px;stroke-linecap:butt;stroke-linejoin:miter;stroke-opacity:1"
     id="text3360"><path
       d="m 1.4470132,2.1819487 3.495,0 q 0.03,3.285 0,9.7500003 l -3.495,0 q -0.03,-7.8750003 0,-9.7500003 z"
       style=""
       id="path3365" /><path
       d="m 6.4560757,2.1819487 3.36,0 0,1.5 -3.36,0 0,-1.5 z m 3.36,2.385 0,7.3650003 -3.36,0 0,-7.3650003 3.36,0 z"
       style=""
       id="path3367" /><path
       d="m 19.463654,11.931949 -2.985,0 0,-3.4200003 q 0,-0.6 -0.555,-0.84 -0.555,-0.24 -0.945,0.135 l 0,4.1250003 -3.63,0 0,-7.8000003 3.63,0 0,1.53 q 0.33,-0.795 0.765,-1.215 0.435,-0.42 1.155,-0.42 1.02,0 1.785,0.78 0.765,0.765 0.78,1.86 l 0,5.2650003 z"
       style=""
       id="path3369" /><path
       d="m 26.208029,4.1319487 2.43,0 -1.845,3.555 2.145,4.2450003 -3.135,0 -1.38,-2.8800003 0,2.8800003 -3.465,0 0,-9.7500003 3.465,0 0,5.22 1.785,-3.27 z"
       style=""
       id="path3371" /><path
       d="m 36.500841,3.0669487 3.495,0 0,1.065 2.325,0 0,3.885 -2.325,0 0,0.33 q 0,0.915 0.615,1.455 0.63,0.5250003 1.71,0.5550003 l 0,1.56 q -1.08,0.09 -1.92,0.045 -0.84,-0.045 -1.455,-0.105 -0.615,-0.075 -1.05,-0.27 -0.435,-0.195 -0.705,-0.39 -0.27,-0.21 -0.42,-0.51 -0.15,-0.3 -0.21,-0.6 -0.06,-0.3000003 -0.06,-0.6750003 l 0,-1.395 -0.96,0 0,-3.885 0.96,0 0,-1.065 z"
       style=""
       id="path3373" /><path
       d="m 43.066623,4.1319487 1.71,0 0.96,3.105 0.945,-3.105 2.49,0 1.53,3.48 0.96,-3.48 1.905,0 -1.725,7.8000003 -2.67,0 -0.96,-2.9850003 -0.945,2.9850003 -2.865,0 q -0.555,-2.6100003 -1.335,-7.8000003 z"
       style=""
       id="path3375" /><path
       d="m 54.620138,2.1819487 3.36,0 0,1.5 -3.36,0 0,-1.5 z m 3.36,2.385 0,7.3650003 -3.36,0 0,-7.3650003 3.36,0 z"
       style=""
       id="path3377" /><path
       d="m 60.172716,3.0669487 3.495,0 0,1.065 2.325,0 0,3.885 -2.325,0 0,0.33 q 0,0.915 0.615,1.455 0.63,0.5250003 1.71,0.5550003 l 0,1.56 q -1.08,0.09 -1.92,0.045 -0.84,-0.045 -1.455,-0.105 -0.615,-0.075 -1.05,-0.27 -0.435,-0.195 -0.705,-0.39 -0.27,-0.21 -0.42,-0.51 -0.15,-0.3 -0.21,-0.6 -0.06,-0.3000003 -0.06,-0.6750003 l 0,-1.395 -0.96,0 0,-3.885 0.96,0 0,-1.065 z"
       style=""
       id="path3379" /><path
       d="m 67.848498,3.0669487 3.495,0 0,1.065 2.325,0 0,3.885 -2.325,0 0,0.33 q 0,0.915 0.615,1.455 0.63,0.5250003 1.71,0.5550003 l 0,1.56 q -1.08,0.09 -1.92,0.045 -0.84,-0.045 -1.455,-0.105 -0.615,-0.075 -1.05,-0.27 -0.435,-0.195 -0.705,-0.39 -0.27,-0.21 -0.42,-0.51 -0.15,-0.3 -0.21,-0.6 -0.06,-0.3000003 -0.06,-0.6750003 l 0,-1.395 -0.96,0 0,-3.885 0.96,0 0,-1.065 z"
       style=""
       id="path3381" /><path
       d="m 78.734279,4.0719487 q 2.115,0 3.18,1.155 1.065,1.14 0.81,3.225 l -4.635,0 q 0,0.84 0.45,1.275 0.465,0.4200003 1.08,0.4200003 0.615,0 1.125,-0.2100003 0.525,-0.21 0.72,-0.63 l 1.14,0 q -0.165,1.1550003 -1.245,1.9350003 -1.065,0.78 -2.625,0.78 -1.695,0 -2.94,-1.08 -1.23,-1.0950003 -1.23,-2.9250003 0,-1.86 1.17,-2.895 1.17,-1.05 3,-1.05 z m 0.57,1.815 q -0.39,0 -0.81,0.345 -0.405,0.345 -0.405,0.93 l 2.28,0 q 0.165,-0.57 -0.24,-0.915 -0.405,-0.36 -0.825,-0.36 z"
       style=""
       id="path3383" /><path
       d="m 87.545607,5.0019487 q 0.405,-0.51 0.96,-0.705 0.57,-0.21 1.14,-0.045 l 0,2.01 q -1.41,0.075 -2.1,1.155 l 0,4.5150003 -3.57,0 0,-7.8000003 3.57,0 0,0.87 z"
       style=""
       id="path3385" /></g></svg>