<?xml version="1.0" encoding="UTF-8" standalone="no"?>
<!-- Generator: Adobe Illustrator 17.1.0, SVG Export Plug-In . SVG Version: 6.00 Build 0)  -->

<svg
   xmlns:dc="http://purl.org/dc/elements/1.1/"
   xmlns:cc="http://creativecommons.org/ns#"
   xmlns:rdf="http://www.w3.org/1999/02/22-rdf-syntax-ns#"
   xmlns:svg="http://www.w3.org/2000/svg"
   xmlns="http://www.w3.org/2000/svg"
   xmlns:sodipodi="http://sodipodi.sourceforge.net/DTD/sodipodi-0.dtd"
   xmlns:inkscape="http://www.inkscape.org/namespaces/inkscape"
   version="1.1"
   x="0px"
   y="0px"
   viewBox="0 0 59.7 14.6"
   enable-background="new 0 0 59.7 14.6"
   xml:space="preserve"
   id="svg2"
   inkscape:version="0.91 r13725"
   sodipodi:docname="twit_unlink.svg"><metadata
     id="metadata22"><rdf:RDF><cc:Work
         rdf:about=""><dc:format>image/svg+xml</dc:format><dc:type
           rdf:resource="http://purl.org/dc/dcmitype/StillImage" /></cc:Work></rdf:RDF></metadata><defs
     id="defs20" /><sodipodi:namedview
     pagecolor="#ffffff"
     bordercolor="#666666"
     borderopacity="1"
     objecttolerance="10"
     gridtolerance="10"
     guidetolerance="10"
     inkscape:pageopacity="0"
     inkscape:pageshadow="2"
     inkscape:window-width="1920"
     inkscape:window-height="1017"
     id="namedview18"
     showgrid="false"
     inkscape:zoom="6.8934027"
     inkscape:cx="86.559879"
     inkscape:cy="10.571625"
     inkscape:window-x="-8"
     inkscape:window-y="-8"
     inkscape:window-maximized="1"
     inkscape:current-layer="svg2" /><g
     id="bg"
     display="none"><rect
       x="-46.6"
       y="-56"
       display="inline"
       width="447.8"
       height="80.6"
       id="rect5" /></g><g
     style="font-style:normal;font-weight:normal;font-size:40px;line-height:125%;font-family:sans-serif;letter-spacing:0px;word-spacing:0px;fill:#ffffff;fill-opacity:1;stroke:none;stroke-width:1px;stroke-linecap:butt;stroke-linejoin:miter;stroke-opacity:1"
     id="text3350"><path
       d="m 1.1050333,2.0644703 4.69,0 0,4.27 q 0,0.7525 0.2275,1.12 0.245,0.35 0.595,0.35 0.35,0 0.63,-0.315 0.28,-0.3325 0.28,-0.805 l 0,-4.62 3.1149997,0 q 0.0175,0.7 0.0525,1.9425 0.0525,1.2425 0.0875,2.3625 0.035,1.12 0.035,2.2225 0,2.3099997 -1.1899997,3.6749997 -1.19,1.3475 -3.4825,1.3475 -2.835,0 -4.1125,-1.085 -1.25999997,-1.1025 -1.25999997,-2.9049997 0,-3.9025 0.33249997,-7.56 z"
       style="font-style:normal;font-variant:normal;font-weight:bold;font-stretch:normal;font-size:17.5px;font-family:'Project Paintball';-inkscape-font-specification:'Project Paintball Bold';fill:#ffffff"
       id="path3355" /><path
       d="m 21.831049,13.43947 -3.4825,0 0,-3.9899997 q 0,-0.7 -0.6475,-0.98 -0.6475,-0.28 -1.1025,0.1575 l 0,4.8124997 -4.235,0 0,-9.0999997 4.235,0 0,1.785 q 0.385,-0.9275 0.8925,-1.4175 0.5075,-0.49 1.3475,-0.49 1.19,0 2.0825,0.91 0.8925,0.8925 0.91,2.17 l 0,6.1424997 z"
       style="font-style:normal;font-variant:normal;font-weight:bold;font-stretch:normal;font-size:17.5px;font-family:'Project Paintball';-inkscape-font-specification:'Project Paintball Bold';fill:#ffffff"
       id="path3357" /><path
       d="m 23.609486,2.0644703 4.0775,0 q 0.035,3.8325 0,11.3749997 l -4.0775,0 q -0.035,-9.1874997 0,-11.3749997 z"
       style="font-style:normal;font-variant:normal;font-weight:bold;font-stretch:normal;font-size:17.5px;font-family:'Project Paintball';-inkscape-font-specification:'Project Paintball Bold';fill:#ffffff"
       id="path3359" /><path
       d="m 29.453393,2.0644703 3.92,0 0,1.75 -3.92,0 0,-1.75 z m 3.92,2.7825 0,8.5924997 -3.92,0 0,-8.5924997 3.92,0 z"
       style="font-style:normal;font-variant:normal;font-weight:bold;font-stretch:normal;font-size:17.5px;font-family:'Project Paintball';-inkscape-font-specification:'Project Paintball Bold';fill:#ffffff"
       id="path3361" /><path
       d="m 44.628901,13.43947 -3.4825,0 0,-3.9899997 q 0,-0.7 -0.6475,-0.98 -0.6475,-0.28 -1.1025,0.1575 l 0,4.8124997 -4.235,0 0,-9.0999997 4.235,0 0,1.785 q 0.385,-0.9275 0.8925,-1.4175 0.5075,-0.49 1.3475,-0.49 1.19,0 2.0825,0.91 0.8925,0.8925 0.91,2.17 l 0,6.1424997 z"
       style="font-style:normal;font-variant:normal;font-weight:bold;font-stretch:normal;font-size:17.5px;font-family:'Project Paintball';-inkscape-font-specification:'Project Paintball Bold';fill:#ffffff"
       id="path3363" /><path
       d="m 52.497338,4.3394703 2.835,0 -2.1525,4.1475 2.5025,4.9524997 -3.6575,0 -1.61,-3.36 0,3.36 -4.0425,0 0,-11.3749997 4.0425,0 0,6.09 2.0825,-3.815 z"
       style="font-style:normal;font-variant:normal;font-weight:bold;font-stretch:normal;font-size:17.5px;font-family:'Project Paintball';-inkscape-font-specification:'Project Paintball Bold';fill:#ffffff"
       id="path3365" /></g></svg>